<svg xmlns="http://www.w3.org/2000/svg" fill="none" viewBox="0 0 475 436" height="436" width="475">
<path fill="#C73C40" d="M249.59 97.6902C259.01 109.82 261.57 113.09 275.57 130.59C272.27 141.49 268.75 152.92 261.62 169.64C247.93 170.85 233.78 171.62 219.49 171.92C212.31 159.5 205.99 148.51 198.96 134.63C205.07 123.42 210.87 112.67 216.79 99.4702C227.94 99.2202 238.96 98.6202 249.59 97.6802M187.91 134.44L213.73 182.28L268.53 179.28L286.25 128.76L253.08 87.6602L210.91 89.9501L187.91 134.44Z"></path>
<path fill="#231F20" d="M290.18 110.12C284.82 103.99 279.43 97.8898 274.03 91.7798C270.26 87.5098 266.49 83.2198 262.72 78.9398C263.59 66.5498 264 59.5998 261.92 48.6598C267.89 47.5798 273.43 46.3498 278.45 44.9798C288.5 52.4598 298.12 59.6598 310.37 69.8698C314.35 82.2398 316.63 89.5598 317.78 104.1C309.47 106.37 300.2 108.39 290.17 110.11M274.15 37.0598C267.88 38.8998 259.85 40.5698 252.05 41.0598C254.7 54.2698 254.4 68.5798 254.05 82.0098C258.86 87.6298 287.31 120.71 287.31 120.71L327.15 111.9L317.32 65.8598C317.32 65.8598 281.68 40.2198 274.15 37.0498"></path>
<path fill="#231F20" d="M276.39 28.09C268.57 19.54 263.78 14.36 253.69 8.01C253.84 7.92 256.67 6.81 256.81 6.71C267.86 10.32 276.71 15.16 291.31 21.64C302.56 30.05 309.1 34.96 318.39 45.9C316.11 47.54 313.32 49.15 310.05 50.69C300.68 44.01 290.82 37.04 276.39 28.09ZM328.92 50.01C328.92 50.01 311.23 28.79 293.89 16.78L248.45 0L238.12 5.72C238.12 5.72 260.25 19.38 270.88 32.35L313.73 59.42L328.92 50.01Z"></path>
<path fill="#231F20" d="M364.01 147.2C357.85 138.4 351.22 129.11 339.89 116.12C338.67 105 337.33 93.4803 332.52 79.3303C336.98 77.2103 340.76 74.9603 343.83 72.6203C352.22 80.1803 360.25 87.5903 368.96 98.2003C372.85 109.49 376.86 121.22 378.98 138.24C375.12 141.34 370.1 144.35 364.01 147.21M321.99 73.0403C327 88.2903 330.39 103.28 331.49 119.31C342.3 132.15 352.61 145.25 361.83 159.26C370.87 155.35 379.51 150.97 386.84 144.3C384.41 127.04 380.82 110.5 374.54 94.1803C364.36 82.3303 353.32 71.4203 341.37 61.3203C335.53 66.5903 329.22 69.9303 321.99 73.0303"></path>
<path fill="#231F20" d="M330.93 138.47C338.65 148.41 346.02 158.01 353.8 170.67C351.53 183.03 349.09 195.92 342.78 213.86C332.39 216.74 320.77 219.29 308.16 221.46C301.53 210.24 297.02 202.72 285.58 185.99C290.7 173.33 295.55 161.19 299.58 145.32C310.93 143.37 321.45 141.07 330.93 138.46M302.74 232.7C318.33 230.19 333.75 227.02 348.9 222.59C354.93 204.89 360.11 186.86 362.71 168.33C353.61 154.08 343.85 140.38 333.17 127.25C319.58 131.21 305.79 134.04 291.82 136.35C287.05 153.74 281.17 170.65 274.06 187.24C284.07 202.12 293.88 217.14 302.74 232.71"></path>
<path fill="#231F20" d="M218.2 282.34C210.2 269.94 204.19 260.6 196.64 248.06C202.05 238.98 209.86 225.8 218.97 209.61C234 209.3 248.88 208.52 263.25 207.27C269.61 217.34 276.25 227.9 285.07 242.98C278.59 253.77 271.74 265.06 260.95 280.09C247.04 281.3 232.66 282.06 218.2 282.34ZM268.62 196.45C250.08 198.21 231.49 199.16 212.88 199.41C203.66 215.7 194.32 231.93 184.68 247.95C193.69 262.73 202.97 277.32 212.43 291.83C230.36 291.57 248.25 290.65 266.12 289.01C277.01 273.83 287.43 258.39 296.77 242.25C287.7 226.81 278.37 211.51 268.62 196.45Z"></path>
<path fill="#231F20" d="M144.78 113.7C142.64 103.26 140.53 92.3698 140.29 79.2598C155 63.1298 159.55 58.1098 165.56 51.3098C172.35 52.0498 179.45 52.5998 186.67 52.9398C189.01 61.0898 191.65 69.7798 197.56 82.9798C192.83 91.9698 187.82 101.45 178.78 116.28C167.17 115.75 155.75 114.89 144.77 113.7M137.09 122.83C143.02 124.36 183.76 126.42 183.76 126.42C183.98 126.42 207.33 83.4798 207.5 83.1098C201.82 70.6598 197.44 57.3798 193.56 44.2798C183.85 44.7698 163.64 42.0898 163.64 42.0898L131.43 76.7998C132.33 106.26 137.08 122.82 137.08 122.82"></path>
<path fill="#231F20" d="M143.15 321.22C135.23 312.5 127.65 304.11 117.98 291.35C121.28 283.76 124.89 275.63 132.14 262.08C145.64 263.57 159.73 264.64 174.07 265.27C181.04 276.19 186.01 283.9 195.91 298.13C183.92 315.57 181.52 319.12 178.37 323.93C166.33 323.4 154.5 322.49 143.14 321.23M207.77 298.17C198.21 284.14 188.78 270.04 179.84 255.62C161.89 254.97 144.03 253.58 126.2 251.5C119.32 264.57 112.71 277.68 107.23 291.4C117.4 304.47 127.99 317.12 139.42 329.13C154.19 330.86 169.03 331.95 183.9 332.5C191.77 321 199.79 309.58 207.77 298.16"></path>
<path fill="#231F20" d="M64.65 115.56C72.36 107.33 80.44 98.7403 93.5 86.5603C100.6 88.7203 108.53 90.6803 117.16 92.3803C117.47 102.55 117.96 113.34 121.23 129.1C112.01 141.13 104.55 150.88 95.87 163.14C84.72 160.95 74.47 158.44 65.36 155.65C64.19 143.71 63.11 131.25 64.66 115.56M57.46 163.86C71.3 168.35 85.43 171.64 99.74 174.28C110.05 159.66 120.64 145.25 131.43 130.99C128.22 115.4 126.08 100.08 126.07 84.1403C114.93 82.0803 103.95 79.5603 93.18 76.0703C80.59 87.6703 68.02 99.3303 56.61 112.1C55.09 129.43 55.28 146.59 57.46 163.86Z"></path>
<path fill="#231F20" d="M128.46 347.12C121.87 345.75 115.77 344.21 110.31 342.51C100.77 335.8 90.89 328.82 78.48 316.96C75.8 309.62 74.41 305.61 74.23 297.74C82.64 300.23 92.02 302.48 102.18 304.44C109.4 312.82 117.58 322.25 129.04 333.14C128.33 337.66 127.73 342.31 128.46 347.12ZM138.86 331.9C127.31 320.59 116.19 308.83 106.03 296.28C92.3 293.82 78.7 290.38 65.43 286.1C65.68 297.83 66.21 307.43 71.14 318.43C76.38 323.23 101.38 343.83 109.29 348.98C117.67 352.96 130.06 354.55 139.21 356.23C137.11 347.61 136.84 340.58 138.86 331.91"></path>
<path fill="#231F20" d="M387.22 174.83C389.88 183.47 392.36 192.69 392.81 204.71C385.87 237.56 380.98 246.45 380.12 247.86C376.43 250.97 371.56 253.98 365.64 256.86C364.77 249.04 363.5 240.54 359.37 228.21C363.65 216.03 368.43 202.21 371.59 183.77C377.75 180.94 382.99 177.94 387.23 174.82M399.16 203.2C398.17 187.72 395.24 174.71 389.91 160.08C382.38 166.89 373.97 171.83 364.65 175.85C361.33 193.9 355.7 211.88 350.03 229.35C351.47 229.35 357.73 262.63 358.16 269.73C367.51 265.68 376.44 262.24 383.75 254.83C390.03 239.86 398.2 219.51 399.16 203.2Z"></path>
<path fill="#231F20" d="M241.88 352.23C232.65 353.03 223.08 353.56 213.42 353.75C208.6 348.03 203.74 342.33 198.89 336.62C205 328.69 211.12 320.76 217.2 312.79C230.71 312.53 244.1 311.83 257.05 310.71C260.8 317.87 264.3 324.74 266.87 331.91C250.66 346.03 243.68 351.02 241.88 352.24M277.41 332.93C273.22 321.98 268.93 311.61 263.41 301.22C246.32 302.85 229.18 303.75 212.01 303.95C203.83 314.87 195.61 325.77 187.53 336.76C191.24 340.99 194.96 345.21 198.68 349.42C202.09 353.28 205.49 357.14 208.9 361C220.62 360.85 232.39 360.03 244.08 359.17C255.75 350.99 266.76 342.4 277.41 332.92"></path>
<path fill="#231F20" d="M293.51 349.77C277.33 360.51 263.13 365.15 251.23 367.21C248.61 367.8 248.05 365.82 248.2 364.66C256.08 359.84 268.62 351.14 280.02 342.08C287.7 340.76 294.9 339.28 301.53 337.61C299.38 341.32 298.38 346.03 293.51 349.77ZM315.23 326.14C299.75 332.41 277.51 334.77 277.51 334.77C277.51 334.77 243.56 365 239.6 366.76L241.15 370.77C258.92 367.56 277.76 362.94 297.32 350.12C299.76 348.57 314.37 332.41 315.24 326.14"></path>
<path fill="#231F20" d="M323.08 329C324.15 327.13 325.13 325.02 326.12 322.5C335.02 313.53 344.23 304.22 354.89 289.65C358.17 288.16 361.18 286.62 363.88 285.04C355.1 301.92 337.81 317.34 323.08 329ZM355.53 282.1L322.61 321.07C322.78 323.26 312.07 342.4 312.07 342.4C344.02 322.64 366.42 297.28 380.29 262.59C374.34 270.74 365.16 278.42 355.53 282.1Z"></path>
<path fill="#231F20" d="M291.19 317.58C289.25 311.22 287.19 305.03 281.75 294.1C289.97 283.38 297.82 273.02 306.98 257.9C319.33 255.81 330.76 253.33 341.03 250.52C343.6 259.15 345.9 267.54 346.45 277.65C328.52 302.95 321.22 309.91 319.73 311.22C311.19 313.62 301.6 315.74 291.21 317.57M355.05 277.96C354.2 264.48 351.41 251.6 347.14 238.83C332.14 243.2 316.96 246.42 301.52 248.91C291.94 264.52 281.54 279.63 270.27 294.12C276.97 304.71 280.62 315.56 283.75 327.12C295.84 325.18 307.82 322.82 319.61 319.47L355.04 277.97L355.05 277.96Z"></path>
<path fill="#231F20" d="M10.09 421.29H45.11C46.84 421.29 48.09 420.98 48.86 420.37C49.62 419.75 50 418.86 50 417.69C50 416.52 49.62 415.72 48.86 415.13C48.1 414.55 46.85 414.25 45.11 414.25H14.45L22.63 403.32H45.34C46.51 403.32 47.54 403.08 48.44 402.6C49.33 402.11 49.78 401.21 49.78 399.88C49.78 398.55 49.32 397.74 48.41 397.28C47.49 396.82 46.47 396.59 45.35 396.59H2.53L12.7 383.29H44.65C47.72 383.29 50.48 383.59 52.95 384.17C55.42 384.76 57.54 385.65 59.3 386.85C61.06 388.05 62.4 389.53 63.35 391.28C64.29 393.04 64.76 395.1 64.76 397.43C64.76 398.96 64.56 400.32 64.15 401.48C63.74 402.65 63.22 403.69 62.58 404.58C61.95 405.48 61.21 406.21 60.37 406.79C59.53 407.38 58.68 407.83 57.81 408.13C60.05 408.8 61.95 410.09 63.5 412.03C65.06 413.97 65.83 416.46 65.83 419.52C65.83 421.66 65.5 423.64 64.84 425.45C64.17 427.25 63.05 428.82 61.47 430.15C59.89 431.48 57.76 432.52 55.09 433.28C52.43 434.05 49.07 434.44 45.04 434.44H0L10.09 421.28V421.29Z"></path>
<path fill="#231F20" d="M130.13 408.37C130.13 412.09 129.35 415.54 127.79 418.72C126.24 421.91 124.1 424.67 121.37 426.99C118.65 429.31 115.39 431.13 111.63 432.45C107.85 433.78 103.75 434.44 99.32 434.44H65.07V402.55H80.98V421.28H99.33C101.52 421.28 103.54 420.99 105.41 420.4C107.27 419.82 108.87 418.99 110.18 417.92C111.51 416.85 112.55 415.56 113.32 414.05C114.09 412.55 114.46 410.88 114.46 409.05C114.46 407.22 114.09 405.61 113.32 404.08C112.56 402.55 111.49 401.24 110.11 400.14C108.74 399.04 107.13 398.18 105.29 397.54C103.45 396.91 101.47 396.59 99.33 396.59H65.08L75.18 383.29H99.34C103.82 383.29 107.95 383.91 111.73 385.12C115.5 386.35 118.75 388.06 121.47 390.29C124.2 392.5 126.33 395.15 127.85 398.24C129.38 401.32 130.15 404.7 130.15 408.37"></path>
<path fill="#C73C40" d="M203.54 381.9L186.53 397.45C184.65 399.17 183.07 400.61 181.78 401.76C180.5 402.92 179.39 403.89 178.48 404.67C177.56 405.45 176.8 406.09 176.18 406.61C175.56 407.12 175.01 407.56 174.53 407.94C175.02 408.27 175.55 408.66 176.14 409.15C176.74 409.63 177.51 410.32 178.48 411.2C179.44 412.09 180.65 413.2 182.1 414.54C183.55 415.88 185.38 417.58 187.58 419.62L204.84 435.82H181.3L162.92 418.01L143.99 435.82H123.28L140.84 419.62C142.88 417.74 144.6 416.16 146 414.91C147.4 413.65 148.55 412.61 149.46 411.81C150.38 411 151.14 410.36 151.76 409.87C152.38 409.38 152.93 408.95 153.41 408.58C152.93 408.21 152.39 407.78 151.8 407.33C151.21 406.88 150.46 406.23 149.54 405.4C148.62 404.57 147.47 403.51 146.08 402.26C144.69 401 142.94 399.37 140.84 397.37L124.32 381.9H147.45L164.62 398.67L181.95 381.9H203.55H203.54Z"></path>
<path fill="#231F20" d="M266.22 383.29L255.97 396.59H237.7V434.44H221.87V396.59H197.87L208.11 383.29H266.22Z"></path>
<path fill="#231F20" d="M325.65 421.29L315.38 434.44H265.65V383.28H325.5L315.15 396.59H281.71V402.71H322.63L313.45 414.33H281.71V421.29H325.65Z"></path>
<path fill="#231F20" d="M391.13 421.29L380.86 434.45H354.91C350.43 434.45 346.29 433.78 342.48 432.45C338.66 431.13 335.39 429.31 332.63 426.98C329.87 424.66 327.71 421.91 326.15 418.73C324.57 415.54 323.79 412.1 323.79 408.38C323.79 404.66 324.57 401.25 326.15 398.16C327.71 395.09 329.88 392.43 332.63 390.21C335.38 388 338.66 386.29 342.48 385.1C346.29 383.9 350.43 383.3 354.91 383.3H391.13L380.86 396.6H354.91C352.75 396.6 350.75 396.91 348.89 397.52C347.04 398.13 345.44 398.98 344.11 400.08C342.76 401.18 341.72 402.49 340.95 404.02C340.17 405.54 339.79 407.23 339.79 409.06C339.79 410.89 340.16 412.56 340.91 414.07C341.65 415.58 342.71 416.86 344.07 417.94C345.43 419.01 347.04 419.83 348.89 420.42C350.75 421.01 352.76 421.3 354.91 421.3H391.13V421.29Z"></path>
<path fill="#231F20" d="M453.01 434.43H437.26V414.71H406.83V434.43H390.93V383.29H406.83V401.41H437.26V383.29H453.01V434.43Z"></path>
<path fill="#231F20" d="M458.95 392.95C458.95 391.7 459.16 390.59 459.57 389.62C459.98 388.65 460.55 387.84 461.28 387.18C461.99 386.53 462.83 386.03 463.79 385.68C464.74 385.34 465.75 385.17 466.82 385.17C467.89 385.17 468.93 385.34 469.89 385.68C470.85 386.03 471.68 386.53 472.39 387.18C473.1 387.84 473.67 388.65 474.07 389.62C474.48 390.59 474.67 391.7 474.67 392.95C474.67 394.2 474.47 395.32 474.06 396.29C473.64 397.25 473.07 398.07 472.35 398.73C471.63 399.39 470.8 399.88 469.84 400.23C468.89 400.57 467.88 400.74 466.81 400.74C465.74 400.74 464.67 400.57 463.72 400.23C462.78 399.88 461.94 399.38 461.23 398.73C460.52 398.08 459.96 397.26 459.56 396.29C459.15 395.32 458.95 394.21 458.95 392.95ZM460.82 392.95C460.82 393.97 460.98 394.86 461.3 395.61C461.62 396.37 462.04 396.99 462.59 397.5C463.13 397.99 463.77 398.37 464.51 398.62C465.24 398.88 466.01 399 466.82 399C467.67 399 468.46 398.88 469.19 398.64C469.93 398.4 470.56 398.02 471.09 397.52C471.62 397.01 472.04 396.39 472.35 395.64C472.65 394.88 472.81 393.99 472.81 392.95C472.81 391.91 472.64 391.05 472.33 390.3C472.02 389.54 471.58 388.91 471.04 388.41C470.5 387.92 469.87 387.54 469.15 387.28C468.42 387.03 467.65 386.9 466.82 386.9C465.99 386.9 465.15 387.03 464.42 387.28C463.68 387.54 463.05 387.92 462.51 388.41C461.98 388.91 461.57 389.53 461.27 390.3C460.97 391.05 460.82 391.94 460.82 392.95ZM463.76 389.13C464.07 389.03 464.52 388.96 465.09 388.91C465.66 388.86 466.21 388.84 466.72 388.84C467.55 388.84 468.27 389.01 468.86 389.35C469.45 389.7 469.75 390.29 469.75 391.13C469.75 391.75 469.55 392.23 469.15 392.57C468.74 392.91 468.25 393.09 467.65 393.13L468.48 393.54L470.68 396.74H468.87L466.73 393.69L465.31 393.25V396.75H463.77V389.14L463.76 389.13ZM466.4 390.16C466.18 390.16 465.97 390.16 465.78 390.17C465.59 390.18 465.43 390.22 465.31 390.27V392.35H466.32C466.9 392.35 467.34 392.27 467.66 392.09C467.98 391.92 468.13 391.61 468.13 391.18C468.13 390.5 467.55 390.15 466.41 390.15"></path>
</svg>
