<svg xmlns:dc="http://purl.org/dc/elements/1.1/" xmlns:cc="http://creativecommons.org/ns#" xmlns:rdf="http://www.w3.org/1999/02/22-rdf-syntax-ns#" xmlns:svg="http://www.w3.org/2000/svg" xmlns="http://www.w3.org/2000/svg" viewBox="227 130 661.73 140.03" height="130.03" width="651.73" xml:space="preserve" id="svg2" version="1.1"><g transform="matrix(1.3333333,0,0,-1.3333333,0,389.18933)" id="g10"><g id="g12"><g clip-path="url(#clipPath18)" id="g14"><g transform="translate(268.0234,122.8467)" id="g20"><path id="path22" style="fill:#fff;fill-opacity:1;fill-rule:nonzero;stroke:none" d="M 0,0 H -8.619 V 17.238 H 0 c 2.444,0 4.447,-0.816 6.126,-2.494 C 7.804,13.066 8.619,11.063 8.619,8.619 8.619,6.175 7.804,4.171 6.126,2.493 4.447,0.815 2.444,0 0,0 M 4.351,26.471 C 3.138,25.259 1.715,24.669 0,24.669 H -8.619 V 36.973 H 0 c 1.714,0 3.137,-0.59 4.35,-1.802 1.212,-1.213 1.802,-2.636 1.802,-4.35 0,-1.715 -0.59,-3.137 -1.801,-4.35 m 5.456,-5.098 c 2.507,2.539 3.776,5.71 3.776,9.448 0,3.79 -1.323,7.035 -3.935,9.648 C 7.036,43.081 3.79,44.404 0,44.404 h -12.334 c -2.327,0 -3.716,-1.389 -3.716,-3.716 V -3.716 c 0,-2.326 1.389,-3.716 3.716,-3.716 H 0 c 4.41,0 8.229,1.582 11.349,4.703 3.12,3.12 4.701,6.938 4.701,11.348 0,5.469 -2.099,9.751 -6.243,12.754"/></g><g transform="translate(313.3633,159.8198)" id="g24"><path id="path26" style="fill:#fff;fill-opacity:1;fill-rule:nonzero;stroke:none" d="M 0,0 C 2.327,0 3.716,1.389 3.716,3.715 3.716,6.042 2.327,7.431 0,7.431 h -19.734 c -2.328,0 -3.716,-1.389 -3.716,-3.716 v -44.404 c 0,-2.326 1.388,-3.716 3.716,-3.716 H 0 c 2.327,0 3.716,1.39 3.716,3.716 0,2.326 -1.389,3.716 -3.716,3.716 h -16.02 v 17.238 h 11.086 c 2.328,0 3.716,1.388 3.716,3.715 0,2.327 -1.388,3.716 -3.716,3.716 H -16.02 V 0 Z"/></g><g transform="translate(346.0439,141.1011)" id="g28"><path id="path30" style="fill:#fff;fill-opacity:1;fill-rule:nonzero;stroke:none" d="m 0,0 -13.869,7.104 c -2.259,1.148 -3.357,2.936 -3.357,5.464 0,1.714 0.59,3.137 1.803,4.349 1.213,1.212 2.636,1.802 4.35,1.802 3.564,0 7.21,-0.714 10.835,-2.12 0.607,-0.237 1.084,-0.347 1.5,-0.347 0.999,0 1.905,0.378 2.62,1.095 0.717,0.715 1.095,1.622 1.095,2.62 0,0.956 -0.36,2.307 -2.076,3.321 -3.245,1.899 -7.946,2.862 -13.974,2.862 -3.717,0 -6.944,-1.343 -9.592,-3.992 -2.648,-2.648 -3.991,-5.875 -3.991,-9.592 0,-5.491 2.478,-9.549 7.37,-12.062 l 13.869,-7.103 c 2.308,-1.176 3.43,-2.976 3.43,-5.503 0,-1.714 -0.59,-3.138 -1.802,-4.351 -1.213,-1.213 -2.636,-1.801 -4.351,-1.801 -2.195,0 -4.252,0.322 -6.113,0.958 -3.003,1.381 -5.231,2.507 -6.67,3.375 -0.742,0.404 -1.402,0.6 -2.017,0.6 -1,0 -1.907,-0.379 -2.622,-1.094 -0.716,-0.715 -1.094,-1.623 -1.094,-2.622 0,-1.189 0.546,-2.231 1.575,-3.01 4.91,-3.742 10.61,-5.639 16.941,-5.639 3.717,0 6.945,1.344 9.592,3.992 2.649,2.649 3.991,5.876 3.991,9.593 C 7.443,-6.61 4.939,-2.539 0,0"/></g><g transform="translate(386.1807,167.251)" id="g32"><path id="path34" style="fill:#fff;fill-opacity:1;fill-rule:nonzero;stroke:none" d="m 0,0 h -24.669 c -2.326,0 -3.716,-1.389 -3.716,-3.716 0,-2.326 1.39,-3.715 3.716,-3.715 h 8.619 V -48.12 c 0,-2.326 1.389,-3.716 3.716,-3.716 2.326,0 3.715,1.39 3.715,3.716 V -7.431 H 0 c 2.327,0 3.716,1.389 3.716,3.715 C 3.716,-1.389 2.327,0 0,0"/></g><g transform="translate(419.1865,159.8198)" id="g36"><path id="path38" style="fill:#fff;fill-opacity:1;fill-rule:nonzero;stroke:none" d="M 0,0 C 2.326,0 3.716,1.389 3.716,3.715 3.716,6.042 2.326,7.431 0,7.431 h -19.735 c -2.327,0 -3.716,-1.389 -3.716,-3.716 v -44.404 c 0,-2.326 1.389,-3.716 3.716,-3.716 2.327,0 3.715,1.39 3.715,3.716 v 20.954 H 0 c 2.326,0 3.716,1.388 3.716,3.715 0,2.327 -1.39,3.716 -3.716,3.716 H -16.02 V 0 Z"/></g><g transform="translate(432.457,167.251)" id="g40"><path id="path42" style="fill:#fff;fill-opacity:1;fill-rule:nonzero;stroke:none" d="M 0,0 C -2.326,0 -3.716,-1.389 -3.716,-3.716 V -48.12 c 0,-2.326 1.39,-3.716 3.716,-3.716 2.326,0 3.716,1.39 3.716,3.716 V -3.716 C 3.716,-1.389 2.326,0 0,0"/></g><g transform="translate(466.9932,122.8467)" id="g44"><path id="path46" style="fill:#fff;fill-opacity:1;fill-rule:nonzero;stroke:none" d="m 0,0 h -16.02 v 40.688 c 0,2.327 -1.389,3.716 -3.715,3.716 -2.327,0 -3.716,-1.389 -3.716,-3.716 V -3.716 c 0,-2.326 1.389,-3.716 3.716,-3.716 H 0 c 2.326,0 3.716,1.39 3.716,3.716 C 3.716,-1.39 2.326,0 0,0"/></g><g transform="translate(500.6162,135.1816)" id="g48"><path id="path50" style="fill:#fff;fill-opacity:1;fill-rule:nonzero;stroke:none" d="m 0,0 h -11.106 l 5.55,16.667 z m -1.937,29.31 c -0.593,1.779 -1.876,2.759 -3.614,2.759 -1.733,0 -3.029,-1.004 -3.652,-2.835 l -14.69,-44.108 c -0.116,-0.352 -0.175,-0.748 -0.175,-1.177 0,-2.326 1.383,-3.716 3.701,-3.716 1.733,0 2.986,0.907 3.525,2.546 l 3.261,9.789 H 2.477 l 3.261,-9.785 c 0.541,-1.643 1.794,-2.55 3.528,-2.55 2.317,0 3.701,1.39 3.701,3.716 0,0.434 -0.06,0.831 -0.177,1.18 z"/></g><g transform="translate(552.7402,167.251)" id="g52"><path id="path54" style="fill:#fff;fill-opacity:1;fill-rule:nonzero;stroke:none" d="M 0,0 C -1.346,0 -2.431,-0.57 -3.134,-1.641 L -14.802,-19.18 -26.396,-1.79 c -0.781,1.171 -1.89,1.79 -3.208,1.79 -2.326,0 -3.715,-1.389 -3.715,-3.716 V -48.12 c 0,-2.326 1.389,-3.716 3.715,-3.716 2.327,0 3.716,1.39 3.716,3.716 v 32.156 l 7.725,-11.638 c 1.144,-1.679 2.459,-2.031 3.36,-2.031 0.883,0 2.176,0.352 3.329,2.043 l 7.758,11.608 v -32.14 c 0,-2.325 1.39,-3.714 3.716,-3.714 2.326,0 3.716,1.39 3.716,3.716 V -3.716 C 3.716,-1.389 2.326,0 0,0"/></g><g transform="translate(585.7461,159.8198)" id="g56"><path id="path58" style="fill:#fff;fill-opacity:1;fill-rule:nonzero;stroke:none" d="M 0,0 C 2.326,0 3.716,1.389 3.716,3.715 3.716,6.042 2.326,7.431 0,7.431 h -19.735 c -2.327,0 -3.716,-1.389 -3.716,-3.716 v -44.404 c 0,-2.326 1.389,-3.716 3.716,-3.716 H 0 c 2.326,0 3.716,1.39 3.716,3.716 0,2.326 -1.39,3.716 -3.716,3.716 h -16.02 v 17.238 h 11.086 c 2.327,0 3.716,1.388 3.716,3.715 0,2.327 -1.389,3.716 -3.716,3.716 H -16.02 V 0 Z"/></g><g transform="translate(623.6855,167.251)" id="g60"><path id="path62" style="fill:#fff;fill-opacity:1;fill-rule:nonzero;stroke:none" d="m 0,0 c -2.326,0 -3.716,-1.389 -3.716,-3.716 v -30.051 l -17.585,31.674 c -0.975,1.73 -2.37,2.093 -3.368,2.093 -2.326,0 -3.716,-1.389 -3.716,-3.716 V -48.12 c 0,-2.326 1.39,-3.716 3.716,-3.716 2.326,0 3.716,1.39 3.716,3.716 v 30.092 l 17.711,-31.901 c 0.669,-1.248 1.795,-1.907 3.257,-1.907 2.318,0 3.702,1.39 3.702,3.716 V -3.716 C 3.717,-1.389 2.327,0 0,0"/></g><g transform="translate(661.625,167.251)" id="g64"><path id="path66" style="fill:#fff;fill-opacity:1;fill-rule:nonzero;stroke:none" d="m 0,0 h -24.669 c -2.326,0 -3.716,-1.389 -3.716,-3.716 0,-2.326 1.39,-3.715 3.716,-3.715 h 8.619 V -48.12 c 0,-2.326 1.39,-3.716 3.716,-3.716 2.326,0 3.716,1.39 3.716,3.716 V -7.431 H 0 c 2.327,0 3.717,1.389 3.717,3.715 C 3.717,-1.389 2.327,0 0,0"/></g><g transform="translate(181.4912,162.3291)" id="g68"><path id="path70" style="fill:#0077bd;fill-opacity:1;fill-rule:nonzero;stroke:none" d="m 0,0 c -1.767,0 -3.199,0.813 -3.199,1.824 0,1.005 1.432,1.819 3.199,1.819 1.771,0 3.204,-0.814 3.204,-1.819 C 3.204,0.813 1.771,0 0,0 m 0,4.801 c -2.728,0 -4.943,-1.633 -4.943,-4.752 v -42.638 c 0,-3.125 2.215,-4.364 4.943,-4.364 2.733,0 4.946,1.239 4.946,4.364 V 0.049 C 4.946,3.168 2.733,4.801 0,4.801"/></g><g transform="translate(192.9609,173.9531)" id="g72"><path id="path74" style="fill:#953993;fill-opacity:1;fill-rule:nonzero;stroke:none" d="M 0,0 C -1.772,0 -3.205,0.82 -3.205,1.825 -3.205,2.83 -1.772,3.649 0,3.649 1.769,3.649 3.202,2.83 3.202,1.825 3.202,0.82 1.769,0 0,0 m 0,4.808 c -2.733,0 -4.939,-1.633 -4.939,-4.758 v -7.736 c 1.087,1.35 2.812,2.145 4.939,2.145 2.123,0 3.853,-0.795 4.94,-2.145 V 0.05 C 4.94,3.175 2.728,4.808 0,4.808"/></g><g transform="translate(192.9609,162.3291)" id="g76"><path id="path78" style="fill:#00b0f0;fill-opacity:1;fill-rule:nonzero;stroke:none" d="m 0,0 c -1.772,0 -3.205,0.813 -3.205,1.824 0,1.005 1.433,1.819 3.205,1.819 1.769,0 3.202,-0.814 3.202,-1.819 C 3.202,0.813 1.769,0 0,0 m 0,4.801 c -2.733,0 -4.939,-1.633 -4.939,-4.752 v -7.735 c 1.087,1.344 2.812,2.139 4.939,2.139 2.123,0 3.853,-0.795 4.94,-2.139 V 0.049 C 4.94,3.168 2.728,4.801 0,4.801"/></g><g transform="translate(192.9609,150.6992)" id="g80"><path id="path82" style="fill:#3a9890;fill-opacity:1;fill-rule:nonzero;stroke:none" d="m 0,0 c -1.772,0 -3.205,0.813 -3.205,1.824 0,1.005 1.433,1.818 3.205,1.818 1.769,0 3.202,-0.813 3.202,-1.818 C 3.202,0.813 1.769,0 0,0 m 0,4.807 c -2.733,0 -4.939,-1.633 -4.939,-4.758 v -42.645 c 0,-3.119 2.206,-4.357 4.939,-4.357 2.728,0 4.94,1.238 4.94,4.357 V 0.049 C 4.94,3.174 2.728,4.807 0,4.807"/></g><g transform="translate(227.5068,162.3291)" id="g84"><path id="path86" style="fill:#fcb231;fill-opacity:1;fill-rule:nonzero;stroke:none" d="m 0,0 c -1.769,0 -3.204,0.813 -3.204,1.824 0,1.005 1.435,1.819 3.204,1.819 1.772,0 3.202,-0.814 3.202,-1.819 C 3.202,0.813 1.772,0 0,0 m 0,4.801 c -2.733,0 -4.949,-1.633 -4.949,-4.752 v -42.638 c 0,-3.125 2.216,-4.364 4.949,-4.364 2.728,0 4.943,1.239 4.943,4.364 V 0.049 C 4.943,3.168 2.728,4.801 0,4.801"/></g><g transform="translate(204.6133,139.0811)" id="g88"><path id="path90" style="fill:#74c04f;fill-opacity:1;fill-rule:nonzero;stroke:none" d="m 0,0 c -1.769,0 -3.202,0.819 -3.202,1.83 0,1.011 1.433,1.837 3.202,1.837 1.772,0 3.199,-0.826 3.199,-1.837 C 3.199,0.819 1.772,0 0,0 m 0,4.813 c -2.73,0 -4.946,-1.626 -4.946,-4.751 v -42.646 c 0,-3.118 2.216,-4.357 4.946,-4.357 2.728,0 4.942,1.239 4.942,4.357 V 0.062 C 4.942,3.187 2.728,4.813 0,4.813"/></g><g transform="translate(216.0371,173.9531)" id="g92"><path id="path94" style="fill:#f16337;fill-opacity:1;fill-rule:nonzero;stroke:none" d="M 0,0 C -1.766,0 -3.198,0.82 -3.198,1.825 -3.198,2.83 -1.766,3.649 0,3.649 1.772,3.649 3.205,2.83 3.205,1.825 3.205,0.82 1.772,0 0,0 m 0,4.808 c -2.728,0 -4.943,-1.633 -4.943,-4.758 v -7.736 c 1.09,1.35 2.82,2.145 4.943,2.145 2.129,0 3.855,-0.795 4.949,-2.145 V 0.05 C 4.949,3.175 2.733,4.808 0,4.808"/></g><g transform="translate(216.0371,162.3291)" id="g96"><path id="path98" style="fill:#ffd029;fill-opacity:1;fill-rule:nonzero;stroke:none" d="m 0,0 c -1.766,0 -3.198,0.813 -3.198,1.824 0,1.005 1.432,1.819 3.198,1.819 1.772,0 3.205,-0.814 3.205,-1.819 C 3.205,0.813 1.772,0 0,0 m 0,4.801 c -2.728,0 -4.943,-1.633 -4.943,-4.752 v -7.765 c 1.09,1.362 2.807,2.169 4.943,2.169 2.139,0 3.858,-0.807 4.949,-2.169 V 0.049 C 4.949,3.168 2.733,4.801 0,4.801"/></g><g transform="translate(216.0371,150.6992)" id="g100"><path id="path102" style="fill:#e0e333;fill-opacity:1;fill-rule:nonzero;stroke:none" d="m 0,0 c -1.766,0 -3.198,0.813 -3.198,1.824 0,1.005 1.432,1.818 3.198,1.818 1.772,0 3.205,-0.813 3.205,-1.818 C 3.205,0.813 1.772,0 0,0 m 0,4.807 c -2.728,0 -4.943,-1.633 -4.943,-4.758 v -42.645 c 0,-3.119 2.215,-4.357 4.943,-4.357 2.733,0 4.949,1.238 4.949,4.357 V 0.049 C 4.949,3.174 2.733,4.807 0,4.807"/></g><g transform="translate(204.6133,185.5962)" id="g104"><path id="path106" style="fill:#ee3338;fill-opacity:1;fill-rule:nonzero;stroke:none" d="m 0,0 c -1.769,0 -3.202,0.82 -3.202,1.831 0,1.01 1.433,1.83 3.202,1.83 1.772,0 3.199,-0.82 3.199,-1.83 C 3.199,0.82 1.772,0 0,0 m 0,4.813 c -2.73,0 -4.946,-1.633 -4.946,-4.751 v -7.736 c 1.093,1.351 2.813,2.145 4.946,2.145 2.126,0 3.855,-0.794 4.942,-2.145 V 0.062 C 4.942,3.18 2.728,4.813 0,4.813"/></g><g transform="translate(204.6133,173.978)" id="g108"><path id="path110" style="fill:#f27168;fill-opacity:1;fill-rule:nonzero;stroke:none" d="m 0,0 c -1.769,0 -3.202,0.814 -3.202,1.818 0,1.005 1.433,1.825 3.202,1.825 1.772,0 3.199,-0.82 3.199,-1.825 C 3.199,0.814 1.772,0 0,0 m 0,4.808 c -2.73,0 -4.946,-1.634 -4.946,-4.758 v -7.742 c 1.093,1.356 2.813,2.151 4.946,2.151 2.126,0 3.855,-0.795 4.942,-2.151 V 0.05 C 4.942,3.174 2.728,4.808 0,4.808"/></g><g transform="translate(204.6133,162.3477)" id="g112"><path id="path114" style="fill:#c8a3b4;fill-opacity:1;fill-rule:nonzero;stroke:none" d="m 0,0 c -1.769,0 -3.202,0.813 -3.202,1.818 0,1.011 1.433,1.825 3.202,1.825 1.772,0 3.199,-0.814 3.199,-1.825 C 3.199,0.813 1.772,0 0,0 m 0,4.808 c -2.73,0 -4.946,-1.634 -4.946,-4.752 v -7.742 c 1.093,1.35 2.813,2.151 4.946,2.151 2.126,0 3.855,-0.801 4.942,-2.151 V 0.056 C 4.942,3.174 2.728,4.808 0,4.808"/></g><g transform="translate(204.6133,150.7173)" id="g116"><path id="path118" style="fill:#85ca99;fill-opacity:1;fill-rule:nonzero;stroke:none" d="m 0,0 c -1.769,0 -3.202,0.813 -3.202,1.818 0,1.011 1.433,1.825 3.202,1.825 1.772,0 3.199,-0.814 3.199,-1.825 C 3.199,0.813 1.772,0 0,0 m 0,4.807 c -2.73,0 -4.946,-1.633 -4.946,-4.758 v -7.735 c 1.093,1.356 2.813,2.145 4.946,2.145 2.126,0 3.855,-0.789 4.942,-2.145 V 0.049 C 4.942,3.174 2.728,4.807 0,4.807"/></g></g></g></g></svg>