<svg id="图层_1" data-name="图层 1" xmlns="http://www.w3.org/2000/svg" xmlns:xlink="http://www.w3.org/1999/xlink" viewBox="0 0 1982.84 455.58"><defs><style>.cls-1{fill:url(#未命名的渐变_14);}.cls-2{fill:url(#未命名的渐变_8);}.cls-3{fill:url(#未命名的渐变_8-2);}.cls-4{fill:#fff;}</style><linearGradient id="未命名的渐变_14" x1="256.81" y1="300.57" x2="256.81" y2="27.16" gradientUnits="userSpaceOnUse"><stop offset="0" stop-color="#015b31"/><stop offset="0.23" stop-color="#076333"/><stop offset="0.58" stop-color="#187838"/><stop offset="1" stop-color="#329a40"/></linearGradient><linearGradient id="未命名的渐变_8" x1="256.81" y1="3.27" x2="256.81" y2="447.58" gradientUnits="userSpaceOnUse"><stop offset="0" stop-color="#045730"/><stop offset="0.07" stop-color="#226b31"/><stop offset="0.16" stop-color="#428032"/><stop offset="0.26" stop-color="#5d9233"/><stop offset="0.38" stop-color="#719f33"/><stop offset="0.5" stop-color="#7fa934"/><stop offset="0.65" stop-color="#87ae34"/><stop offset="0.9" stop-color="#8ab034"/></linearGradient><linearGradient id="未命名的渐变_8-2" x1="256.81" y1="297.73" x2="256.81" y2="493.78" xlink:href="#未命名的渐变_8"/></defs><path class="cls-1" d="M365,303.94c-.39-1.12-.8-2.26-1.27-3.44l-94-257.75h0a13.78,13.78,0,0,0-12.9-9.43h0a13.78,13.78,0,0,0-12.9,9.43h0l-94,257.75c-.47,1.18-.88,2.32-1.27,3.44a14.89,14.89,0,0,0-.83,4.89,14.19,14.19,0,0,0,14,14.37,13.63,13.63,0,0,0,7.81-2.45L218.84,288c1.69-1.15,3.45-2.2,5.24-3.2v0L166.5,317.54a9.49,9.49,0,0,1-4.73,1.26,9.81,9.81,0,0,1-9.68-9.93,10.09,10.09,0,0,1,1-4.4l89.12-182.89a16.16,16.16,0,0,1,29.18,0l89.12,182.89a10.09,10.09,0,0,1,1,4.4,9.81,9.81,0,0,1-9.68,9.93,9.49,9.49,0,0,1-4.73-1.26l-57.57-32.77v0c1.79,1,3.55,2.05,5.24,3.2L344,320.75a13.63,13.63,0,0,0,7.81,2.45,14.19,14.19,0,0,0,14-14.37A14.89,14.89,0,0,0,365,303.94Z"/><path class="cls-2" d="M510.8,421.43,293.36,22h0A41.83,41.83,0,0,0,256.81,0h0A41.83,41.83,0,0,0,220.3,21.94h0L2.82,421.43a23.46,23.46,0,0,0,3.26,26.91,22.07,22.07,0,0,0,16.34,7.24A21.75,21.75,0,0,0,31,453.8l.17-.06,185-75.74a107,107,0,0,1,40.45-7.94h.24A107,107,0,0,1,297.38,378l185,75.74.16.06a21.84,21.84,0,0,0,8.63,1.78,22.07,22.07,0,0,0,16.34-7.24,23.46,23.46,0,0,0,3.26-26.91ZM148.64,303.94c.39-1.12.8-2.26,1.27-3.44l94-257.75h0a13.54,13.54,0,0,1,25.8,0h0l94,257.75c.47,1.18.88,2.32,1.27,3.44a14.89,14.89,0,0,1,.83,4.89,14.19,14.19,0,0,1-14,14.37,13.63,13.63,0,0,1-7.81-2.45L294.78,288c-1.69-1.15-3.45-2.2-5.24-3.2a66.78,66.78,0,0,0-32.64-8.52h-.18a66.78,66.78,0,0,0-32.64,8.52c-1.79,1-3.55,2.05-5.24,3.2l-49.22,32.75a13.63,13.63,0,0,1-7.81,2.45,14.19,14.19,0,0,1-14-14.37A14.89,14.89,0,0,1,148.64,303.94Z"/><path class="cls-3" d="M470.26,424.54,279.08,302.63H279a40.48,40.48,0,0,0-22.2-6.68h0a40.48,40.48,0,0,0-22.2,6.68h-.07L43.36,424.54,6.08,448.34a22.07,22.07,0,0,0,16.34,7.24A21.75,21.75,0,0,0,31,453.8l.17-.06,185-75.74a107,107,0,0,1,40.45-7.94h.24A107,107,0,0,1,297.38,378l185,75.74.16.06a21.84,21.84,0,0,0,8.63,1.78,22.07,22.07,0,0,0,16.34-7.24Z"/><path class="cls-4" d="M646.18,136.49c-46.56,1.57-85.28,40.8-86.68,88.75-1.5,51.6,39.36,93.85,89.53,93.85H750.17a1.19,1.19,0,0,0,1.17-1.21v-33a1.19,1.19,0,0,0-1.17-1.21H648.85c-29.72,0-54.53-24.28-55-54.85-.44-31.08,24-56.93,54.1-56.93H750.17a1.19,1.19,0,0,0,1.17-1.21v-33a1.2,1.2,0,0,0-1.18-1.21Z"/><path class="cls-4" d="M904.71,245.28c29.41,0,53.29-24.84,52.86-55.21-.42-29.87-24.67-53.59-53.7-53.59H774.58a1.2,1.2,0,0,0-1.18,1.21V317.88a1.2,1.2,0,0,0,1.18,1.21h32.06a1.2,1.2,0,0,0,1.18-1.21V173.11A1.2,1.2,0,0,1,809,171.9h95.22a19,19,0,0,1,18.93,18.29c.38,10.78-8,19.68-18.44,19.68l-91.05.08a1.22,1.22,0,0,0-.83,2.07l103.7,106.72a1.16,1.16,0,0,0,.84.35h45.34a1.22,1.22,0,0,0,.83-2.07l-69.66-71.67a.08.08,0,0,1,0-.07Z"/><path class="cls-4" d="M1436,136.54H1404a1.19,1.19,0,0,0-1.17,1.21V298.67c0,11.28,8.88,20.42,19.84,20.42h127.5a1.19,1.19,0,0,0,1.17-1.21v-33a1.19,1.19,0,0,0-1.17-1.21H1438.37a1.2,1.2,0,0,1-1.18-1.21V137.75A1.19,1.19,0,0,0,1436,136.54Z"/><path class="cls-4" d="M1285.62,137.69a2.32,2.32,0,0,0-4.08,0L1180.76,317.28a1.21,1.21,0,0,0,1,1.81h37a1.18,1.18,0,0,0,1-.6l62.76-111.82a1.16,1.16,0,0,1,2,0l42.16,75.21a1.22,1.22,0,0,1-1,1.82h-55a1.19,1.19,0,0,0-1,.6l-18.48,32.95a1.21,1.21,0,0,0,1,1.82l133,0a1.21,1.21,0,0,0,1-1.81C1375.43,297.89,1285.62,137.69,1285.62,137.69Z"/><path class="cls-4" d="M1981.66,136.54h-41.85a1.17,1.17,0,0,0-.91.43l-60.83,74.6a1.16,1.16,0,0,1-1.81,0L1815.41,137a1.13,1.13,0,0,0-.9-.43l-191.66,0a1.2,1.2,0,0,0-1.18,1.22v33a1.2,1.2,0,0,0,1.18,1.22h69.27a1.2,1.2,0,0,1,1.18,1.21V317.88a1.19,1.19,0,0,0,1.18,1.21h32.06a1.19,1.19,0,0,0,1.17-1.21V173.11a1.2,1.2,0,0,1,1.18-1.21h69.54a1.2,1.2,0,0,1,.91.43l60.34,74a1.2,1.2,0,0,1,.28.78v70.76a1.2,1.2,0,0,0,1.18,1.21h32.06a1.19,1.19,0,0,0,1.17-1.21V247.11a1.2,1.2,0,0,1,.28-.77l87.91-107.81A1.21,1.21,0,0,0,1981.66,136.54Z"/><path class="cls-4" d="M1572.45,319.09h32.06a1.2,1.2,0,0,0,1.18-1.21V137.75a1.2,1.2,0,0,0-1.18-1.21h-32.06a1.2,1.2,0,0,0-1.18,1.21V317.88A1.2,1.2,0,0,0,1572.45,319.09Z"/><path class="cls-4" d="M1164.39,170.69v-33a1.2,1.2,0,0,0-1.18-1.21h-99.63c-49,0-88.94,41-88.94,91.31s39.9,91.3,88.94,91.3h99.63a1.19,1.19,0,0,0,1.18-1.2v-33a1.2,1.2,0,0,0-1.18-1.21h-99.63c-24,0-44.4-16-51.63-38.18h151.26a1.2,1.2,0,0,0,1.18-1.21v-33a1.2,1.2,0,0,0-1.18-1.21H1012c7.23-22.16,27.64-38.18,51.63-38.18h99.63A1.2,1.2,0,0,0,1164.39,170.69Z"/></svg>