<?xml version="1.0" encoding="UTF-8" standalone="no"?>
<svg
   xmlns:dc="http://purl.org/dc/elements/1.1/"
   xmlns:cc="http://creativecommons.org/ns#"
   xmlns:rdf="http://www.w3.org/1999/02/22-rdf-syntax-ns#"
   xmlns:svg="http://www.w3.org/2000/svg"
   xmlns="http://www.w3.org/2000/svg"
   viewBox="0 0 665.33331 344"
   height="344"
   width="665.33331"
   xml:space="preserve"
   id="svg2"
   version="1.1"><metadata
     id="metadata8"><rdf:RDF><cc:Work
         rdf:about=""><dc:format>image/svg+xml</dc:format><dc:type
           rdf:resource="http://purl.org/dc/dcmitype/StillImage" /></cc:Work></rdf:RDF></metadata><defs
     id="defs6" /><g
     transform="matrix(1.3333333,0,0,-1.3333333,0,344)"
     id="g10"><g
       transform="scale(0.1)"
       id="g12"><path
         id="path14"
         style="fill:#f08b21;fill-opacity:1;fill-rule:nonzero;stroke:none"
         d="m 0.417969,2578.25 c 326.695031,0.07 653.395031,-0.07 980.090031,0.07 134.062,-0.28 267.762,-44.76 374.302,-126.32 111.94,-84.34 193.95,-207.67 227.68,-343.79 30.96,-122.96 23.81,-255.42 -21.47,-374.01 -45.93,-122.52 -132.24,-229.14 -241.77,-300.63 -102.01,-66.73 -224.17,-103.25 -346.191,-100.4 -324.211,0.15 -648.426,0 -972.641031,0.08 0,414.97 0,829.95 0,1245 z M 310.758,2266.09 c 0,-207.53 -0.074,-415.05 0.074,-622.58 220.961,0.08 441.922,0.15 662.887,0 44.251,-0.07 88.641,8.54 129.171,26.51 108.15,46.52 185.47,158.38 186.57,276.67 4.24,99.31 -44.62,198.26 -124.14,257.33 -50.75,38.48 -113.62,61.56 -177.437,62.14 -225.707,-0.14 -451.414,0 -677.125,-0.07 z m 1464.362,302.38 c 57.61,21.47 123.84,3.28 167.08,-39.14 339.84,-246.74 680.62,-492.24 1020.97,-738.39 0.15,262.44 0,524.88 0.08,787.31 103.46,0 206.86,0 310.34,0 0.07,-356.56 -0.15,-713.05 0.14,-1069.61 0.59,-36.66 -4.74,-75.21 -26.14,-106.02 -34.61,-54.33 -105.37,-81.35 -167.51,-64.92 -34.54,6.71 -60.9,30.74 -87.48,51.84 -336.55,243.38 -673.33,486.47 -1009.74,730 0.15,-262.08 0,-524.15 0.08,-786.29 -103.47,0 -206.87,0 -310.34,0 0,362.77 0,725.54 0,1088.38 -1.39,64.25 41.84,125.88 102.52,146.84 z m 1882.56,0.95 c 48.77,9.85 98.87,8.9 148.45,8.83 299.46,-0.07 598.84,0.15 898.3,-0.14 41.7,0.43 84.05,-12.86 114.5,-42.14 39.07,-36.14 56.45,-93.1 45.71,-145.09 -12.78,-67.4 -75.65,-122.09 -144.66,-122.9 -321.58,-0.07 -643.16,-0.21 -964.82,0.08 -32.42,2.48 -68.86,-9.13 -85.14,-39.21 -18.77,-29.14 -13.59,-69.59 10.66,-94.05 18.18,-21.25 47.53,-26.51 74.19,-25.85 277.33,0.58 554.74,-0.51 832,0.65 115.59,-6.86 225.49,-69.51 291.65,-164.29 56.15,-79.31 80.46,-180.44 66.74,-276.53 -13.73,-106.47 -74.56,-205.92 -163.28,-266.31 -62.8,-44.11 -139.1,-68.42 -215.78,-69.22 -355.61,0.07 -711.15,-0.15 -1066.68,0.07 -57.7,0.51 -113.56,36.8 -136.77,89.74 -24.25,51.4 -16.87,115.67 18.18,160.35 29.35,38.85 77.69,60.83 126.1,60.18 350.65,-0.08 701.22,0.07 1051.87,-0.08 47.46,-2.92 89.01,46.01 78.79,92.37 -6.65,36.51 -41.11,65.5 -78.35,64.62 -277.63,0.15 -555.32,0.08 -832.95,0 -100.7,1.18 -199.5,45.71 -269.09,118.3 -86.96,88.58 -125.74,220.67 -102,342.4 26.58,151.22 151.59,278.79 302.38,308.22 z M 756.77,916.879 c 0.074,39.797 53.453,56.152 80.835,31.766 13.145,-11.247 15.918,-29.286 15.407,-45.711 -0.145,-82.371 -0.074,-164.664 -0.074,-247.032 48.121,0.149 96.171,0 144.292,0.149 0.438,89.301 -1.097,178.679 0.657,267.914 5.403,41.91 71.853,48.558 89.373,12.34 5.7,-10.301 4.6,-22.422 4.97,-33.809 -0.44,-81.715 0.07,-163.426 -0.29,-245.133 24.1,0.727 49.8,-13.656 51.77,-39.871 2.11,-31.398 2.92,-63.238 -0.58,-94.488 -4.46,-40.09 -63.9,-49.652 -85.95,-19.059 -13.14,19.496 -7.82,44.25 -9.05,66.231 -83.396,0.363 -166.786,-0.66 -250.103,0.437 -27.527,0.145 -44.031,28.914 -41.91,53.965 0.578,97.406 -0.808,194.965 0.653,292.301 z m 418.27,7.738 c 6.78,46.883 87.18,46.664 93.39,-0.433 1.75,-61.121 0.44,-122.383 0.44,-183.579 51.99,66.672 102.52,134.508 154.66,201.102 18.18,24.168 60.68,24.606 77.98,-0.879 10.37,-15.476 8.25,-35.191 8.77,-53.012 -0.81,-92.441 0.8,-184.961 -0.74,-277.406 0.3,-39.285 -52.06,-56.957 -79.95,-33.371 -14.54,11.027 -16.43,30.305 -16.29,47.098 0,53.015 0.15,106.027 0.08,159.043 -52.07,-67.18 -103.33,-135.094 -156.63,-201.246 -24.83,-30.524 -84.42,-12.852 -82.37,28.621 0.14,104.64 -1.09,209.425 0.66,314.062 z m 537.58,-7.883 c 4.23,24.024 23.22,45.489 49.43,42.645 26,2.773 45.57,-18.477 49.43,-42.645 40.53,4.891 84.79,-2.336 115.74,-30.886 72,-60.903 69.67,-187.739 -5.4,-245.356 -30.45,-25.191 -72.07,-32.054 -110.41,-26.285 -0.8,-31.473 -32.42,-55.719 -62.87,-45.93 -22.05,3.946 -33.08,25.703 -35.85,45.93 -43.52,-7.23 -90.76,4.379 -121.87,36.731 -66.67,63.527 -60.54,186.128 13.87,241.261 30.52,23.586 70.47,28.77 107.93,24.535 z m -44.76,-102.379 c -32.28,-23.433 -31.33,-78.128 1.67,-100.472 13.07,-10.59 30.38,-11.102 46.44,-12.051 0.81,42.281 0.44,84.484 0.3,126.691 -16.94,-1.023 -35.56,-1.386 -48.41,-14.168 z m 140.12,13.875 c -0.36,-42.132 -0.73,-84.261 0.22,-126.398 30.45,-2.336 63.09,15.113 69.81,46.59 13.22,42.203 -26.8,86.453 -70.03,79.808 z m 656.31,130.711 c 54.55,11.024 115.16,1.02 158.09,-36.148 89.89,-72.656 95.52,-222.566 16.73,-305.375 -66.38,-70.535 -191.68,-72.07 -260.32,-4.016 -80.91,78.938 -80.18,226.512 3.5,303.114 22.78,21.316 51.48,36.074 82,42.425 z m 16.14,-89.82 c -66.01,-24.68 -74.92,-114.859 -47.25,-171.23 23.59,-52.43 104.86,-59.735 138.16,-13.586 30.09,42.937 31.18,104.277 5.04,149.332 -18.11,33.004 -60.75,47.898 -95.95,35.484 z m 680.05,74.117 c 26.14,29.719 80.83,25.996 101.72,-8.175 10.66,-18.258 16.21,-38.922 23.58,-58.711 28.92,-79.739 57.4,-159.622 86.38,-239.364 5.12,-14.82 8.91,-31.906 1.54,-46.734 -15.04,-31.688 -68.5,-31.617 -83.32,0.148 -7.59,17.016 -12.27,35.121 -17.74,52.868 -43.23,-0.071 -86.39,-0.071 -129.54,0 -6.35,-19.352 -10.66,-39.723 -20.45,-57.758 -17.45,-25.707 -60.31,-24.977 -78.35,-0.223 -12.56,14.824 -9.2,36.293 -2.63,52.867 32.86,88.942 65.87,177.809 98.51,266.817 5.11,13.511 10.66,27.238 20.3,38.265 z m 46.51,-103.98 c -12.56,-35.27 -24.39,-70.903 -35.2,-106.758 23.81,0.148 47.69,0.148 71.56,0.219 -12.48,35.418 -20.44,72.441 -36.36,106.539 z m 697.64,80.617 c 1.9,38.695 53.6,51.551 80.4,29.133 10.51,-10.004 15.55,-24.754 15.11,-39.211 0.22,-56.156 -0.14,-112.379 -0.07,-168.609 51.41,67.035 102.3,134.359 154.15,200.882 23.15,32.422 86.46,18.258 84.85,-24.898 0.37,-102.231 0.37,-204.531 0,-306.762 2.11,-30.16 -32.13,-50.019 -58.93,-42.57 -20.16,3.504 -35.85,22.269 -35.56,42.644 -0.73,57.61 0.15,115.227 -0.29,172.766 -51.48,-65.426 -101.72,-131.875 -153.35,-197.156 -17.89,-25.047 -59.36,-26.141 -77.98,-1.535 -12.42,18.332 -9.2,41.48 -9.71,62.359 1.23,90.984 -1.68,182.117 1.38,272.957 z M 2015.72,909.648 c -2.7,23.368 15.19,46.004 39.14,46.735 36.44,1.828 73.03,0.875 109.46,0.441 43.6,-1.172 87.85,-21.617 112.38,-58.492 22.05,-31.98 25.63,-73.824 16.94,-110.992 -12.19,-49.215 -57.53,-86.75 -107.34,-93.32 -25.12,-2.848 -50.46,-1.168 -75.57,-1.461 -1.98,-32.567 4.3,-66.235 -3.44,-98.141 -14.38,-41.184 -85.58,-35.051 -90.76,9.055 -1.83,102.011 -0.15,204.093 -0.81,306.175 z m 95.01,-40.085 c -0.08,-30.45 -0.08,-60.903 0,-91.352 23.58,1.605 50.89,-5.328 71.27,10.004 26.57,19.715 20.59,68.933 -11.54,79.301 -19.72,3.797 -39.87,1.754 -59.73,2.047 z m 637.76,75.867 c 20.37,16.211 48.19,10.879 72.37,11.828 43.23,-1.531 92.07,7.453 129.31,-20.445 50.1,-33.661 53.82,-114.497 7.96,-153.415 26.95,-12.925 50.75,-35.343 58.93,-64.918 10.23,-44.617 -2.19,-97.191 -41.18,-124.5 -42.35,-31.839 -98.07,-22.417 -147.5,-23.804 -23.67,1.387 -49.22,-4.453 -71.27,6.281 -17.53,8.981 -24.39,29.352 -23.73,47.973 -0.52,90.179 0.14,180.437 -0.3,270.617 -0.07,17.598 1.24,37.898 15.41,50.383 z m 81.49,-75.723 c -0.07,-19.57 -0.07,-39.141 0,-58.781 19.14,1.461 42.65,-4.746 57.62,10.879 10.44,13.07 8.54,37.461 -8.55,44.179 -15.48,6.426 -32.85,2.848 -49.07,3.723 z m 0,-146.187 c 0,-22.489 -0.07,-45.055 0,-67.547 23.3,0.586 47.4,-2.336 70.18,4.164 23.58,8.035 30.45,46.808 6.42,58.273 -24.17,9.856 -51.26,3.504 -76.6,5.11 z m 622,211.613 c 44.68,28.406 99.96,20.887 150.27,22.199 21.98,-0.949 47.03,3.871 65.94,-10.441 12.93,-10.442 14.83,-28.184 14.46,-43.739 -0.44,-97.777 0.22,-195.625 -0.36,-293.472 0.58,-29.575 -32.06,-49.727 -59.15,-41.766 -19.57,3.211 -35.71,21.316 -35.34,41.328 -0.95,31.692 0.22,63.383 -0.37,95 -33.15,-39.652 -65.5,-80.035 -98.72,-119.609 -16.73,-20.883 -51.55,-24.828 -70.62,-5.113 -17.16,14.679 -22.05,43.668 -6.64,61.191 25.04,29.797 53.23,56.738 79.08,85.875 -36.65,10.223 -71.85,35.051 -81.93,73.531 -10.88,47.613 -0.44,106.903 43.38,135.016 z m 71.92,-72.07 c -27.89,-10.59 -26.07,-56.227 1.83,-65.938 20,-5.184 41.25,-1.535 61.84,-2.41 0,24.39 0,48.777 0,73.164 -21.24,-0.582 -43.22,2.047 -63.67,-4.816 z M 362.457,381.852 c 23.805,27.168 77.988,17.382 84.047,-20.661 2.848,-36.074 0.367,-72.441 1.168,-108.73 44.543,0 93.32,5.184 132.461,-20.957 54.18,-32.93 62.508,-109.75 36.582,-163.2774 C 596.711,27.8516 550.047,6.37891 506.305,7.76563 467.316,8.57031 428.324,6.67188 389.402,8.64453 363.406,11.3477 349.461,38.2891 351.066,62.2422 c -0.511,87.9178 0.219,175.9058 -0.293,263.8238 0.293,18.914 -0.804,40.161 11.684,55.786 z m 85.215,-214.969 c 0,-24.391 0,-48.781 0.074,-73.2424 18.328,0.4375 36.949,-1.5351 55.203,1.8242 24.242,4.3829 38.555,39.0662 20.301,57.2502 -19.57,20.152 -50.531,12.558 -75.578,14.168 z m 237.176,227.605 c 18.179,5.403 40.597,3.211 53.742,-11.976 12.851,-12.996 12.121,-32.496 12.265,-49.508 -0.73,-94.637 0.735,-189.344 -0.656,-283.9806 1.168,-28.4765 -27.605,-49.800744 -54.695,-44.69137 -25.699,1.02344 -43.371,26.07027 -41.399,50.53517 -0.222,97.7028 -0.292,195.4768 0,293.1798 -0.804,20.008 10.512,40.961 30.743,46.441 z m 503.922,-1.316 c 60.67,16.793 131.58,5.183 177.73,-39.723 80.68,-72.07 85.43,-209.496 16.35,-290.7693 -61.92,-75.5039 -187,-82.8789 -259.59,-18.9883 -90.18,77.7696 -90.47,236.8126 0.44,314.1406 18.76,16.356 41.11,28.625 65.07,35.34 z m 28.84,-86.895 c -66.16,-24.097 -75.58,-114.789 -47.69,-170.941 23.66,-53.0157 105.45,-60.0977 138.67,-13.145 29.57,42.571 30.67,103.618 4.89,148.161 -18.25,33.226 -60.53,47.902 -95.87,35.925 z m 663.46,46.368 c 9.28,26.578 33.74,49.507 63.39,47.906 29.57,1.312 55.71,-19.863 63.89,-47.758 34.69,-96.754 70.32,-193.215 104.13,-290.336 12.93,-31.7617 -18.55,-65.6445 -51.12,-57.90231 -37.82,2.84765 -41.47,46.73051 -51.91,74.69921 -43.23,-0.1445 -86.46,-0.1445 -129.69,0 -6.5,-18.6914 -11.1,-38.1875 -20.08,-55.9297 -19.79,-30.59764 -72.73,-23.660138 -84.92,10.4375 -6.57,20.1563 2.99,39.8711 9.78,58.418 32.57,86.6753 63.96,173.7933 96.53,260.4653 z m 62.8,-75.649 c -13.21,-35.051 -23.29,-71.269 -35.34,-106.758 23.81,0.145 47.68,0.145 71.56,0.219 -12.49,35.418 -21.03,72.219 -36.22,106.539 z m 1250.42,98.652 c 15.55,25.704 57.83,29.575 76.96,5.989 23.07,-27.461 41.4,-58.637 62.94,-87.262 20.6,28.188 39.44,57.684 60.76,85.438 17.3,22.484 54.91,23.363 73.75,2.335 16.35,-16.574 14.75,-44.984 0.58,-62.507 -25.77,-35.782 -52.57,-70.832 -78.35,-106.684 33.44,-43.594 66.09,-87.769 98.65,-132.0234 12.49,-16.8633 14.6,-42.3516 1.31,-59.4375 -18.25,-22.85548 -58.19,-24.16798 -76.23,-0.4375 -28.18,35.9258 -53.3,74.043 -80.54,110.6994 -26.58,-36.1447 -51.77,-73.3127 -78.86,-109.0939 -19.13,-27.38285 -67.25,-24.53519 -82.3,5.5507 -8.39,19.7149 -3.28,43.1524 10.3,59.2188 31.18,42.2074 62.94,83.9024 93.76,126.3284 -26.44,36.218 -53.6,71.926 -79.67,108.363 -11.68,15.188 -13.51,37.238 -3.06,53.523 z m 337.13,-20.664 c 0.37,34.754 43.01,52.356 71.49,37.02 17.02,-7.664 23.88,-27.09 24.39,-44.617 1.24,-33.371 0,-66.883 0.44,-100.328 47.39,0 94.85,0.07 142.31,0 1.32,38.043 -2.69,76.453 2.19,114.203 5.55,38.047 60.47,47.976 83.62,20.226 12.34,-13.07 11.02,-32.125 11.17,-48.777 -0.58,-95.074 0.36,-190.219 -0.44,-285.293 0.44,-35.0508 -42.43,-53.67191 -71.12,-38.62894 -17.75,7.81254 -24.97,27.82034 -25.05,45.85934 -1.02,34.3164 0.08,68.6406 -0.29,102.9566 -47.47,0 -95,0.075 -142.39,-0.074 -1.24,-38.843 2.7,-77.9841 -2.12,-116.6833 -4.24,-40.164106 -63.39,-49.51176 -85.51,-19.1329 -10.73,13.7305 -9.2,31.836 -9.27,48.0469 0.73,95.0743 -0.59,190.1483 0.58,285.2223 z m 414.11,35.563 c 28.47,17.594 74.48,0.07 73.97,-36.516 1.82,-58.265 0.14,-116.683 0.73,-175.031 50.67,66.012 100.91,132.461 151.95,198.18 17.09,25.117 57.69,26.945 77.26,3.945 11.68,-13.07 9.71,-31.836 10.08,-48.121 -0.59,-95.219 0.28,-190.512 -0.37,-285.8048 0.8,-26.4336 -25.77,-46.660137 -51.11,-43.15623 -23.08,-0.14453 -44.99,19.57423 -43.45,43.37503 -0.59,57.906 0.07,115.812 -0.15,173.645 -52.28,-66.301 -102.81,-133.9927 -155.68,-199.7857 -23.73,-32.4218 -85.14,-16.86714 -84.71,25.4102 -1.45,97.9215 -0.07,195.9885 -0.65,293.9845 -0.8,18.621 3.87,40.672 22.13,49.875 z m 370.65,-42.793 c -1.39,24.68 19.21,49.437 44.69,49.144 24.61,3.504 51.18,-15.773 51.41,-41.55 1.38,-30.961 -0.15,-61.922 0.58,-92.883 39.36,40.09 76.38,82.515 116.03,122.383 23.22,22.781 66.96,12.488 76.97,-18.696 8.76,-22.121 -6.14,-43.812 -20.96,-59.074 -31.04,-32.125 -63.31,-63.015 -95.74,-93.683 39.8,-43.45 82.3,-84.485 121.66,-128.3716 15.99,-16.8671 22.56,-46.1484 5.55,-64.625 -19.42,-23.07028 -57.18,-20.519494 -76.45,1.461 -43.53,44.6172 -85.51,90.9846 -127.35,137.2066 -0.52,-39.355 1.53,-78.7887 -0.81,-118.0738 -4.96,-37.09376 -56.73,-48.85158 -81.78,-24.3906 -13.51,11.3203 -14.17,30.2304 -14.17,46.3711 0.44,94.9293 -0.29,189.8553 0.37,284.7813 z m 453.02,30.156 c 19.86,25.852 60.02,29.211 86.53,11.977 15.48,-10.297 23.22,-27.969 29.58,-44.836 32.64,-90.91 65.28,-181.75 98.21,-272.5862 6.2,-16.2812 9.13,-36.582 -3.14,-50.9687 -17.16,-24.31641 -59.29,-23.44141 -76.16,0.5117 -9.42,18.1094 -14.24,38.043 -20.96,57.1758 -43.23,-0.1445 -86.46,0 -129.61,-0.0742 -7.81,-20.8867 -11.03,-44.3946 -24.97,-62.4336 -22.86,-22.70705 -69.3,-14.53127 -79.6,17.2344 -6.28,14.0898 -1.17,29.3515 3.8,42.9336 30.38,81.4922 60.39,163.0582 90.48,244.6952 7.29,19.277 13.21,39.723 25.84,56.371 z m 49.37,-97.117 c -12.57,-36.582 -23.66,-73.676 -36.15,-110.336 23.88,-0.074 47.68,-0.074 71.63,-0.144 -11.76,36.875 -23.44,73.75 -35.48,110.48 z M 46.5703,383.461 c 13.5781,12.559 33.293,9.125 50.1641,9.785 51.0426,-1.242 102.3006,1.828 153.2696,-1.461 40.746,-8.398 39.723,-76.746 -0.438,-85.726 -40.671,-5.625 -82.222,-0.875 -123.187,-2.411 0,-18.253 0,-36.511 0.074,-54.765 52.211,-0.145 111.578,4.238 154.293,-31.762 41.258,-36 45.125,-101.793 22.785,-149.1874 C 283.156,27.3359 236.059,6.01563 191.953,7.76563 150.77,8.57031 109.438,6.67188 68.2539,8.64453 42.0391,10.6172 27.8008,38.1445 29.625,62.0234 c 0,92.8826 0,185.7656 0,278.6486 -0.4375,15.844 3.4336,33.078 16.9453,42.789 z M 126.379,161.184 c 0,-22.418 0,-44.907 0,-67.4692 23.078,0.9493 46.957,-3.1406 69.371,3.504 23.367,7.5192 31.035,44.9062 8.18,57.3202 -24.242,11.172 -51.774,5.551 -77.551,6.645 z m 670.918,149.183 c -31.617,19.207 -23,77.914 15.48,82.074 68.059,1.461 136.332,0.516 204.463,0.516 39.28,1.164 53.96,-55.355 26.06,-79.012 -22.05,-16.867 -51.62,-8.398 -77.179,-10.297 C 965.684,218.066 967,132.34 965.535,46.7617 965.758,17.332 933.992,-1.94531 906.977,4.92188 882.879,7.76563 867.547,32.2305 869.516,55.3047 c -0.368,82.8043 0,165.6093 -0.145,248.3433 -23.879,1.536 -50.023,-4.964 -72.074,6.719 z m 688.663,72.289 c 20.15,16.653 47.97,8.836 71.85,10.516 42.79,-2.555 91.49,9.418 128.37,-18.692 50.68,-33.152 54.91,-115.082 8.77,-154 28.55,-13.292 53.74,-37.976 60.02,-69.812 4.74,-31.543 1.6,-66.1563 -16.72,-93.1719 -21.54,-32.6406 -61.56,-49.51172 -99.82,-49.58204 -36.73,-0.22265 -73.46,0.21875 -110.19,-0.14843 -15.19,-0.36329 -32.06,0.80468 -43.38,12.19527 -13.8,12.4141 -14.75,32.3477 -14.97,49.5118 0.08,87.8403 0.08,175.6833 0,263.4573 0.29,17.453 0.74,38.191 16.07,49.726 z m 80.76,-75.062 c -0.08,-19.571 0,-39.211 0,-58.856 13.73,0.145 27.53,-0.441 41.33,0.875 20.37,3.067 30.81,32.422 15.92,47.024 -14.61,15.629 -38.26,9.273 -57.25,10.957 z m 0,-146.336 c 0,-22.492 0,-44.981 0,-67.4728 23.58,1.0976 48.49,-3.7227 71.27,4.0898 23.44,8.91 28.04,46.223 4.96,58.344 -24.31,8.836 -50.97,3.945 -76.23,5.039 z m 593.44,182.187 c 21.91,35.707 66.38,49.657 106.25,49.727 38.7,-0.363 77.47,0.656 116.25,-0.438 22.34,-0.73 38.26,-22.925 36.5,-44.324 -0.28,-102.449 1.1,-205.043 -0.72,-307.492 -4.9,-45.70706 -79.45,-50.08988 -91.94,-7.1563 -5.11,35.5625 -0.73,71.8553 -2.41,107.6363 -33.95,-40.894 -67.1,-82.5152 -101.79,-122.8238 -20.81,-23.0742 -63.89,-18.328106 -77.47,10.2969 -9.06,16.8672 -7.45,39.6523 6.64,53.2305 24.76,27.6014 50.68,54.0394 75.73,81.3474 -35.27,10.438 -69.59,33.883 -80.77,70.535 -9.78,36.223 -5.4,77.039 13.73,109.461 z m 101.28,-42.718 c -27.6,-10.735 -27.38,-54.329 -0.58,-65.938 20.3,-7.082 42.35,-3.355 63.45,-4.164 0,24.32 0,48.707 0,73.023 -20.88,-0.804 -42.57,2.848 -62.87,-2.921 z m 372.48,7.593 c -35.19,16.36 -28.77,79.668 11.47,84.121 70.9,1.094 142.02,1.243 212.92,-0.074 38.78,-7.594 43.96,-69.222 8.19,-84.703 -21.7,-7.301 -45.21,-3.066 -67.55,-4.016 -0.29,-85.875 0.58,-171.742 -0.37,-257.6167 -0.58,-37.60552 -50.24,-54.25396 -77.91,-33.0782 -15.92,10.9532 -18.4,32.0547 -18.54,49.8008 0.07,80.3201 0.07,160.6441 0.07,240.8941 -22.72,1.168 -46.66,-3.796 -68.28,4.672 z m 283.62,32.352 c -1.25,22.344 10.58,48.851 35.26,51.695 41.26,2.121 82.66,-0.07 123.99,0.879 17.02,-0.805 37.17,3.574 50.53,-9.93 25.93,-22.418 14.83,-73.605 -20.81,-78.355 -30.74,-2.992 -61.55,-0.438 -92.3,-1.531 0.08,-18.766 0.15,-37.535 0.15,-56.371 32.28,-1.68 65.65,4.234 97.27,-4.02 33.14,-15.184 32.42,-67.613 -0.95,-82.219 -31.55,-6.793 -64.34,-1.679 -96.32,-3.215 -0.07,-20.007 -0.07,-40.16 0,-60.2417 33.81,-1.168 68.05,2.7777 101.72,-2.1914 41.69,-9.7813 38.7,-80.1758 -3.51,-86.52737 -48.63,-1.82422 -97.33,-0.21875 -145.96,-0.80469 -26.15,-2.55468 -51.27,20.30076 -48.93,46.80856 -0.14,95.3676 0,190.7306 -0.14,286.0236" /></g></g></svg>