<?xml version="1.0" encoding="UTF-8"?>
<svg xmlns:inkscape="http://www.inkscape.org/namespaces/inkscape" xmlns="http://www.w3.org/2000/svg" xmlns:xlink="http://www.w3.org/1999/xlink" height="262pt" version="1.1" width="1002pt" viewBox="0 0 1002 262">
 <title>logo poziom</title>
 <defs>
  <clipPath id="Clip0">
   <path d="M0 0 L999.999 0 L999.999 260 L0 260 L0 0 Z"/>
  </clipPath>
 </defs>
 <g inkscape:label="Tło" id="Tło" inkscape:groupmode="layer">
  <g style="fill:none; stroke:none" clip-path="url(#Clip0)" transform="translate(1.0001, 0.9999) scale(1, 1)" clip-rule="evenodd" id="Grupa1">
   <path style="fill:#0202CC; fill-rule:nonzero;stroke:none;" d="M0 187.778 L0 43.334 C0 39.289 1.394 35.872 4.185 33.078 C6.971 30.288 10.389 28.889 14.43 28.889 L18.181 28.889 C20.873 28.889 23.327 27.928 25.54 26 C27.75 24.077 28.859 21.188 28.859 17.334 L28.859 14.445 C28.859 10.4 30.253 6.983 33.044 4.189 C35.83 1.4 39.249 0 43.289 0 L72.148 0 C75.995 0 79.363 1.4 82.249 4.189 C85.135 6.983 86.578 10.4 86.578 14.445 C86.578 18.489 85.18 21.911 82.393 24.701 C79.602 27.494 76.189 28.889 72.148 28.889 L39.826 28.889 C32.512 28.889 28.859 32.55 28.859 39.867 L28.859 75.111 C28.859 79.156 29.82 82.095 31.745 83.922 C33.666 85.755 36.552 86.667 40.403 86.667 L43.289 86.667 C47.135 86.667 50.504 88.066 53.39 90.856 C56.276 93.65 57.719 97.067 57.719 101.112 C57.719 105.156 56.321 108.577 53.534 111.367 C50.743 114.161 47.329 115.556 43.289 115.556 L40.403 115.556 C36.363 115.556 33.427 116.522 31.601 118.445 C29.77 120.372 28.859 123.261 28.859 127.111 L28.859 187.778 C28.859 191.633 27.461 195 24.675 197.889 C21.884 200.778 18.47 202.222 14.43 202.222 C10.389 202.222 6.971 200.828 4.185 198.033 C1.394 195.244 0 191.822 0 187.778 " transform="translate(0, 0)"/>
   <path style="fill:#0202CC; fill-rule:nonzero;stroke:none;" d="M14.43 57.778 C18.47 57.778 21.884 59.177 24.675 61.967 C27.462 64.761 28.86 68.178 28.86 72.222 L28.86 187.778 C28.86 191.633 27.462 194.999 24.675 197.889 C21.884 200.778 18.47 202.222 14.43 202.222 C10.39 202.222 6.971 200.828 4.185 198.033 C1.394 195.244 0 191.822 0 187.778 L0 72.222 C0 68.372 1.394 65 4.185 62.111 C6.971 59.222 10.39 57.778 14.43 57.778 M14.43 28.889 C10.39 28.889 6.971 27.494 4.185 24.7 C1.394 21.91 0 18.489 0 14.445 C0 10.4 1.394 6.983 4.185 4.189 C6.971 1.399 10.39 0 14.43 0 C18.47 0 21.884 1.444 24.675 4.333 C27.462 7.222 28.86 10.594 28.86 14.445 C28.86 18.3 27.462 21.667 24.675 24.556 C21.884 27.445 18.47 28.889 14.43 28.889 " transform="translate(109.865, 0.0003)"/>
   <path style="fill:#0202CC; fill-rule:nonzero;stroke:none;" d="M28.859 98.222 L28.859 161.778 C28.859 169.482 32.705 173.333 40.403 173.333 L75.611 173.333 C82.921 173.333 86.578 169.677 86.578 162.356 L86.578 97.644 C86.578 90.327 82.921 86.667 75.611 86.667 L40.403 86.667 C32.705 86.667 28.859 90.521 28.859 98.222 M14.429 0 C18.47 0 21.883 1.399 24.674 4.189 C27.461 6.983 28.859 10.4 28.859 14.445 L28.859 46.222 C28.859 53.927 32.705 57.778 40.403 57.778 L72.148 57.778 C76.188 57.778 79.602 59.177 82.393 61.967 C85.18 64.761 86.578 68.178 86.578 72.222 L86.578 75.978 C86.578 78.677 87.538 81.132 89.464 83.344 C91.385 85.561 94.271 86.667 98.122 86.667 L101.007 86.667 C105.048 86.667 108.461 88.066 111.252 90.856 C114.039 93.649 115.437 97.066 115.437 101.111 L115.437 158.889 C115.437 162.933 114.039 166.355 111.252 169.144 C108.461 171.939 105.048 173.333 101.007 173.333 L97.256 173.333 C94.559 173.333 92.106 174.299 89.897 176.222 C87.682 178.15 86.578 181.039 86.578 184.888 L86.578 187.778 C86.578 191.822 85.18 195.244 82.393 198.033 C79.602 200.828 76.188 202.222 72.148 202.222 L14.429 202.222 C10.389 202.222 6.971 200.828 4.184 198.033 C1.393 195.244 0 191.822 0 187.778 L0 14.445 C0 10.594 1.393 7.222 4.184 4.333 C6.971 1.444 10.389 0 14.429 0 " transform="translate(165.189, 0.0004)"/>
   <path style="fill:#0202CC; fill-rule:nonzero;stroke:none;" d="M28.859 39.867 L28.859 46.222 C28.859 53.928 32.705 57.778 40.403 57.778 L75.034 57.778 C82.727 57.778 86.578 53.928 86.578 46.222 L86.578 39.867 C86.578 32.55 82.921 28.889 75.611 28.889 L39.826 28.889 C32.512 28.889 28.859 32.55 28.859 39.867 M101.007 144.445 L43.289 144.445 C39.249 144.445 35.83 143.05 33.044 140.255 C30.253 137.466 28.859 134.044 28.859 130 L28.859 126.244 C28.859 123.55 27.894 121.094 25.973 118.878 C24.047 116.666 21.162 115.556 17.315 115.556 L14.429 115.556 C10.389 115.556 6.971 114.161 4.184 111.366 C1.393 108.577 0 105.155 0 101.111 L0 43.334 C0 39.289 1.393 35.872 4.184 33.078 C6.971 30.288 10.389 28.889 14.429 28.889 L18.181 28.889 C20.873 28.889 23.326 27.927 25.54 26 C27.75 24.077 28.859 21.188 28.859 17.333 L28.859 14.445 C28.859 10.4 30.253 6.983 33.044 4.189 C35.83 1.399 39.249 0 43.289 0 L72.148 0 C76.188 0 79.602 1.399 82.393 4.189 C85.18 6.983 86.578 10.4 86.578 14.445 L86.578 18.2 C86.578 20.9 87.538 23.355 89.464 25.567 C91.385 27.783 94.271 28.889 98.122 28.889 L101.007 28.889 C105.048 28.889 108.461 30.288 111.252 33.078 C114.039 35.872 115.437 39.289 115.437 43.334 L115.437 72.222 C115.437 76.267 114.039 79.688 111.252 82.477 C108.461 85.272 105.048 86.667 101.007 86.667 L40.403 86.667 C32.705 86.667 28.859 90.522 28.859 98.222 L28.859 104.578 C28.859 111.899 32.512 115.556 39.826 115.556 L101.007 115.556 C104.854 115.556 108.222 116.955 111.108 119.744 C113.994 122.539 115.437 125.956 115.437 130 C115.437 134.044 114.039 137.466 111.252 140.255 C108.461 143.05 105.048 144.445 101.007 144.445 " transform="translate(303.887, 57.7779)"/>
   <path style="fill:#0202CC; fill-rule:nonzero;stroke:none;" d="M28.859 69.333 L28.859 130 C28.859 133.855 27.461 137.221 24.674 140.111 C21.883 143 18.47 144.444 14.429 144.444 C10.389 144.444 6.971 143.05 4.184 140.255 C1.393 137.466 0 134.044 0 130 L0 14.444 C0 10.594 1.393 7.222 4.184 4.333 C6.971 1.444 10.389 0 14.429 0 C18.47 0 21.883 1.399 24.674 4.189 C27.461 6.983 28.859 10.4 28.859 14.444 L28.859 17.333 C28.859 25.039 32.705 28.889 40.403 28.889 L46.752 28.889 C54.062 28.889 57.718 25.232 57.718 17.911 L57.718 14.444 C57.718 10.594 59.111 7.222 61.903 4.333 C64.689 1.444 68.107 0 72.148 0 C76.187 0 79.602 1.399 82.394 4.189 C85.18 6.983 86.577 10.4 86.577 14.444 C86.577 18.489 85.18 21.91 82.394 24.7 C79.602 27.494 76.187 28.889 72.148 28.889 L68.396 28.889 C65.7 28.889 63.246 29.855 61.036 31.777 C58.823 33.705 57.718 36.594 57.718 40.444 L57.718 43.333 C57.718 47.377 56.32 50.799 53.534 53.589 C50.743 56.383 47.329 57.778 43.289 57.778 L40.403 57.778 C36.363 57.778 33.427 58.743 31.601 60.666 C29.77 62.594 28.859 65.483 28.859 69.333 " transform="translate(443.826, 57.7783)"/>
   <path style="fill:#0202CC; fill-rule:nonzero;stroke:none;" d="M14.43 0 C18.47 0 21.883 1.399 24.676 4.189 C27.462 6.983 28.86 10.4 28.86 14.445 L28.86 187.778 C28.86 191.633 27.462 195 24.676 197.889 C21.883 200.778 18.47 202.222 14.43 202.222 C10.39 202.222 6.971 200.828 4.185 198.033 C1.393 195.244 0 191.822 0 187.778 L0 14.445 C0 10.594 1.393 7.222 4.185 4.334 C6.971 1.445 10.39 0 14.43 0 " transform="translate(553.547, 0.0001)"/>
   <path style="fill:#0202CC; fill-rule:nonzero;stroke:none;" d="M86.578 104.578 L86.578 39.867 C86.578 32.549 82.921 28.889 75.612 28.889 L39.826 28.889 C32.512 28.889 28.859 32.549 28.859 39.867 L28.859 104.578 C28.859 111.899 32.512 115.555 39.826 115.555 L75.612 115.555 C82.921 115.555 86.578 111.899 86.578 104.578 M0 101.111 L0 43.333 C0 39.289 1.393 35.872 4.185 33.078 C6.971 30.288 10.39 28.889 14.43 28.889 L18.181 28.889 C20.873 28.889 23.326 27.927 25.541 26 C27.751 24.077 28.859 21.188 28.859 17.333 L28.859 14.444 C28.859 10.4 30.252 6.983 33.044 4.189 C35.831 1.399 39.249 0 43.289 0 L72.148 0 C76.188 0 79.602 1.399 82.394 4.189 C85.18 6.983 86.578 10.4 86.578 14.444 L86.578 18.2 C86.578 20.899 87.539 23.355 89.464 25.566 C91.385 27.783 94.271 28.889 98.122 28.889 L101.008 28.889 C105.048 28.889 108.461 30.288 111.253 33.078 C114.039 35.872 115.437 39.289 115.437 43.333 L115.437 101.111 C115.437 105.155 114.039 108.577 111.253 111.366 C108.461 114.161 105.048 115.555 101.008 115.555 L97.256 115.555 C94.56 115.555 92.106 116.521 89.897 118.444 C87.683 120.372 86.578 123.261 86.578 127.111 L86.578 130 C86.578 134.044 85.18 137.466 82.394 140.255 C79.602 143.05 76.188 144.444 72.148 144.444 L43.289 144.444 C39.249 144.444 35.831 143.05 33.044 140.255 C30.252 137.466 28.859 134.044 28.859 130 L28.859 126.244 C28.859 123.549 27.895 121.094 25.973 118.877 C24.048 116.665 21.162 115.555 17.316 115.555 L14.43 115.555 C10.39 115.555 6.971 114.161 4.185 111.366 C1.393 108.577 0 105.155 0 101.111 " transform="translate(607.167, 57.7783)"/>
   <path style="fill:#0202CC; fill-rule:nonzero;stroke:none;" d="M28.859 39.867 L28.859 104.578 C28.859 111.899 32.512 115.556 39.826 115.556 L75.034 115.556 C79.074 115.556 82.005 114.594 83.837 112.667 C85.662 110.744 86.578 107.855 86.578 104 L86.578 40.445 C86.578 32.744 82.727 28.889 75.034 28.889 L39.826 28.889 C32.512 28.889 28.859 32.55 28.859 39.867 M0 101.111 L0 43.334 C0 39.289 1.393 35.872 4.185 33.078 C6.971 30.288 10.389 28.889 14.429 28.889 L18.181 28.889 C20.873 28.889 23.326 27.927 25.541 26 C27.75 24.077 28.859 21.188 28.859 17.333 L28.859 14.445 C28.859 10.4 30.252 6.983 33.044 4.189 C35.83 1.399 39.249 0 43.289 0 L101.007 0 C105.047 0 108.461 1.399 111.253 4.189 C114.039 6.983 115.437 10.4 115.437 14.445 L115.437 158.889 C115.437 162.933 114.039 166.35 111.253 169.145 C108.461 171.934 105.047 173.333 101.007 173.333 L97.256 173.333 C94.56 173.333 92.106 174.295 89.897 176.222 C87.682 178.145 86.578 181.034 86.578 184.889 L86.578 187.778 C86.578 191.822 85.18 195.239 82.394 198.034 C79.601 200.823 76.188 202.222 72.148 202.222 L28.859 202.222 C25.008 202.222 21.645 200.823 18.759 198.034 C15.872 195.239 14.429 191.822 14.429 187.778 C14.429 183.734 15.822 180.312 18.614 177.523 C21.401 174.728 24.819 173.333 28.859 173.333 L75.612 173.333 C82.921 173.333 86.578 169.673 86.578 162.356 L86.578 156 C86.578 148.295 82.727 144.445 75.034 144.445 L43.289 144.445 C39.249 144.445 35.83 143.05 33.044 140.255 C30.252 137.466 28.859 134.044 28.859 130 L28.859 126.244 C28.859 123.55 27.894 121.094 25.973 118.878 C24.047 116.666 21.161 115.556 17.315 115.556 L14.429 115.556 C10.389 115.556 6.971 114.161 4.185 111.366 C1.393 108.577 0 105.155 0 101.111 " transform="translate(745.865, 57.7779)"/>
   <path style="fill:#0202CC; fill-rule:nonzero;stroke:none;" d="M0 101.111 L0 14.444 C0 10.594 1.393 7.222 4.185 4.333 C6.971 1.444 10.39 0 14.43 0 C18.47 0 21.883 1.399 24.675 4.189 C27.461 6.983 28.859 10.4 28.859 14.444 L28.859 104.578 C28.859 111.899 32.512 115.555 39.826 115.555 L75.034 115.555 C79.074 115.555 82.006 114.594 83.837 112.666 C85.662 110.744 86.578 107.855 86.578 104 L86.578 14.444 C86.578 10.594 87.971 7.222 90.763 4.333 C93.549 1.444 96.968 0 101.008 0 C105.048 0 108.461 1.399 111.253 4.189 C114.039 6.983 115.437 10.4 115.437 14.444 L115.437 158.889 C115.437 162.933 114.039 166.35 111.253 169.145 C108.461 171.934 105.048 173.333 101.008 173.333 L97.256 173.333 C94.56 173.333 92.106 174.295 89.897 176.222 C87.683 178.145 86.578 181.034 86.578 184.888 L86.578 187.778 C86.578 191.822 85.18 195.239 82.394 198.034 C79.602 200.822 76.188 202.222 72.148 202.222 L28.859 202.222 C25.008 202.222 21.645 200.822 18.759 198.034 C15.873 195.239 14.43 191.822 14.43 187.778 C14.43 183.733 15.823 180.311 18.615 177.522 C21.401 174.728 24.819 173.333 28.859 173.333 L75.612 173.333 C82.921 173.333 86.578 169.673 86.578 162.356 L86.578 156 C86.578 148.295 82.727 144.444 75.034 144.444 L43.289 144.444 C39.249 144.444 35.831 143.05 33.044 140.255 C30.252 137.466 28.859 134.044 28.859 130 L28.859 126.244 C28.859 123.549 27.895 121.094 25.973 118.877 C24.048 116.665 21.162 115.555 17.316 115.555 L14.43 115.555 C10.39 115.555 6.971 114.161 4.185 111.366 C1.393 108.577 0 105.155 0 101.111 " transform="translate(884.562, 57.7782)"/>
  </g>
 </g>
 <g inkscape:label="Warstwa 1" id="Warstwa 1" inkscape:groupmode="layer"/>
</svg>
