<?xml version="1.0" encoding="UTF-8"?>
<!DOCTYPE svg PUBLIC "-//W3C//DTD SVG 1.1//EN" "http://www.w3.org/Graphics/SVG/1.1/DTD/svg11.dtd">
<!-- Creator: CorelDRAW -->
<svg xmlns="http://www.w3.org/2000/svg" xml:space="preserve" width="120px" height="120px" version="1.1" style="shape-rendering:geometricPrecision; text-rendering:geometricPrecision; image-rendering:optimizeQuality; fill-rule:evenodd; clip-rule:evenodd"
viewBox="0 0 120 120"
 xmlns:xlink="http://www.w3.org/1999/xlink"
 xmlns:xodm="http://www.corel.com/coreldraw/odm/2003">
 <defs>
  <style type="text/css">
   <![CDATA[
    .fil8 {fill:#091854}
    .fil7 {fill:#13132B}
    .fil10 {fill:#161A78}
    .fil11 {fill:#166248}
    .fil12 {fill:#221B47}
    .fil14 {fill:#239789}
    .fil6 {fill:#499CC5}
    .fil2 {fill:#576494}
    .fil16 {fill:#6AABA5}
    .fil9 {fill:#760939}
    .fil13 {fill:#9A1C0A}
    .fil17 {fill:#9AAB48}
    .fil1 {fill:#B0357B}
    .fil15 {fill:#BA2528}
    .fil3 {fill:#D57A38}
    .fil4 {fill:#D6B86E}
    .fil5 {fill:#D8D04C}
    .fil0 {fill:#FEFEFE}
   ]]>
  </style>
   <clipPath id="id0">
    <rect x="4.97" y="25.96" width="109.86" height="68.66"/>
   </clipPath>
 </defs>
 <g id="Слой_x0020_1">
  <metadata id="CorelCorpID_0Corel-Layer"/>
  <g style="clip-path:url(#id0)">
   <image id="джипег.png" x="4.97" y="25.96" width="109.86" height="68.66" xlink:href="Безымянный-2_Images\Безымянный-2_ImgID1.png"/>
  </g>
  <polygon class="fil0" points="4.97,94.62 114.83,94.62 114.83,25.96 4.97,25.96 "/>
  <path class="fil0" d="M48.45 59.17l2.95 -1.14 6.86 -4.04c-0.33,-2.85 0,-1.34 -1.82,-3.45 -3.71,-4.3 -10.89,-11.19 -16.19,-12.96 -6.81,1.53 -21.97,16.16 -23.33,22.16 5.54,0.98 10.06,1.94 16.1,1.72 5.92,-0.21 10.1,-1.6 15.43,-2.29z"/>
  <path class="fil0" d="M71.31 64.43l-2.86 0.96 -6.82 4.69c1.08,3.71 13.45,14.43 19.08,15.78 4.87,-2.54 8.98,-6.01 12.59,-9.33 1.99,-1.83 3.19,-3.44 5.13,-5.74 0.81,-0.96 1.42,-1.88 2.39,-3.3 1.24,-1.83 1.04,-2.1 2.68,-3.51l0.06 -0.05c-14.29,-2.58 -18.42,-2.55 -32.25,0.5z"/>
  <path class="fil0" d="M16.99 63.96c2.48,6.96 13.1,16.12 19.54,20.27 2.76,1.78 3.55,1.92 6.25,0.16 2.35,-1.52 3.34,-2.27 5.66,-4.09 2.48,-1.93 8.17,-7.34 9.76,-9.99 -1.37,-2.41 -4.84,-2.98 -6.72,-5.01l-2.87 -0.74c-9.62,-2.04 -22.2,-4.35 -31.62,-0.6z"/>
  <path class="fil0" d="M61.76 53.07c1.17,1.95 5.07,3.14 7.17,5.03l1.8 0.41c12.39,3.66 19.78,3.35 32.78,0.71l-0.34 0.13c-2.74,-5.01 -6.17,-9.1 -9.78,-12.53 -2.83,-2.68 -8.59,-8.19 -12.98,-9.35 -7.42,3.34 -15.16,10.41 -18.65,15.6z"/>
  <path class="fil0" d="M74.32 88.14c-0.66,-4.86 -10.94,-14.39 -13.99,-16.94l-0.51 -0.24c-1.29,2.1 -2.56,2.33 -4.28,3.86 -2.86,2.53 -8.66,9.61 -10.02,12.93 5.73,3.95 21.52,1.76 28.8,0.39z"/>
  <path class="fil0" d="M61.04 51.79c1.21,-1.93 5.4,-5.24 7.48,-7.48 1.15,-1.24 5.43,-7.01 6.02,-9.05l-11.61 -1.65c-5.2,0.14 -13.32,-0.59 -17.33,2.07 1.45,3.61 11.58,16.03 15.44,16.11z"/>
  <path class="fil1" d="M13.78 64.75l-2.6 0.67c5.83,5.11 9.9,4.18 20.09,17.77 1.7,2.27 3.32,6.07 5.26,8.07 -1.08,-6.59 4.27,-4.45 7.92,-3.27 -0.34,1.13 -1.11,3 -1.72,4.78 6.52,-0.93 10.71,-2.44 18.31,-2.25 5.97,0.15 11.9,1.17 17.11,2.96 -1.57,-1.32 -2.54,-3.16 -3.12,-5.33l-0.71 -0.01c-7.28,1.37 -23.07,3.56 -28.8,-0.39 1.36,-3.32 7.16,-10.4 10.02,-12.93 1.72,-1.53 2.99,-1.76 4.28,-3.86l-1.04 -0.37 -0.58 -0.28c-1.59,2.65 -7.28,8.06 -9.76,9.99 -2.32,1.82 -3.31,2.57 -5.66,4.09 -2.7,1.76 -3.49,1.62 -6.25,-0.16 -6.44,-4.15 -17.06,-13.31 -19.54,-20.27 -2.22,0.05 -1.7,-0.31 -3.21,0.79z"/>
  <path class="fil2" d="M11.13 58.17l4.71 1.53c-0.35,2.15 -0.46,3.63 -2.06,5.05 1.51,-1.1 0.99,-0.74 3.21,-0.79 9.42,-3.75 22,-1.44 31.62,0.6 -0.58,-2.33 -0.91,-2.67 -0.16,-5.39 -5.33,0.69 -9.51,2.08 -15.43,2.29 -6.04,0.22 -10.56,-0.74 -16.1,-1.72 1.36,-6 16.52,-20.63 23.33,-22.16l0 -0.46c-3.43,-0.41 -4.35,-1.18 -3.8,-4.94 -2.03,2.14 -3.32,5.46 -4.97,7.71 -1.78,2.41 -3.96,5.11 -5.68,6.91l-10.4 8.49c-1.51,1 -2.97,1.5 -4.27,2.88z"/>
  <path class="fil3" d="M62.93 32.7l0 0.91 11.61 1.65c-0.59,2.04 -4.87,7.81 -6.02,9.05 -2.08,2.24 -6.27,5.55 -7.48,7.48l-2.78 2.2 -6.86 4.04c2.58,0.25 3.38,1.19 4.16,3.57l0.65 0 3.73 -6.37c0.72,-1.65 0.17,-1.21 1.82,-2.16 3.49,-5.19 11.23,-12.26 18.65,-15.6l0 -0.56c-4.48,-0.45 -4.58,-2.25 -3.01,-6.46 -4.83,0.77 -9.13,2.38 -14.47,2.25z"/>
  <path class="fil4" d="M40.25 37.12l0 0.46c5.3,1.77 12.48,8.66 16.19,12.96 1.82,2.11 1.49,0.6 1.82,3.45l2.78 -2.2c-3.86,-0.08 -13.99,-12.5 -15.44,-16.11 4.01,-2.66 12.13,-1.93 17.33,-2.07l0 -0.91c-8.53,-0.26 -12.2,-0.54 -20.15,-2.36 1.26,3.95 1.19,5.17 -2.53,6.78z"/>
  <path class="fil5" d="M80.71 85.86l0 0.58c2.05,0.71 2.68,1.56 3.21,3.74 1.72,-1.72 3.79,-6.99 10.86,-13.89l6.78 -5.8c1.87,-1.45 6.09,-3.75 7.47,-5.21l-5.53 -1.3c-1.64,1.41 -1.44,1.68 -2.68,3.51 -0.97,1.42 -1.58,2.34 -2.39,3.3 -1.94,2.3 -3.14,3.91 -5.13,5.74 -3.61,3.32 -7.72,6.79 -12.59,9.33z"/>
  <path class="fil6" d="M71.31 64.43c13.83,-3.05 17.96,-3.08 32.25,-0.5 1.14,-2.54 1.22,-2.23 -0.05,-4.71 -13,2.64 -20.39,2.95 -32.78,-0.71 1.25,2.26 1.53,2.92 0.58,5.92z"/>
  <path class="fil1" d="M80.41 36.91l0 0.56c4.39,1.16 10.15,6.67 12.98,9.35 3.61,3.43 7.04,7.52 9.78,12.53l6.19 -1.45c-2.26,-1.88 -5.18,-3.08 -7.77,-4.97 -13.25,-9.67 -13.17,-15.07 -17.7,-20.17 -0.44,2.56 -1.17,3.22 -3.48,4.15z"/>
  <path class="fil0" d="M56.21 61.6c0.3,1.94 0.41,1.69 1.38,3.27 0.48,0.78 0.59,1.16 1.1,1.77 1.39,1.64 0.01,0.54 1.83,1.34l3.38 -6.03c-0.35,-2.53 -2.37,-5.51 -3.96,-6.72l-3.73 6.37z"/>
  <path class="fil7" d="M103.17 59.35l0.34 -0.13c1.27,2.48 1.19,2.17 0.05,4.71l-0.06 0.05 5.53 1.3c4.62,-1.01 4.52,-6.04 0.33,-7.38l-6.19 1.45z"/>
  <path class="fil8" d="M75.03 88.15c0.58,2.17 1.55,4.01 3.12,5.33 3.6,0.82 5.07,0.13 5.77,-3.3 -0.53,-2.18 -1.16,-3.03 -3.21,-3.74l-5.68 1.71z"/>
  <path class="fil9" d="M36.53 91.26c0.78,2.88 3.81,3.75 6.2,1.51 0.61,-1.78 1.38,-3.65 1.72,-4.78 -3.65,-1.18 -9,-3.32 -7.92,3.27z"/>
  <path class="fil10" d="M11.18 65.42l2.6 -0.67c1.6,-1.42 1.71,-2.9 2.06,-5.05l-4.71 -1.53c-4.39,0.26 -4.96,6.34 0.05,7.25z"/>
  <path class="fil11" d="M36.45 32.18c-0.55,3.76 0.37,4.53 3.8,4.94 3.72,-1.61 3.79,-2.83 2.53,-6.78 -3.09,-1.4 -5.13,-1.44 -6.33,1.84z"/>
  <path class="fil12" d="M48.45 59.17c-0.75,2.72 -0.42,3.06 0.16,5.39l2.87 0.74c2.58,-0.17 3.61,-1.18 4.08,-3.7 -0.78,-2.38 -1.58,-3.32 -4.16,-3.57l-2.95 1.14z"/>
  <path class="fil13" d="M77.4 30.45c-1.57,4.21 -1.47,6.01 3.01,6.46 2.31,-0.93 3.04,-1.59 3.48,-4.15 -0.61,-3.17 -3.68,-4.21 -6.49,-2.31z"/>
  <path class="fil14" d="M60.33 71.2c3.05,2.55 13.33,12.08 13.99,16.94l0.71 0.01 5.68 -1.71 0 -0.58c-5.63,-1.35 -18,-12.07 -19.08,-15.78 -2.53,0.46 -0.81,-0.15 -1.3,1.12z"/>
  <path class="fil7" d="M64.63 61.95c0.89,2.23 1.21,2.89 3.82,3.44l2.86 -0.96c0.95,-3 0.67,-3.66 -0.58,-5.92l-1.8 -0.41c-3.13,-0.09 -3.98,0.98 -4.3,3.85z"/>
  <path class="fil15" d="M60.52 67.98l-1.74 2.61 1.04 0.37 0.51 0.24c0.49,-1.27 -1.23,-0.66 1.3,-1.12l6.82 -4.69c-2.61,-0.55 -2.93,-1.21 -3.82,-3.44l-0.73 0 -3.38 6.03z"/>
  <path class="fil16" d="M51.48 65.3c1.88,2.03 5.35,2.6 6.72,5.01l0.58 0.28 1.74 -2.61c-1.82,-0.8 -0.44,0.3 -1.83,-1.34 -0.51,-0.61 -0.62,-0.99 -1.1,-1.77 -0.97,-1.58 -1.08,-1.33 -1.38,-3.27l-0.65 0c-0.47,2.52 -1.5,3.53 -4.08,3.7z"/>
  <path class="fil17" d="M59.94 55.23c1.59,1.21 3.61,4.19 3.96,6.72l0.73 0c0.32,-2.87 1.17,-3.94 4.3,-3.85 -2.1,-1.89 -6,-3.08 -7.17,-5.03 -1.65,0.95 -1.1,0.51 -1.82,2.16z"/>
 </g>
</svg>
