<?xml version="1.0" encoding="UTF-8"?>
<svg xmlns="http://www.w3.org/2000/svg" xmlns:xlink="http://www.w3.org/1999/xlink" width="96px" height="96px" viewBox="0 0 96 96" version="1.1">
<g id="surface1">
<path style=" stroke:none;fill-rule:nonzero;fill:rgb(59.607843%,12.54902%,19.215686%);fill-opacity:1;" d="M 44.015625 0 L 52.078125 0 L 54.28125 0.328125 L 56.71875 0.75 L 58.828125 1.171875 L 61.265625 1.78125 L 63.28125 2.34375 L 64.96875 2.90625 L 66.375 3.46875 L 67.546875 3.984375 L 68.8125 4.546875 L 70.5 5.390625 L 71.578125 6.046875 L 72.75 6.796875 L 73.59375 7.3125 L 74.859375 8.15625 L 75.796875 8.8125 L 76.640625 9.421875 L 77.484375 10.078125 L 77.953125 10.453125 L 78.46875 10.875 L 79.078125 11.390625 L 79.59375 11.8125 L 80.25 12.421875 L 81 13.078125 L 81 13.171875 L 81.1875 13.265625 L 82.21875 14.296875 L 82.59375 14.625 L 83.25 15.28125 L 83.625 15.609375 L 83.953125 15.984375 L 84.375 16.453125 L 84.796875 16.96875 L 85.359375 17.625 L 85.6875 18.046875 L 86.625 19.265625 L 87.1875 20.0625 L 87.84375 21 L 88.640625 22.21875 L 89.34375 23.34375 L 90 24.46875 L 90.609375 25.59375 L 91.265625 26.859375 L 92.109375 28.734375 L 92.625 29.953125 L 93.28125 31.640625 L 93.984375 33.796875 L 94.453125 35.484375 L 94.875 37.21875 L 95.484375 40.265625 L 95.765625 42.046875 L 95.8125 42.328125 L 95.90625 43.40625 L 96 43.734375 L 96 52.265625 L 95.90625 52.640625 L 95.765625 53.8125 L 95.34375 56.4375 L 94.734375 59.34375 L 94.171875 61.546875 L 93.5625 63.46875 L 93 65.0625 L 92.296875 66.796875 L 91.6875 68.15625 L 91.078125 69.46875 L 90.609375 70.40625 L 90 71.484375 L 89.578125 72.234375 L 89.015625 73.171875 L 88.5 73.96875 L 87.375 75.65625 L 86.90625 76.3125 L 86.296875 77.109375 L 85.828125 77.765625 L 85.3125 78.375 L 84.890625 78.890625 L 84.46875 79.359375 L 84.046875 79.875 L 83.390625 80.578125 L 83.0625 80.90625 L 82.6875 81.234375 L 82.078125 81.796875 L 81.65625 82.21875 L 81.140625 82.640625 L 81.046875 82.828125 L 81.703125 83.859375 L 83.0625 85.875 L 83.578125 86.671875 L 84.9375 88.6875 L 85.453125 89.484375 L 85.453125 89.578125 L 71.953125 89.625 L 71.53125 89.953125 L 70.5 90.515625 L 68.71875 91.40625 L 67.03125 92.15625 L 66.046875 92.578125 L 64.6875 93.09375 L 63.421875 93.515625 L 61.734375 93.984375 L 60.140625 94.40625 L 57.9375 94.921875 L 54.9375 95.484375 L 52.265625 95.90625 L 51.65625 96 L 44.390625 96 L 42.609375 95.71875 L 38.953125 95.109375 L 37.125 94.734375 L 34.6875 94.125 L 32.71875 93.515625 L 31.265625 93 L 29.8125 92.4375 L 28.40625 91.828125 L 27 91.171875 L 25.5 90.421875 L 23.34375 89.203125 L 22.21875 88.5 L 20.8125 87.5625 L 20.15625 87.09375 L 19.265625 86.4375 L 18.703125 86.015625 L 18 85.453125 L 17.34375 84.9375 L 16.875 84.515625 L 16.359375 84.09375 L 15.609375 83.390625 L 15.046875 82.875 L 14.53125 82.359375 L 14.15625 82.03125 L 13.734375 81.609375 L 13.40625 81.234375 L 12.75 80.578125 L 12.421875 80.203125 L 11.8125 79.546875 L 11.390625 79.03125 L 11.015625 78.609375 L 10.5 77.953125 L 10.078125 77.4375 L 9.421875 76.59375 L 8.8125 75.75 L 8.296875 75 L 7.453125 73.734375 L 6.75 72.609375 L 5.953125 71.25 L 5.25 69.9375 L 4.5 68.4375 L 3.890625 67.078125 L 3.140625 65.25 L 2.53125 63.5625 L 2.015625 61.96875 L 1.5 60.09375 L 0.984375 57.890625 L 0.46875 55.078125 L 0.140625 52.875 L 0 51.796875 L 0 43.78125 L 0.65625 39.75 L 1.078125 37.59375 L 1.546875 35.625 L 2.015625 33.984375 L 2.578125 32.25 L 3.140625 30.703125 L 3.703125 29.296875 L 4.265625 28.03125 L 5.15625 26.15625 L 5.71875 25.125 L 6.375 23.953125 L 7.171875 22.640625 L 7.6875 21.84375 L 8.25 21 L 8.90625 20.0625 L 9.375 19.40625 L 10.03125 18.5625 L 10.640625 17.765625 L 11.0625 17.25 L 11.53125 16.734375 L 11.8125 16.359375 L 11.90625 16.359375 L 12 16.171875 L 12.421875 15.703125 L 12.75 15.328125 L 13.125 14.953125 L 13.171875 14.859375 L 13.265625 14.859375 L 13.359375 14.671875 L 15.046875 12.984375 L 15.421875 12.65625 L 16.078125 12.046875 L 16.59375 11.625 L 17.0625 11.203125 L 17.578125 10.78125 L 18.328125 10.171875 L 20.015625 8.90625 L 20.765625 8.390625 L 21.703125 7.734375 L 22.6875 7.125 L 23.4375 6.65625 L 24.234375 6.1875 L 25.5 5.484375 L 27.046875 4.6875 L 28.59375 3.984375 L 29.765625 3.46875 L 31.5 2.8125 L 32.8125 2.34375 L 34.6875 1.78125 L 37.125 1.171875 L 39.609375 0.65625 L 42.703125 0.140625 Z M 44.015625 0 "/>
<path style=" stroke:none;fill-rule:nonzero;fill:rgb(99.607843%,99.607843%,99.607843%);fill-opacity:1;" d="M 47.71875 5.90625 L 48.421875 5.90625 L 50.953125 6 L 52.59375 6.140625 L 54.890625 6.46875 L 56.4375 6.75 L 58.546875 7.21875 L 60.234375 7.6875 L 61.921875 8.25 L 63.703125 8.90625 L 65.34375 9.609375 L 67.265625 10.546875 L 68.390625 11.15625 L 69.65625 11.90625 L 70.78125 12.609375 L 71.34375 12.984375 L 72.09375 13.5 L 72.890625 14.0625 L 74.859375 15.609375 L 75.515625 16.171875 L 76.03125 16.640625 L 76.40625 16.96875 L 77.109375 17.625 L 78.890625 19.40625 L 79.21875 19.78125 L 79.734375 20.34375 L 80.15625 20.859375 L 80.71875 21.515625 L 81.1875 22.125 L 81.84375 22.96875 L 82.3125 23.625 L 82.921875 24.515625 L 83.390625 25.21875 L 84.140625 26.4375 L 84.703125 27.421875 L 85.359375 28.640625 L 86.109375 30.140625 L 86.8125 31.734375 L 87.375 33.1875 L 87.890625 34.640625 L 88.40625 36.328125 L 88.921875 38.296875 L 89.390625 40.59375 L 89.671875 42.375 L 89.859375 43.875 L 90 45.796875 L 90.046875 47.015625 L 90.046875 49.21875 L 89.953125 50.953125 L 89.765625 52.828125 L 89.53125 54.5625 L 89.203125 56.390625 L 88.734375 58.453125 L 88.3125 59.953125 L 87.890625 61.3125 L 87.375 62.765625 L 86.671875 64.5 L 85.96875 66.046875 L 85.3125 67.359375 L 84.75 68.390625 L 84.140625 69.421875 L 83.671875 70.171875 L 83.109375 71.0625 L 82.546875 71.859375 L 81.9375 72.75 L 81.328125 73.5 L 80.671875 74.390625 L 80.15625 75 L 79.734375 75.46875 L 79.3125 75.984375 L 78.421875 76.875 L 78.09375 77.25 L 77.90625 77.484375 L 77.71875 77.625 L 77.53125 77.578125 L 74.8125 73.5 L 73.453125 71.4375 L 67.078125 61.875 L 66.1875 60.5625 L 65.71875 59.90625 L 65.0625 59.015625 L 64.59375 58.40625 L 63.984375 57.65625 L 63.421875 57 L 62.578125 56.0625 L 61.6875 55.171875 L 61.171875 54.75 L 60.65625 54.28125 L 59.671875 53.625 L 59.15625 53.296875 L 59.15625 53.15625 L 60.5625 52.6875 L 61.875 52.171875 L 63.1875 51.5625 L 64.078125 51.09375 L 65.25 50.390625 L 66.140625 49.78125 L 66.609375 49.40625 L 67.03125 49.078125 L 67.6875 48.515625 L 68.953125 47.25 L 69.28125 46.875 L 69.609375 46.40625 L 69.984375 45.9375 L 70.453125 45.234375 L 70.875 44.484375 L 71.34375 43.59375 L 71.765625 42.703125 L 72.234375 41.4375 L 72.703125 39.796875 L 72.9375 38.625 L 73.125 37.40625 L 73.265625 35.90625 L 73.3125 35.015625 L 73.3125 33.46875 L 73.21875 31.875 L 72.984375 29.90625 L 72.65625 28.21875 L 72.328125 27 L 71.8125 25.5 L 71.109375 23.953125 L 70.546875 22.921875 L 69.984375 22.03125 L 69.328125 21.140625 L 68.765625 20.484375 L 67.921875 19.546875 L 67.265625 18.9375 L 66.890625 18.609375 L 66.421875 18.234375 L 65.53125 17.578125 L 65.015625 17.25 L 64.359375 16.828125 L 63.375 16.265625 L 62.34375 15.75 L 60.65625 15.046875 L 59.0625 14.53125 L 57.46875 14.109375 L 55.96875 13.828125 L 53.296875 13.453125 L 51.9375 13.359375 L 50.296875 13.3125 L 26.71875 13.3125 L 26.671875 83.859375 L 26.625 84.046875 L 26.390625 84 L 25.828125 83.671875 L 24.796875 83.015625 L 23.90625 82.40625 L 23.0625 81.796875 L 22.5 81.375 L 21.84375 80.859375 L 21.234375 80.34375 L 20.71875 79.921875 L 20.15625 79.40625 L 19.78125 79.078125 L 18.984375 78.328125 L 17.15625 76.5 L 16.828125 76.125 L 16.3125 75.5625 L 15.890625 75.046875 L 15.375 74.4375 L 14.859375 73.78125 L 14.25 73.03125 L 13.640625 72.1875 L 12.984375 71.25 L 12.234375 70.078125 L 11.765625 69.328125 L 11.203125 68.34375 L 10.59375 67.21875 L 9.84375 65.71875 L 9.140625 64.125 L 8.4375 62.296875 L 7.875 60.609375 L 7.3125 58.640625 L 6.890625 56.859375 L 6.5625 55.21875 L 6.28125 53.25 L 6.046875 51.140625 L 5.953125 49.96875 L 5.90625 48.984375 L 5.90625 46.6875 L 6 45 L 6.234375 42.703125 L 6.46875 41.0625 L 6.796875 39.28125 L 7.21875 37.453125 L 7.78125 35.484375 L 8.34375 33.796875 L 8.8125 32.53125 L 9.328125 31.3125 L 9.703125 30.46875 L 10.453125 28.921875 L 11.0625 27.75 L 11.4375 27.140625 L 11.859375 26.390625 L 12.5625 25.265625 L 13.03125 24.5625 L 13.640625 23.671875 L 14.296875 22.78125 L 14.71875 22.21875 L 15.328125 21.46875 L 15.75 20.953125 L 16.359375 20.25 L 16.6875 19.875 L 17.109375 19.40625 L 17.625 18.84375 L 19.359375 17.109375 L 19.734375 16.78125 L 20.296875 16.265625 L 20.8125 15.84375 L 21.46875 15.28125 L 22.265625 14.671875 L 23.109375 14.015625 L 23.765625 13.546875 L 24.703125 12.890625 L 25.21875 12.5625 L 25.921875 12.09375 L 26.671875 11.671875 L 27.65625 11.109375 L 28.96875 10.40625 L 30 9.890625 L 31.125 9.375 L 32.578125 8.765625 L 34.21875 8.15625 L 35.8125 7.640625 L 37.546875 7.171875 L 39.421875 6.75 L 41.015625 6.46875 L 42.984375 6.1875 L 44.484375 6.046875 L 45.9375 5.953125 Z M 47.71875 5.90625 "/>
<path style=" stroke:none;fill-rule:nonzero;fill:rgb(28.235294%,30.588235%,34.901961%);fill-opacity:1;" d="M 44.015625 0 L 52.078125 0 L 54.28125 0.328125 L 56.71875 0.75 L 58.828125 1.171875 L 61.265625 1.78125 L 63.28125 2.34375 L 64.96875 2.90625 L 66.375 3.46875 L 67.546875 3.984375 L 68.8125 4.546875 L 70.5 5.390625 L 71.578125 6.046875 L 72.75 6.796875 L 73.59375 7.3125 L 74.859375 8.15625 L 75.796875 8.8125 L 76.640625 9.421875 L 77.484375 10.078125 L 77.953125 10.453125 L 78.46875 10.875 L 79.078125 11.390625 L 79.59375 11.8125 L 80.25 12.421875 L 81 13.078125 L 81 13.171875 L 81.1875 13.265625 L 82.21875 14.296875 L 82.59375 14.625 L 83.25 15.28125 L 83.625 15.609375 L 83.953125 15.984375 L 84.375 16.453125 L 84.796875 16.96875 L 85.359375 17.625 L 85.6875 18.046875 L 86.625 19.265625 L 87.1875 20.0625 L 87.84375 21 L 88.640625 22.21875 L 89.34375 23.34375 L 90 24.46875 L 90.609375 25.59375 L 91.265625 26.859375 L 92.109375 28.734375 L 92.625 29.953125 L 93.28125 31.640625 L 93.984375 33.796875 L 94.453125 35.484375 L 94.875 37.21875 L 95.484375 40.265625 L 95.765625 42.046875 L 95.8125 42.328125 L 95.90625 43.40625 L 96 43.734375 L 96 52.265625 L 95.90625 52.640625 L 95.765625 53.8125 L 95.34375 56.4375 L 94.734375 59.34375 L 94.171875 61.546875 L 93.5625 63.46875 L 93 65.0625 L 92.296875 66.796875 L 91.6875 68.15625 L 91.078125 69.46875 L 90.609375 70.40625 L 90 71.484375 L 89.578125 72.234375 L 89.015625 73.171875 L 88.5 73.96875 L 87.375 75.65625 L 86.90625 76.3125 L 86.296875 77.109375 L 85.828125 77.765625 L 85.3125 78.375 L 84.890625 78.890625 L 84.46875 79.359375 L 84.046875 79.875 L 83.390625 80.578125 L 83.0625 80.90625 L 82.6875 81.234375 L 82.078125 81.796875 L 81.65625 82.21875 L 81.140625 82.640625 L 81.046875 82.828125 L 81.703125 83.859375 L 83.0625 85.875 L 83.578125 86.671875 L 84.9375 88.6875 L 85.453125 89.484375 L 85.453125 89.578125 L 71.953125 89.625 L 71.53125 89.953125 L 70.5 90.515625 L 68.71875 91.40625 L 67.03125 92.15625 L 66.046875 92.578125 L 64.6875 93.09375 L 63.421875 93.515625 L 61.734375 93.984375 L 60.140625 94.40625 L 57.9375 94.921875 L 54.9375 95.484375 L 52.265625 95.90625 L 51.65625 96 L 44.390625 96 L 42.609375 95.71875 L 38.953125 95.109375 L 37.125 94.734375 L 34.6875 94.125 L 32.71875 93.515625 L 31.265625 93 L 29.8125 92.4375 L 28.40625 91.828125 L 27 91.171875 L 25.5 90.421875 L 23.34375 89.203125 L 22.21875 88.5 L 20.8125 87.5625 L 20.15625 87.09375 L 19.265625 86.4375 L 18.703125 86.015625 L 18 85.453125 L 17.34375 84.9375 L 16.875 84.515625 L 16.359375 84.09375 L 15.609375 83.390625 L 15.046875 82.875 L 14.53125 82.359375 L 14.15625 82.03125 L 13.734375 81.609375 L 13.40625 81.234375 L 12.75 80.578125 L 12.421875 80.203125 L 11.8125 79.546875 L 11.390625 79.03125 L 11.015625 78.609375 L 10.5 77.953125 L 10.078125 77.4375 L 9.421875 76.59375 L 8.8125 75.75 L 8.296875 75 L 7.453125 73.734375 L 6.75 72.609375 L 5.953125 71.25 L 5.25 69.9375 L 4.5 68.4375 L 3.890625 67.078125 L 3.140625 65.25 L 2.53125 63.5625 L 2.015625 61.96875 L 1.5 60.09375 L 0.984375 57.890625 L 0.46875 55.078125 L 0.140625 52.875 L 0 51.796875 L 0 43.78125 L 0.65625 39.75 L 1.078125 37.59375 L 1.546875 35.625 L 2.015625 33.984375 L 2.578125 32.25 L 3.140625 30.703125 L 3.703125 29.296875 L 4.265625 28.03125 L 5.15625 26.15625 L 5.71875 25.125 L 6.375 23.953125 L 7.171875 22.640625 L 7.6875 21.84375 L 8.25 21 L 8.90625 20.0625 L 9.375 19.40625 L 10.03125 18.5625 L 10.640625 17.765625 L 11.0625 17.25 L 11.53125 16.734375 L 11.8125 16.359375 L 11.90625 16.359375 L 12 16.171875 L 12.421875 15.703125 L 12.75 15.328125 L 13.125 14.953125 L 13.171875 14.859375 L 13.265625 14.859375 L 13.359375 14.671875 L 15.046875 12.984375 L 15.421875 12.65625 L 16.078125 12.046875 L 16.59375 11.625 L 17.0625 11.203125 L 17.578125 10.78125 L 18.328125 10.171875 L 20.015625 8.90625 L 20.765625 8.390625 L 21.703125 7.734375 L 22.6875 7.125 L 23.4375 6.65625 L 24.234375 6.1875 L 25.5 5.484375 L 27.046875 4.6875 L 28.59375 3.984375 L 29.765625 3.46875 L 31.5 2.8125 L 32.8125 2.34375 L 34.6875 1.78125 L 37.125 1.171875 L 39.609375 0.65625 L 42.703125 0.140625 Z M 47.71875 5.90625 L 45.9375 5.953125 L 43.875 6.09375 L 42.234375 6.28125 L 39.890625 6.65625 L 37.921875 7.078125 L 36.46875 7.453125 L 34.78125 7.96875 L 33.421875 8.4375 L 31.78125 9.09375 L 30.515625 9.65625 L 28.875 10.453125 L 27.796875 11.015625 L 26.8125 11.578125 L 25.40625 12.421875 L 24.796875 12.84375 L 24.234375 13.21875 L 23.578125 13.6875 L 22.6875 14.34375 L 21.84375 15 L 21.09375 15.609375 L 20.4375 16.171875 L 19.96875 16.59375 L 19.59375 16.921875 L 18.984375 17.484375 L 17.25 19.21875 L 16.921875 19.59375 L 16.40625 20.15625 L 15.984375 20.671875 L 15.46875 21.28125 L 15.046875 21.796875 L 14.671875 22.265625 L 14.015625 23.15625 L 13.40625 24 L 12.9375 24.703125 L 12.328125 25.640625 L 11.578125 26.859375 L 11.25 27.46875 L 10.875 28.125 L 10.078125 29.671875 L 9.421875 31.078125 L 8.8125 32.53125 L 8.34375 33.796875 L 7.78125 35.484375 L 7.21875 37.453125 L 6.890625 38.859375 L 6.5625 40.5 L 6.28125 42.328125 L 6.046875 44.4375 L 5.953125 45.65625 L 5.90625 46.6875 L 5.90625 48.984375 L 6 50.625 L 6.1875 52.5 L 6.421875 54.328125 L 6.703125 55.96875 L 7.125 57.890625 L 7.59375 59.671875 L 8.109375 61.359375 L 8.625 62.8125 L 9.1875 64.21875 L 9.703125 65.390625 L 10.359375 66.75 L 10.828125 67.6875 L 11.4375 68.765625 L 12.1875 70.03125 L 13.3125 71.71875 L 13.921875 72.5625 L 14.484375 73.3125 L 15.09375 74.0625 L 15.609375 74.71875 L 16.171875 75.375 L 16.640625 75.890625 L 16.96875 76.265625 L 17.53125 76.875 L 19.40625 78.75 L 19.78125 79.078125 L 20.484375 79.734375 L 21 80.15625 L 21.703125 80.765625 L 22.921875 81.703125 L 23.765625 82.3125 L 25.3125 83.34375 L 26.0625 83.8125 L 26.484375 84.046875 L 26.625 84.046875 L 26.71875 83.859375 L 26.765625 84.234375 L 27.140625 84.5625 L 28.03125 85.078125 L 29.15625 85.6875 L 30.703125 86.390625 L 32.015625 86.953125 L 33.84375 87.609375 L 35.671875 88.171875 L 37.171875 88.59375 L 37.875 88.78125 L 38.484375 88.875 L 39.84375 89.15625 L 41.90625 89.484375 L 43.78125 89.71875 L 45.796875 89.90625 L 46.78125 89.953125 L 48.75 89.953125 L 50.578125 89.859375 L 52.640625 89.671875 L 54.375 89.4375 L 56.484375 89.0625 L 57.796875 88.78125 L 59.484375 88.359375 L 61.171875 87.84375 L 62.8125 87.28125 L 64.546875 86.578125 L 65.484375 86.15625 L 66.84375 85.5 L 68.203125 84.796875 L 68.859375 84.421875 L 68.859375 84.375 L 69.28125 84.234375 L 69.9375 83.90625 L 70.921875 83.296875 L 71.671875 82.78125 L 72.609375 82.125 L 73.359375 81.5625 L 74.203125 80.90625 L 74.671875 80.53125 L 75.1875 80.109375 L 75.65625 79.6875 L 76.171875 79.265625 L 76.734375 78.75 L 77.109375 78.421875 L 77.625 77.90625 L 77.671875 77.765625 L 77.578125 77.625 L 77.765625 77.578125 L 78.375 76.96875 L 78.703125 76.59375 L 79.40625 75.890625 L 79.828125 75.375 L 80.34375 74.8125 L 80.953125 74.015625 L 81.421875 73.40625 L 81.9375 72.75 L 82.6875 71.671875 L 83.4375 70.546875 L 83.90625 69.796875 L 84.609375 68.625 L 85.078125 67.78125 L 85.875 66.234375 L 86.390625 65.15625 L 87.140625 63.375 L 87.65625 61.96875 L 88.21875 60.28125 L 88.59375 58.96875 L 89.015625 57.234375 L 89.34375 55.640625 L 89.625 53.953125 L 89.90625 51.515625 L 90 50.296875 L 90.046875 49.21875 L 90.046875 47.015625 L 89.953125 45.09375 L 89.8125 43.453125 L 89.484375 41.109375 L 89.15625 39.421875 L 88.78125 37.734375 L 88.3125 36 L 87.84375 34.5 L 87.1875 32.671875 L 86.625 31.3125 L 86.203125 30.375 L 85.640625 29.203125 L 85.125 28.171875 L 84.515625 27.09375 L 84.09375 26.34375 L 83.390625 25.21875 L 82.921875 24.515625 L 82.3125 23.625 L 81.65625 22.734375 L 80.625 21.421875 L 80.109375 20.8125 L 79.546875 20.15625 L 78.984375 19.546875 L 78.5625 19.078125 L 76.6875 17.203125 L 76.3125 16.875 L 75.703125 16.3125 L 75.1875 15.890625 L 74.53125 15.328125 L 73.921875 14.859375 L 73.078125 14.203125 L 72.234375 13.59375 L 71.34375 12.984375 L 70.640625 12.515625 L 69.421875 11.765625 L 68.203125 11.0625 L 67.078125 10.453125 L 66.046875 9.9375 L 64.921875 9.421875 L 63.328125 8.765625 L 61.921875 8.25 L 60.234375 7.6875 L 58.359375 7.171875 L 55.96875 6.65625 L 53.671875 6.28125 L 52.171875 6.09375 L 50.953125 6 L 48.28125 5.90625 Z M 47.71875 5.90625 "/>
<path style=" stroke:none;fill-rule:nonzero;fill:rgb(99.607843%,99.607843%,99.607843%);fill-opacity:1;" d="M 37.734375 55.59375 L 41.015625 55.59375 L 42.609375 55.6875 L 44.0625 55.875 L 45.28125 56.15625 L 46.5 56.53125 L 47.8125 57.09375 L 48.796875 57.609375 L 49.59375 58.125 L 50.390625 58.6875 L 51 59.203125 L 51.5625 59.71875 L 52.6875 60.84375 L 53.015625 61.21875 L 53.578125 61.875 L 54.09375 62.53125 L 54.703125 63.28125 L 56.015625 65.0625 L 56.625 65.90625 L 57.140625 66.65625 L 57.796875 67.59375 L 59.859375 70.6875 L 62.015625 73.96875 L 62.671875 74.953125 L 63.328125 75.984375 L 64.546875 77.8125 L 65.15625 78.75 L 66.140625 80.25 L 66.75 81.1875 L 68.015625 83.109375 L 68.484375 83.859375 L 68.859375 84.421875 L 67.734375 85.03125 L 66.65625 85.59375 L 65.109375 86.34375 L 63.515625 87 L 62.15625 87.515625 L 60.28125 88.125 L 58.921875 88.5 L 57.1875 88.921875 L 55.21875 89.296875 L 53.390625 89.578125 L 51.234375 89.8125 L 49.921875 89.90625 L 48.75 89.953125 L 46.78125 89.953125 L 45.234375 89.859375 L 42.9375 89.625 L 40.6875 89.296875 L 38.859375 88.96875 L 37.875 88.734375 L 37.78125 88.640625 L 37.734375 88.40625 L 37.6875 86.953125 L 37.59375 78.515625 L 37.59375 59.765625 L 37.640625 56.34375 L 37.6875 55.6875 Z M 37.734375 55.59375 "/>
<path style=" stroke:none;fill-rule:nonzero;fill:rgb(99.607843%,99.607843%,99.607843%);fill-opacity:1;" d="M 40.453125 22.59375 L 46.171875 22.59375 L 48.09375 22.640625 L 50.296875 22.78125 L 51.984375 22.96875 L 53.53125 23.25 L 54.84375 23.625 L 56.015625 24.046875 L 57.234375 24.65625 L 57.984375 25.125 L 58.78125 25.734375 L 59.578125 26.53125 L 60.046875 27.140625 L 60.5625 27.984375 L 60.984375 28.875 L 61.40625 30.046875 L 61.734375 31.640625 L 61.875 32.625 L 61.921875 33.234375 L 61.921875 35.390625 L 61.78125 36.75 L 61.59375 37.78125 L 61.3125 38.8125 L 60.9375 39.796875 L 60.5625 40.59375 L 60.234375 41.109375 L 59.859375 41.671875 L 59.484375 42.140625 L 59.390625 42.28125 L 59.296875 42.28125 L 59.203125 42.46875 L 58.78125 42.890625 L 58.125 43.40625 L 57.609375 43.78125 L 56.671875 44.34375 L 55.5 44.90625 L 54.046875 45.421875 L 52.78125 45.75 L 51.28125 46.03125 L 49.734375 46.21875 L 48.46875 46.3125 L 47.34375 46.359375 L 37.828125 46.359375 L 37.6875 46.3125 L 37.640625 46.171875 L 37.59375 43.96875 L 37.59375 26.296875 L 37.640625 23.578125 L 37.6875 22.734375 L 37.734375 22.640625 Z M 40.453125 22.59375 "/>
<path style=" stroke:none;fill-rule:nonzero;fill:rgb(59.215686%,12.54902%,19.215686%);fill-opacity:1;" d="M 80.953125 82.875 L 81.140625 82.96875 L 81.703125 83.859375 L 83.0625 85.875 L 83.578125 86.671875 L 84.9375 88.6875 L 85.453125 89.484375 L 85.453125 89.578125 L 72.1875 89.578125 L 72.28125 89.296875 L 72.75 88.96875 L 73.453125 88.5 L 74.34375 87.890625 L 75 87.421875 L 75.796875 86.859375 L 76.453125 86.390625 L 77.203125 85.828125 L 77.671875 85.453125 L 78.890625 84.421875 L 79.6875 83.8125 L 80.25 83.390625 Z M 80.953125 82.875 "/>
<path style=" stroke:none;fill-rule:nonzero;fill:rgb(68.627451%,16.470588%,26.27451%);fill-opacity:1;" d="M 39.65625 55.21875 L 42.5625 55.21875 L 43.171875 55.265625 L 43.828125 55.265625 L 43.96875 55.3125 L 44.4375 55.265625 L 45.234375 55.359375 L 45.703125 55.453125 L 45.984375 55.5 L 46.40625 55.546875 L 46.546875 55.59375 L 46.546875 55.6875 L 46.734375 55.734375 L 47.015625 55.828125 L 46.96875 55.734375 L 47.203125 55.828125 L 47.484375 56.0625 L 47.8125 56.15625 L 47.90625 56.34375 L 48.1875 56.390625 L 48.328125 56.484375 L 48.328125 56.578125 L 48.65625 56.671875 L 48.84375 56.859375 L 48.84375 56.953125 L 49.265625 57.046875 L 49.40625 57.09375 L 49.40625 57.1875 L 49.546875 57.1875 L 49.546875 57.28125 L 49.734375 57.375 L 49.734375 57.46875 L 49.96875 57.515625 L 50.296875 57.703125 L 50.4375 57.890625 L 50.8125 58.078125 L 51 58.3125 L 51.234375 58.453125 L 51.703125 58.921875 L 52.125 59.25 L 52.21875 59.296875 L 52.21875 59.4375 L 52.3125 59.484375 L 52.359375 59.625 L 52.6875 59.8125 L 52.828125 60.046875 L 52.828125 60.140625 L 53.109375 60.140625 L 53.4375 60.375 L 53.578125 60.65625 L 53.765625 60.796875 L 53.859375 60.796875 L 53.953125 60.984375 L 54 61.125 L 54.1875 61.171875 L 54.328125 61.453125 L 54.375 61.640625 L 54.46875 61.96875 L 54.75 62.203125 L 54.984375 62.4375 L 55.171875 62.71875 L 55.265625 62.765625 L 55.265625 62.859375 L 55.453125 62.953125 L 55.5 63.09375 L 55.59375 63.09375 L 55.921875 63.5625 L 55.921875 63.65625 L 56.015625 63.65625 L 56.203125 64.125 L 56.484375 64.453125 L 56.578125 64.5 L 56.71875 64.734375 L 56.90625 65.0625 L 57.1875 65.484375 L 57.46875 65.953125 L 57.609375 66.09375 L 57.609375 66.1875 L 57.796875 66.28125 L 58.125 66.796875 L 58.3125 67.125 L 58.734375 67.78125 L 58.875 67.875 L 58.875 68.015625 L 58.96875 68.0625 L 59.203125 68.34375 L 59.296875 68.671875 L 59.390625 68.671875 L 59.484375 68.8125 L 59.484375 69 L 59.578125 69.046875 L 59.625 69.234375 L 59.71875 69.234375 L 59.8125 69.46875 L 59.90625 69.46875 L 60.140625 69.890625 L 60.328125 70.125 L 60.328125 70.21875 L 60.421875 70.21875 L 60.515625 70.453125 L 60.703125 70.734375 L 60.703125 70.828125 L 60.796875 70.828125 L 60.984375 71.15625 L 61.171875 71.296875 L 61.3125 71.625 L 61.40625 71.953125 L 61.546875 71.953125 L 61.734375 72.328125 L 61.921875 72.65625 L 62.0625 72.703125 L 62.25 73.078125 L 62.296875 73.21875 L 62.296875 73.359375 L 62.390625 73.359375 L 62.53125 73.546875 L 62.53125 73.6875 L 62.671875 73.734375 L 62.8125 74.015625 L 63.09375 74.34375 L 63.1875 74.625 L 63.609375 75.28125 L 63.65625 75.421875 L 63.84375 75.609375 L 64.171875 76.265625 L 64.359375 76.453125 L 64.453125 76.59375 L 64.453125 76.734375 L 64.546875 76.734375 L 64.6875 76.96875 L 64.78125 77.203125 L 64.828125 77.390625 L 64.921875 77.390625 L 65.0625 77.578125 L 65.203125 77.90625 L 65.25 78.046875 L 65.4375 78.140625 L 65.53125 78.375 L 65.625 78.421875 L 65.625 78.5625 L 65.71875 78.609375 L 65.90625 78.9375 L 65.90625 79.03125 L 66 79.03125 L 66 79.171875 L 66.09375 79.21875 L 66.09375 79.40625 L 66.234375 79.453125 L 66.234375 79.546875 L 66.328125 79.546875 L 66.65625 80.0625 L 67.03125 80.578125 L 67.21875 80.953125 L 67.21875 81.046875 L 67.40625 81.140625 L 67.59375 81.375 L 67.734375 81.65625 L 67.96875 82.03125 L 68.0625 82.265625 L 68.15625 82.265625 L 68.15625 82.40625 L 68.296875 82.453125 L 68.625 82.96875 L 68.765625 83.25 L 68.765625 83.4375 L 68.859375 83.4375 L 69.046875 83.8125 L 69.046875 84 L 68.953125 84.046875 L 68.671875 84.046875 L 68.34375 83.53125 L 67.875 82.828125 L 67.359375 82.03125 L 66.65625 80.953125 L 66.328125 80.4375 L 65.765625 79.59375 L 65.34375 78.9375 L 64.875 78.234375 L 64.453125 77.578125 L 63.796875 76.59375 L 62.90625 75.234375 L 62.578125 74.71875 L 62.15625 74.109375 L 61.40625 72.9375 L 61.078125 72.46875 L 60.421875 71.4375 L 60.09375 70.96875 L 59.578125 70.171875 L 58.359375 68.34375 L 58.171875 68.25 L 57.75 67.59375 L 57.09375 66.65625 L 56.34375 65.578125 L 55.03125 63.796875 L 54.5625 63.1875 L 53.953125 62.4375 L 53.4375 61.78125 L 52.828125 61.078125 L 52.265625 60.46875 L 51.1875 59.390625 L 50.671875 58.96875 L 50.015625 58.453125 L 49.171875 57.890625 L 48.1875 57.328125 L 47.296875 56.90625 L 46.21875 56.484375 L 44.953125 56.109375 L 43.78125 55.875 L 42.609375 55.734375 L 41.015625 55.640625 L 38.8125 55.59375 L 39 55.40625 L 39.09375 55.40625 L 39.09375 55.3125 L 39.421875 55.3125 Z M 39.65625 55.21875 "/>
<path style=" stroke:none;fill-rule:nonzero;fill:rgb(67.45098%,17.254902%,26.666667%);fill-opacity:1;" d="M 46.78125 22.171875 L 49.359375 22.171875 L 49.359375 22.265625 L 49.453125 22.265625 L 49.453125 22.171875 L 50.109375 22.265625 L 50.25 22.265625 L 51 22.3125 L 51.65625 22.40625 L 51.796875 22.453125 L 51.984375 22.40625 L 52.3125 22.5 L 52.546875 22.453125 L 52.96875 22.5 L 53.4375 22.640625 L 54.046875 22.734375 L 54.375 22.875 L 54.609375 22.875 L 54.84375 22.921875 L 54.84375 23.015625 L 55.03125 22.96875 L 55.359375 23.109375 L 55.59375 23.203125 L 55.921875 23.296875 L 56.484375 23.53125 L 56.484375 23.625 L 56.8125 23.671875 L 57 23.8125 L 57.328125 23.953125 L 57.375 24.046875 L 57.609375 24.140625 L 57.84375 24.328125 L 58.125 24.515625 L 58.546875 24.84375 L 58.59375 24.9375 L 58.78125 24.984375 L 58.78125 25.078125 L 59.015625 25.171875 L 59.25 25.359375 L 59.25 25.453125 L 59.34375 25.453125 L 59.34375 25.546875 L 59.53125 25.640625 L 59.71875 25.875 L 59.953125 26.109375 L 60.234375 26.296875 L 60.328125 26.484375 L 60.328125 26.625 L 60.515625 26.71875 L 60.796875 27.140625 L 60.84375 27.28125 L 61.03125 27.421875 L 61.078125 27.796875 L 61.171875 27.890625 L 61.3125 28.3125 L 61.5 28.734375 L 61.6875 29.390625 L 61.875 29.859375 L 61.96875 30.046875 L 61.96875 30.328125 L 62.0625 30.328125 L 62.296875 30.9375 L 62.296875 31.265625 L 62.390625 31.3125 L 62.34375 31.40625 L 62.34375 31.828125 L 62.390625 32.578125 L 62.390625 33.09375 L 62.4375 33.46875 L 62.390625 34.96875 L 62.34375 35.4375 L 62.34375 35.71875 L 62.296875 35.8125 L 62.25 36.515625 L 62.203125 36.9375 L 62.15625 37.171875 L 62.0625 37.6875 L 61.96875 38.109375 L 61.828125 38.625 L 61.78125 38.90625 L 61.6875 39.234375 L 61.5 39.84375 L 61.359375 40.078125 L 61.21875 40.6875 L 61.125 40.828125 L 61.03125 40.828125 L 61.078125 41.015625 L 60.984375 41.015625 L 60.890625 41.296875 L 60.703125 41.71875 L 60.65625 41.8125 L 60.5625 41.8125 L 60.421875 42.234375 L 60.28125 42.46875 L 60.09375 42.65625 L 60 42.703125 L 59.859375 43.03125 L 59.578125 43.125 L 59.578125 43.21875 L 59.25 43.5 L 59.0625 43.6875 L 58.921875 43.734375 L 58.734375 43.921875 L 58.359375 44.0625 L 58.171875 44.25 L 57.84375 44.34375 L 57.65625 44.390625 L 57.65625 44.484375 L 57.375 44.671875 L 57.28125 44.671875 L 57.28125 44.765625 L 56.625 45.046875 L 56.34375 45.234375 L 56.015625 45.375 L 55.546875 45.46875 L 55.171875 45.65625 L 54.65625 45.84375 L 54.28125 45.9375 L 54.140625 45.890625 L 54.140625 45.984375 L 53.71875 46.125 L 53.25 46.21875 L 52.96875 46.21875 L 52.640625 46.3125 L 52.59375 46.359375 L 51.65625 46.453125 L 50.71875 46.59375 L 49.96875 46.6875 L 49.6875 46.734375 L 49.125 46.78125 L 48.515625 46.734375 L 47.671875 46.78125 L 46.921875 46.6875 L 46.921875 46.59375 L 46.96875 46.546875 L 46.78125 46.453125 L 46.734375 46.546875 L 46.6875 46.453125 L 45.375 46.40625 L 45.375 46.359375 L 47.34375 46.3125 L 49.21875 46.21875 L 50.953125 46.03125 L 52.359375 45.796875 L 53.71875 45.46875 L 55.125 45 L 56.109375 44.578125 L 57.09375 44.0625 L 58.078125 43.40625 L 58.59375 42.984375 L 59.15625 42.46875 L 59.296875 42.28125 L 59.390625 42.28125 L 59.484375 42.09375 L 59.953125 41.484375 L 60.28125 40.96875 L 60.609375 40.40625 L 61.03125 39.46875 L 61.40625 38.34375 L 61.640625 37.359375 L 61.828125 36 L 61.875 35.390625 L 61.875 33.234375 L 61.734375 31.875 L 61.453125 30.46875 L 61.265625 29.765625 L 60.84375 28.640625 L 60.28125 27.5625 L 59.71875 26.765625 L 59.15625 26.15625 L 58.6875 25.6875 L 57.84375 25.078125 L 57.046875 24.609375 L 56.015625 24.09375 L 54.65625 23.625 L 53.53125 23.296875 L 51.984375 23.015625 L 50.296875 22.828125 L 48.09375 22.6875 L 46.171875 22.640625 L 42.234375 22.59375 L 42.234375 22.546875 L 44.25 22.5 L 44.015625 22.453125 L 44.203125 22.3125 L 44.8125 22.21875 Z M 46.78125 22.171875 "/>
<path style=" stroke:none;fill-rule:nonzero;fill:rgb(63.137255%,19.607843%,28.627451%);fill-opacity:1;" d="M 26.71875 13.265625 L 50.296875 13.265625 L 51.9375 13.3125 L 53.296875 13.40625 L 55.96875 13.78125 L 57.65625 14.109375 L 59.34375 14.578125 L 60.890625 15.09375 L 62.109375 15.609375 L 63.28125 16.171875 L 64.21875 16.6875 L 65.015625 17.203125 L 65.71875 17.671875 L 66.46875 18.234375 L 66.984375 18.65625 L 67.59375 19.21875 L 67.96875 19.546875 L 68.296875 19.875 L 68.625 20.25 L 69.234375 20.953125 L 69.796875 21.703125 L 70.359375 22.546875 L 70.875 23.4375 L 71.34375 24.328125 L 71.859375 25.5 L 72.421875 27.1875 L 72.703125 28.21875 L 73.03125 29.90625 L 73.265625 31.875 L 73.359375 33.46875 L 73.359375 35.015625 L 73.265625 36.515625 L 73.078125 38.0625 L 72.796875 39.609375 L 72.375 41.109375 L 72 42.234375 L 71.484375 43.40625 L 71.34375 43.265625 L 71.4375 42.84375 L 71.484375 42.65625 L 71.578125 42.515625 L 71.671875 42.515625 L 71.671875 42.28125 L 71.8125 42 L 71.8125 41.90625 L 71.90625 41.90625 L 71.953125 41.578125 L 72 41.484375 L 72 41.203125 L 72.140625 40.96875 L 72.28125 40.59375 L 72.328125 40.453125 L 72.328125 40.125 L 72.515625 39.46875 L 72.609375 39.421875 L 72.5625 39.234375 L 72.65625 39.234375 L 72.65625 39.140625 L 72.5625 39.09375 L 72.65625 38.953125 L 72.65625 38.765625 L 72.75 38.765625 L 72.703125 38.4375 L 72.796875 37.828125 L 72.84375 37.359375 L 72.984375 36.328125 L 72.984375 35.8125 L 73.03125 35.578125 L 73.03125 35.25 L 73.078125 35.15625 L 73.03125 34.875 L 73.03125 34.546875 L 72.9375 34.359375 L 72.984375 33.984375 L 72.984375 32.484375 L 72.9375 32.015625 L 72.890625 31.03125 L 72.84375 30.84375 L 72.890625 30.75 L 72.796875 30.75 L 72.796875 30.375 L 72.5625 29.203125 L 72.5625 28.875 L 72.421875 28.546875 L 72.421875 28.265625 L 72.28125 27.796875 L 72.1875 27.609375 L 72.140625 27.28125 L 72.046875 27.234375 L 72 27 L 71.90625 26.578125 L 71.90625 26.4375 L 71.8125 26.4375 L 71.8125 26.203125 L 71.71875 26.203125 L 71.671875 25.921875 L 71.53125 25.6875 L 71.4375 25.40625 L 71.296875 25.125 L 71.15625 24.703125 L 71.0625 24.5625 L 71.0625 24.421875 L 70.96875 24.421875 L 70.96875 24.28125 L 70.875 24.28125 L 70.6875 23.765625 L 70.59375 23.71875 L 70.59375 23.484375 L 70.5 23.484375 L 70.453125 23.25 L 70.3125 23.203125 L 70.125 22.828125 L 70.078125 22.640625 L 69.984375 22.640625 L 69.75 22.21875 L 69.5625 22.03125 L 69.5625 21.890625 L 69.46875 21.890625 L 69.1875 21.5625 L 69.046875 21.328125 L 68.8125 21.09375 L 68.8125 20.90625 L 68.71875 20.90625 L 68.71875 20.765625 L 68.578125 20.71875 L 68.25 20.34375 L 68.296875 20.25 L 68.0625 20.015625 L 67.734375 19.78125 L 67.5 19.546875 L 66.65625 18.9375 L 66.5625 18.890625 L 66.5625 18.796875 L 66.421875 18.796875 L 66.421875 18.703125 L 66.28125 18.75 L 66.234375 18.609375 L 66.046875 18.5625 L 65.90625 18.421875 L 65.90625 18.328125 L 65.71875 18.28125 L 65.4375 18.09375 L 65.4375 18 L 65.296875 18.046875 L 65.15625 17.90625 L 64.828125 17.765625 L 64.5 17.578125 L 64.5 17.484375 L 64.265625 17.390625 L 63.796875 17.109375 L 63.65625 17.0625 L 63.65625 16.96875 L 63.421875 16.921875 L 63.1875 16.828125 L 62.953125 16.640625 L 62.625 16.5 L 62.15625 16.3125 L 61.828125 16.125 L 61.59375 16.078125 L 61.40625 15.984375 L 61.40625 15.890625 L 61.125 15.84375 L 60.75 15.703125 L 60.28125 15.515625 L 59.953125 15.421875 L 59.390625 15.28125 L 59.15625 15.1875 L 58.828125 15.09375 L 57.9375 14.859375 L 57.375 14.671875 L 56.859375 14.625 L 56.8125 14.578125 L 56.25 14.484375 L 55.546875 14.296875 L 55.03125 14.25 L 54.703125 14.15625 L 54.328125 14.109375 L 54.328125 14.015625 L 53.90625 14.015625 L 53.484375 13.875 L 52.875 13.828125 L 52.734375 13.6875 L 52.640625 13.78125 L 51.984375 13.6875 L 50.15625 13.6875 L 50.15625 13.59375 L 50.0625 13.6875 L 49.875 13.59375 L 49.359375 13.59375 L 49.359375 13.5 L 49.265625 13.59375 L 49.125 13.59375 L 49.125 13.5 L 48.703125 13.5 L 48.515625 13.546875 L 48.515625 13.453125 L 48.1875 13.5 L 47.203125 13.5 L 47.015625 13.546875 L 47.015625 13.453125 L 46.734375 13.5 L 46.40625 13.546875 L 46.40625 13.453125 L 46.078125 13.5 L 40.40625 13.5 L 39.75 13.453125 L 38.8125 13.453125 L 37.921875 13.5 L 36.65625 13.5 L 36.46875 13.453125 L 35.765625 13.5 L 35.390625 13.5 L 35.296875 13.453125 L 35.25 13.546875 L 35.015625 13.5 L 34.5 13.5 L 34.265625 13.546875 L 33.703125 13.5 L 33.234375 13.546875 L 32.90625 13.5 L 32.53125 13.546875 L 31.546875 13.546875 L 31.359375 13.5 L 31.3125 13.59375 L 31.21875 13.546875 L 31.171875 13.640625 L 30.984375 13.59375 L 30.984375 13.5 L 30.65625 13.546875 L 30.46875 13.59375 L 30.375 13.59375 L 30.28125 13.6875 L 29.53125 13.734375 L 29.0625 13.78125 L 27.84375 13.78125 L 27.796875 13.734375 L 27.515625 13.734375 L 27.1875 13.78125 L 27.140625 13.640625 L 26.90625 13.546875 L 26.765625 13.546875 L 26.71875 59.15625 L 26.671875 59.15625 L 26.671875 13.3125 Z M 26.71875 13.265625 "/>
<path style=" stroke:none;fill-rule:nonzero;fill:rgb(36.470588%,34.509804%,40.392157%);fill-opacity:1;" d="M 5.953125 45 L 6 45 L 6 45.65625 L 5.953125 46.6875 L 5.953125 48.984375 L 6.046875 50.625 L 6.234375 52.5 L 6.46875 54.328125 L 6.75 55.96875 L 7.171875 57.890625 L 7.640625 59.671875 L 8.15625 61.359375 L 8.671875 62.8125 L 9.234375 64.21875 L 9.75 65.390625 L 10.40625 66.75 L 10.875 67.6875 L 11.484375 68.765625 L 12.234375 70.03125 L 13.359375 71.71875 L 13.96875 72.5625 L 14.53125 73.3125 L 15.140625 74.0625 L 15.65625 74.71875 L 16.21875 75.375 L 16.6875 75.890625 L 17.015625 76.265625 L 17.578125 76.875 L 19.40625 78.703125 L 19.78125 79.03125 L 20.484375 79.6875 L 21 80.109375 L 21.703125 80.71875 L 22.921875 81.65625 L 23.765625 82.265625 L 25.3125 83.296875 L 26.0625 83.765625 L 26.625 84.046875 L 26.671875 63.9375 L 26.71875 63.9375 L 26.765625 83.859375 L 26.8125 84.1875 L 26.71875 84.234375 L 25.828125 83.765625 L 25.453125 83.53125 L 25.265625 83.578125 L 24.328125 83.015625 L 23.671875 82.546875 L 22.875 81.984375 L 21.75 81.140625 L 21.09375 80.625 L 21.09375 80.53125 L 20.90625 80.4375 L 20.390625 80.015625 L 19.828125 79.5 L 19.5 79.171875 L 18.984375 78.75 L 18.5625 78.328125 L 18.1875 78 L 17.296875 77.109375 L 17.0625 76.921875 L 16.734375 76.546875 L 16.5 76.3125 L 16.5 76.21875 L 16.40625 76.21875 L 16.171875 75.9375 L 16.03125 75.703125 L 15.421875 75 L 15.09375 74.578125 L 14.953125 74.4375 L 14.71875 74.15625 L 14.71875 74.0625 L 14.625 74.0625 L 14.15625 73.40625 L 13.828125 72.890625 L 13.453125 72.421875 L 13.3125 72.140625 L 13.265625 71.90625 L 12.796875 71.203125 L 12.28125 70.453125 L 12.046875 70.03125 L 11.4375 68.953125 L 10.875 67.96875 L 10.171875 66.609375 L 9.75 65.71875 L 9.5625 65.34375 L 9.375 64.828125 L 9.140625 64.3125 L 8.765625 63.375 L 8.578125 62.953125 L 8.390625 62.390625 L 8.15625 61.921875 L 7.921875 61.03125 L 7.6875 60.5625 L 7.5 60.09375 L 7.453125 59.71875 L 7.359375 59.25 L 7.078125 58.734375 L 6.890625 57.796875 L 6.75 57.375 L 6.515625 56.390625 L 6.375 55.5 L 6.375 55.125 L 6.46875 55.125 L 6.375 54.5625 L 6.328125 54.375 L 6.328125 54.09375 L 6.1875 54.140625 L 6.09375 53.90625 L 5.953125 52.546875 L 5.953125 52.03125 L 6 51.65625 L 5.859375 49.640625 L 5.859375 46.21875 Z M 5.953125 45 "/>
<path style=" stroke:none;fill-rule:nonzero;fill:rgb(36.862745%,34.901961%,40.784314%);fill-opacity:1;" d="M 8.15625 21.140625 L 8.203125 21.234375 L 8.0625 21.46875 L 7.921875 21.84375 L 7.6875 22.078125 L 7.546875 22.3125 L 7.453125 22.546875 L 7.21875 22.78125 L 6.984375 23.15625 L 6.84375 23.390625 L 6.515625 24 L 6.515625 24.234375 L 6.375 24.421875 L 6.28125 24.421875 L 6.1875 24.65625 L 5.859375 25.3125 L 5.53125 25.78125 L 5.4375 26.015625 L 5.34375 26.015625 L 5.34375 26.15625 L 5.25 26.15625 L 5.203125 26.34375 L 5.015625 26.765625 L 4.875 27.140625 L 4.640625 27.609375 L 4.546875 27.84375 L 4.453125 27.890625 L 4.453125 28.078125 L 4.359375 28.125 L 4.171875 28.734375 L 4.078125 28.734375 L 4.03125 29.109375 L 3.890625 29.484375 L 3.796875 29.484375 L 3.75 29.71875 L 3.421875 30.515625 L 3.328125 30.65625 L 3.234375 31.078125 L 3.09375 31.359375 L 3.046875 31.40625 L 2.953125 31.921875 L 2.578125 32.859375 L 2.484375 33 L 2.390625 33.515625 L 2.25 33.796875 L 2.15625 34.265625 L 2.0625 34.453125 L 1.921875 35.296875 L 1.78125 35.71875 L 1.453125 36.515625 L 1.453125 36.84375 L 1.359375 37.125 L 1.265625 37.78125 L 1.078125 38.53125 L 0.84375 39.5625 L 0.75 39.890625 L 0.515625 41.4375 L 0.328125 42.609375 L 0.28125 43.921875 L 0.234375 45.140625 L 0.28125 45.1875 L 0.28125 45.421875 L 0.234375 45.609375 L 0.234375 46.3125 L 0.1875 47.484375 L 0.1875 49.21875 L 0.28125 50.953125 L 0.28125 51.28125 L 0.328125 51.703125 L 0.328125 52.171875 L 0.375 52.59375 L 0.421875 53.25 L 0.46875 53.625 L 0.5625 53.90625 L 0.703125 55.3125 L 0.796875 55.828125 L 0.890625 56.53125 L 1.125 57.609375 L 1.171875 58.078125 L 1.265625 58.265625 L 1.40625 59.25 L 1.59375 59.765625 L 1.734375 60.09375 L 1.828125 60.703125 L 1.96875 61.265625 L 2.109375 61.78125 L 2.203125 61.875 L 2.4375 62.859375 L 2.671875 63.46875 L 2.859375 63.984375 L 3 64.453125 L 3 64.59375 L 3.09375 64.59375 L 3.234375 64.828125 L 3.234375 65.0625 L 3.328125 65.109375 L 3.375 65.390625 L 3.515625 65.8125 L 3.515625 65.953125 L 3.609375 65.953125 L 3.890625 66.609375 L 4.03125 67.03125 L 4.125 67.265625 L 4.21875 67.265625 L 4.546875 68.0625 L 4.6875 68.15625 L 5.015625 69 L 5.25 69.375 L 5.390625 69.796875 L 5.578125 70.265625 L 5.8125 70.5 L 5.859375 70.828125 L 5.953125 70.921875 L 5.953125 71.0625 L 6.09375 71.109375 L 6.09375 71.203125 L 6.1875 71.203125 L 6.421875 71.578125 L 6.5625 72 L 6.84375 72.140625 L 6.9375 72.375 L 7.21875 72.703125 L 7.359375 72.984375 L 7.359375 73.171875 L 7.453125 73.171875 L 7.59375 73.40625 L 7.59375 73.5 L 7.734375 73.546875 L 7.96875 73.875 L 7.96875 73.96875 L 8.15625 74.0625 L 8.25 74.296875 L 8.25 74.4375 L 8.4375 74.53125 L 8.4375 74.671875 L 8.53125 74.671875 L 9.046875 75.5625 L 9.046875 75.65625 L 9.28125 75.75 L 9.515625 76.078125 L 9.609375 76.265625 L 9.609375 76.40625 L 9.703125 76.40625 L 9.75 76.78125 L 9.609375 76.828125 L 9.046875 76.078125 L 8.390625 75.140625 L 7.453125 73.734375 L 6.75 72.609375 L 5.953125 71.25 L 5.25 69.9375 L 4.5 68.4375 L 3.890625 67.078125 L 3.140625 65.25 L 2.53125 63.5625 L 2.015625 61.96875 L 1.5 60.09375 L 0.984375 57.890625 L 0.46875 55.078125 L 0.140625 52.875 L 0 51.796875 L 0 43.78125 L 0.65625 39.75 L 1.078125 37.59375 L 1.546875 35.625 L 2.015625 33.984375 L 2.578125 32.25 L 3.140625 30.703125 L 3.703125 29.296875 L 4.265625 28.03125 L 5.15625 26.15625 L 5.71875 25.125 L 6.375 23.953125 L 7.171875 22.640625 L 7.6875 21.84375 Z M 8.15625 21.140625 "/>
<path style=" stroke:none;fill-rule:nonzero;fill:rgb(65.882353%,18.039216%,27.45098%);fill-opacity:1;" d="M 59.390625 53.4375 L 59.90625 53.71875 L 60.703125 54.28125 L 61.3125 54.84375 L 61.828125 55.265625 L 62.953125 56.390625 L 63.28125 56.765625 L 63.890625 57.46875 L 64.546875 58.265625 L 65.8125 59.953125 L 66.234375 60.5625 L 67.125 61.875 L 73.59375 71.578125 L 76.21875 75.5625 L 76.921875 76.59375 L 77.390625 77.296875 L 77.53125 77.484375 L 77.625 77.765625 L 77.25 77.671875 L 77.203125 77.484375 L 76.96875 77.390625 L 76.828125 77.203125 L 76.6875 76.734375 L 76.59375 76.6875 L 76.59375 76.40625 L 76.3125 75.984375 L 76.125 75.75 L 75.9375 75.5625 L 75.84375 75.375 L 75.75 75.140625 L 75.65625 75.09375 L 75.5625 74.859375 L 75.375 74.71875 L 75.375 74.625 L 75.140625 74.390625 L 74.8125 73.875 L 74.71875 73.640625 L 74.625 73.59375 L 74.484375 73.359375 L 74.34375 73.21875 L 74.34375 73.125 L 74.25 73.125 L 74.0625 72.890625 L 74.0625 72.796875 L 73.96875 72.796875 L 73.828125 72.5625 L 73.828125 72.375 L 73.734375 72.375 L 73.734375 72.234375 L 73.59375 72.1875 L 73.59375 72 L 73.5 72 L 73.453125 71.859375 L 73.21875 71.625 L 73.21875 71.484375 L 73.078125 71.484375 L 72.9375 71.296875 L 72.9375 71.15625 L 72.84375 71.15625 L 72.84375 71.015625 L 72.75 71.015625 L 72.703125 70.734375 L 72.609375 70.734375 L 72.5625 70.5 L 72.46875 70.5 L 72.46875 70.359375 L 72.328125 70.3125 L 72.234375 70.171875 L 72.1875 70.03125 L 72.09375 70.03125 L 71.90625 69.796875 L 71.71875 69.46875 L 71.71875 69.28125 L 71.625 69.28125 L 71.4375 68.953125 L 71.4375 68.859375 L 71.34375 68.859375 L 71.296875 68.671875 L 71.203125 68.671875 L 71.015625 68.4375 L 71.015625 68.34375 L 70.921875 68.34375 L 70.921875 68.203125 L 70.828125 68.203125 L 70.546875 67.640625 L 70.3125 67.3125 L 70.3125 67.21875 L 70.171875 67.171875 L 70.171875 67.078125 L 70.078125 67.078125 L 69.984375 66.890625 L 69.890625 66.84375 L 69.890625 66.703125 L 69.796875 66.703125 L 69.65625 66.46875 L 69.609375 66.28125 L 69.421875 66 L 69.328125 65.90625 L 69.328125 65.765625 L 69.234375 65.765625 L 69.234375 65.671875 L 69.140625 65.671875 L 69.140625 65.578125 L 69.046875 65.53125 L 68.671875 64.96875 L 68.671875 64.828125 L 68.578125 64.828125 L 68.4375 64.59375 L 68.296875 64.40625 L 68.203125 64.21875 L 67.875 63.796875 L 67.453125 63.09375 L 67.453125 62.953125 L 67.3125 62.953125 L 67.171875 62.71875 L 67.03125 62.53125 L 66.84375 62.25 L 66.75 62.15625 L 66.796875 62.0625 L 66.703125 62.0625 L 66.5625 61.78125 L 66.46875 61.6875 L 66.46875 61.546875 L 66.28125 61.453125 L 66.328125 61.265625 L 66.140625 61.171875 L 66.140625 61.078125 L 66.046875 61.078125 L 65.90625 60.84375 L 65.90625 60.75 L 65.765625 60.703125 L 65.765625 60.5625 L 65.671875 60.515625 L 65.53125 60.328125 L 65.53125 60.1875 L 65.4375 60.1875 L 65.25 59.859375 L 65.15625 59.765625 L 64.96875 59.53125 L 64.96875 59.4375 L 64.875 59.4375 L 64.734375 59.15625 L 64.59375 59.0625 L 64.59375 58.96875 L 64.5 58.96875 L 64.5 58.828125 L 64.40625 58.828125 L 64.40625 58.734375 L 64.265625 58.734375 L 64.21875 58.59375 L 64.078125 58.40625 L 63.890625 58.171875 L 63.890625 58.078125 L 63.796875 58.078125 L 63.703125 57.84375 L 63.421875 57.515625 L 63.140625 57.140625 L 62.90625 56.90625 L 62.8125 56.71875 L 62.625 56.625 L 62.203125 56.203125 L 62.203125 56.109375 L 62.0625 56.0625 L 62.0625 55.96875 L 61.875 55.921875 L 61.59375 55.59375 L 61.453125 55.5 L 61.453125 55.40625 L 61.265625 55.3125 L 60.9375 54.9375 L 60.609375 54.703125 L 60.609375 54.609375 L 60.375 54.515625 L 60.328125 54.375 L 60.140625 54.28125 L 59.953125 54.046875 L 59.8125 53.90625 L 59.8125 53.8125 L 59.671875 53.859375 L 59.390625 53.53125 Z M 59.390625 53.4375 "/>
<path style=" stroke:none;fill-rule:nonzero;fill:rgb(37.647059%,35.686275%,41.568627%);fill-opacity:1;" d="M 15.84375 83.390625 L 16.265625 83.53125 L 16.359375 83.578125 L 16.359375 83.671875 L 16.59375 83.765625 L 17.0625 84.140625 L 17.4375 84.46875 L 17.765625 84.75 L 17.765625 84.84375 L 17.953125 84.890625 L 17.953125 84.984375 L 18.140625 85.03125 L 18.5625 85.3125 L 18.75 85.546875 L 19.171875 85.78125 L 19.6875 86.203125 L 19.828125 86.25 L 19.875 86.4375 L 20.0625 86.484375 L 20.0625 86.578125 L 20.34375 86.671875 L 20.765625 87 L 20.765625 87.09375 L 21.046875 87.1875 L 21.65625 87.5625 L 21.9375 87.75 L 22.125 87.84375 L 22.125 87.9375 L 22.359375 87.984375 L 22.6875 88.171875 L 23.15625 88.546875 L 23.53125 88.734375 L 24.046875 89.0625 L 24.984375 89.625 L 25.640625 90 L 26.109375 90.234375 L 26.34375 90.328125 L 26.34375 90.421875 L 26.578125 90.46875 L 27.234375 90.796875 L 27.5625 90.9375 L 28.3125 91.3125 L 29.015625 91.640625 L 29.296875 91.734375 L 29.296875 91.828125 L 29.578125 91.875 L 30 92.0625 L 30.75 92.34375 L 31.6875 92.8125 L 32.53125 93.046875 L 33 93.28125 L 33.703125 93.5625 L 34.125 93.609375 L 34.5 93.796875 L 35.109375 93.984375 L 36.1875 94.21875 L 36.9375 94.453125 L 37.78125 94.546875 L 38.25 94.640625 L 38.25 94.734375 L 38.484375 94.78125 L 38.953125 94.96875 L 39.328125 95.0625 L 40.875 95.0625 L 41.25 95.15625 L 41.203125 95.34375 L 41.15625 95.4375 L 40.640625 95.390625 L 38.71875 95.0625 L 36.703125 94.640625 L 34.6875 94.125 L 32.71875 93.515625 L 31.265625 93 L 29.8125 92.4375 L 28.40625 91.828125 L 27 91.171875 L 25.5 90.421875 L 23.34375 89.203125 L 22.21875 88.5 L 20.8125 87.5625 L 20.15625 87.09375 L 19.265625 86.4375 L 18.703125 86.015625 L 18 85.453125 L 17.34375 84.9375 L 16.875 84.515625 L 16.359375 84.09375 L 15.796875 83.578125 Z M 15.84375 83.390625 "/>
<path style=" stroke:none;fill-rule:nonzero;fill:rgb(67.843137%,17.254902%,26.666667%);fill-opacity:1;" d="M 71.25 43.40625 L 71.4375 43.40625 L 71.34375 43.6875 L 70.78125 44.765625 L 70.40625 45.375 L 69.75 46.3125 L 69.46875 46.640625 L 69.28125 46.921875 L 68.578125 47.671875 L 67.5 48.75 L 66.984375 49.171875 L 66.375 49.640625 L 65.8125 50.0625 L 65.15625 50.484375 L 64.21875 51.046875 L 63.46875 51.46875 L 62.390625 51.984375 L 61.171875 52.5 L 60.421875 52.78125 L 60.28125 52.734375 L 60.375 52.640625 L 60.421875 52.453125 L 60.84375 52.171875 L 61.125 52.125 L 61.125 52.03125 L 61.6875 51.703125 L 62.15625 51.46875 L 62.390625 51.328125 L 62.671875 51.234375 L 62.953125 51.09375 L 63.046875 51.09375 L 63.046875 51 L 63.28125 50.953125 L 63.28125 50.859375 L 63.65625 50.671875 L 63.984375 50.484375 L 64.265625 50.4375 L 64.3125 50.34375 L 64.6875 50.0625 L 65.203125 49.828125 L 65.296875 49.828125 L 65.34375 49.6875 L 65.53125 49.640625 L 65.53125 49.546875 L 65.671875 49.453125 L 65.8125 49.453125 L 65.859375 49.3125 L 66 49.3125 L 66 49.21875 L 66.28125 48.984375 L 66.703125 48.796875 L 66.984375 48.5625 L 67.125 48.5625 L 67.21875 48.328125 L 67.359375 48.328125 L 67.40625 48.1875 L 67.5 48.1875 L 67.5 48.09375 L 67.640625 48.09375 L 67.640625 48 L 67.78125 47.953125 L 67.96875 47.71875 L 68.203125 47.484375 L 68.34375 47.390625 L 68.390625 47.25 L 68.484375 47.25 L 68.484375 47.109375 L 68.671875 46.921875 L 69 46.5 L 69.1875 46.3125 L 69.234375 46.171875 L 69.609375 45.890625 L 69.703125 45.890625 L 69.703125 45.75 L 69.796875 45.75 L 69.796875 45.609375 L 70.03125 45.375 L 70.171875 45.1875 L 70.359375 44.90625 L 70.59375 44.484375 L 70.6875 44.484375 L 70.734375 44.25 L 71.0625 43.59375 Z M 71.25 43.40625 "/>
<path style=" stroke:none;fill-rule:nonzero;fill:rgb(36.862745%,34.901961%,40.784314%);fill-opacity:1;" d="M 86.8125 31.5 L 86.953125 31.546875 L 87.1875 32.0625 L 87.234375 32.390625 L 87.421875 32.671875 L 88.078125 34.40625 L 88.359375 35.34375 L 88.59375 36.09375 L 88.921875 37.3125 L 89.296875 38.8125 L 89.484375 39.609375 L 89.8125 41.484375 L 89.90625 42.09375 L 89.953125 42.84375 L 90 43.125 L 90.140625 45.9375 L 90.140625 48.515625 L 90.046875 50.53125 L 89.859375 52.6875 L 89.671875 53.953125 L 89.625 53.953125 L 89.671875 53.203125 L 89.859375 51.515625 L 89.953125 50.296875 L 90 49.21875 L 90 47.015625 L 89.90625 45.09375 L 89.765625 43.453125 L 89.4375 41.109375 L 89.109375 39.421875 L 88.734375 37.734375 L 88.265625 36 L 87.796875 34.5 L 87.140625 32.671875 L 86.8125 31.875 Z M 86.8125 31.5 "/>
<path style=" stroke:none;fill-rule:nonzero;fill:rgb(37.254902%,35.294118%,41.176471%);fill-opacity:1;" d="M 1.921875 61.5 L 2.015625 61.5 L 2.109375 61.78125 L 2.203125 61.875 L 2.4375 62.859375 L 2.671875 63.46875 L 2.859375 63.984375 L 3 64.453125 L 3 64.59375 L 3.09375 64.59375 L 3.234375 64.828125 L 3.234375 65.0625 L 3.328125 65.109375 L 3.375 65.390625 L 3.515625 65.8125 L 3.515625 65.953125 L 3.609375 65.953125 L 3.890625 66.609375 L 4.03125 67.03125 L 4.125 67.265625 L 4.21875 67.265625 L 4.546875 68.0625 L 4.6875 68.15625 L 5.015625 69 L 5.25 69.375 L 5.390625 69.796875 L 5.578125 70.265625 L 5.8125 70.5 L 5.859375 70.828125 L 5.953125 70.921875 L 5.953125 71.0625 L 6.09375 71.109375 L 6.09375 71.203125 L 6.1875 71.203125 L 6.421875 71.578125 L 6.5625 72 L 6.84375 72.140625 L 6.9375 72.375 L 7.21875 72.703125 L 7.359375 72.984375 L 7.359375 73.171875 L 7.453125 73.171875 L 7.59375 73.40625 L 7.59375 73.5 L 7.734375 73.546875 L 7.96875 73.875 L 7.96875 73.96875 L 8.15625 74.0625 L 8.25 74.296875 L 8.25 74.4375 L 8.4375 74.53125 L 8.4375 74.671875 L 8.53125 74.671875 L 9.046875 75.5625 L 9.046875 75.65625 L 9.28125 75.75 L 9.515625 76.078125 L 9.609375 76.265625 L 9.609375 76.40625 L 9.703125 76.40625 L 9.75 76.78125 L 9.609375 76.828125 L 9.046875 76.078125 L 8.390625 75.140625 L 7.453125 73.734375 L 6.75 72.609375 L 5.953125 71.25 L 5.25 69.9375 L 4.5 68.4375 L 3.890625 67.078125 L 3.140625 65.25 L 2.53125 63.5625 L 2.015625 61.96875 Z M 1.921875 61.5 "/>
<path style=" stroke:none;fill-rule:nonzero;fill:rgb(40.392157%,38.823529%,44.313725%);fill-opacity:1;" d="M 54.609375 95.390625 L 54.9375 95.390625 L 54.9375 95.484375 L 52.265625 95.90625 L 51.65625 96 L 44.390625 96 L 42.609375 95.71875 L 42.09375 95.625 L 42.09375 95.578125 L 42.9375 95.625 L 44.953125 95.71875 L 46.921875 95.765625 L 48.609375 95.765625 L 50.15625 95.71875 L 52.3125 95.578125 L 52.6875 95.53125 L 53.015625 95.53125 L 53.53125 95.484375 L 54.1875 95.4375 Z M 54.609375 95.390625 "/>
<path style=" stroke:none;fill-rule:nonzero;fill:rgb(36.078431%,34.509804%,40%);fill-opacity:1;" d="M 67.078125 10.21875 L 67.5 10.359375 L 67.875 10.546875 L 68.203125 10.734375 L 68.625 10.96875 L 69.1875 11.296875 L 69.703125 11.578125 L 70.828125 12.28125 L 71.53125 12.75 L 72 13.078125 L 72.796875 13.640625 L 72.890625 13.6875 L 72.890625 13.78125 L 73.265625 13.96875 L 73.265625 14.0625 L 73.453125 14.15625 L 73.59375 14.25 L 73.59375 14.34375 L 73.828125 14.4375 L 74.109375 14.671875 L 74.109375 14.765625 L 74.34375 14.859375 L 75.28125 15.703125 L 75.46875 15.796875 L 75.46875 15.890625 L 75.65625 15.984375 L 75.84375 16.125 L 75.75 16.3125 L 75.75 16.21875 L 75.5625 16.125 L 75.328125 15.890625 L 75.140625 15.75 L 75.046875 15.796875 L 74.390625 15.28125 L 73.6875 14.71875 L 73.078125 14.25 L 72.234375 13.640625 L 71.34375 13.03125 L 70.640625 12.5625 L 69.421875 11.8125 L 68.203125 11.109375 L 68.109375 11.015625 L 68.15625 10.921875 L 67.875 10.828125 L 67.21875 10.453125 L 67.125 10.40625 Z M 67.078125 10.21875 "/>
<path style=" stroke:none;fill-rule:nonzero;fill:rgb(36.862745%,34.901961%,40.784314%);fill-opacity:1;" d="M 17.34375 19.03125 L 17.4375 19.078125 L 16.875 19.6875 L 16.453125 20.15625 L 16.03125 20.671875 L 15.515625 21.28125 L 15.09375 21.796875 L 14.71875 22.265625 L 14.0625 23.15625 L 13.453125 24 L 12.984375 24.703125 L 12.375 25.640625 L 11.625 26.859375 L 11.296875 27.46875 L 10.921875 28.125 L 10.125 29.671875 L 9.46875 31.078125 L 9.234375 31.640625 L 9.1875 31.453125 L 9.328125 31.03125 L 9.515625 30.65625 L 9.65625 30.28125 L 11.0625 27.46875 L 11.15625 27.234375 L 11.296875 27.1875 L 11.390625 26.90625 L 11.8125 26.25 L 12.1875 25.546875 L 12.28125 25.546875 L 12.46875 25.078125 L 12.5625 24.796875 L 12.890625 24.375 L 13.03125 24.140625 L 13.21875 23.90625 L 13.359375 23.765625 L 13.453125 23.53125 L 13.78125 23.0625 L 13.96875 22.78125 L 14.0625 22.78125 L 14.15625 22.59375 L 14.34375 22.5 L 14.390625 22.265625 L 14.625 21.984375 L 14.859375 21.890625 L 14.953125 21.515625 L 15.09375 21.375 L 15.1875 21.375 L 15.28125 21.1875 L 15.75 20.578125 L 15.984375 20.484375 L 16.03125 20.34375 L 16.265625 20.15625 L 16.5 19.78125 L 16.78125 19.6875 L 16.828125 19.546875 L 16.921875 19.546875 L 16.921875 19.40625 L 17.015625 19.40625 L 17.0625 19.265625 L 17.15625 19.265625 Z M 17.34375 19.03125 "/>
<path style=" stroke:none;fill-rule:nonzero;fill:rgb(60.392157%,21.176471%,29.803922%);fill-opacity:1;" d="M 37.59375 43.96875 L 37.640625 43.96875 L 37.6875 46.3125 L 45.328125 46.359375 L 45.328125 46.40625 L 44.859375 46.453125 L 44.90625 46.6875 L 44.671875 46.6875 L 44.625 46.59375 L 44.484375 46.6875 L 44.0625 46.6875 L 44.109375 46.59375 L 44.015625 46.546875 L 43.921875 46.640625 L 43.734375 46.546875 L 43.546875 46.6875 L 43.453125 46.6875 L 43.453125 46.59375 L 43.359375 46.59375 L 43.359375 46.6875 L 42.609375 46.6875 L 43.171875 46.734375 L 43.171875 46.78125 L 41.765625 46.828125 L 41.625 46.78125 L 41.625 46.6875 L 41.390625 46.828125 L 41.015625 46.78125 L 40.875 46.78125 L 40.59375 46.6875 L 40.5 46.640625 L 40.546875 46.5 L 40.5 46.546875 L 40.40625 46.59375 L 40.125 46.59375 L 40.125 46.6875 L 39.890625 46.640625 L 39.796875 46.59375 L 39.703125 46.6875 L 39.5625 46.6875 L 39.5625 46.59375 L 39.46875 46.59375 L 39.421875 46.6875 L 39.234375 46.546875 L 39.28125 46.5 L 37.6875 46.40625 L 37.59375 46.265625 Z M 37.59375 43.96875 "/>
<path style=" stroke:none;fill-rule:nonzero;fill:rgb(36.862745%,34.901961%,40.784314%);fill-opacity:1;" d="M 62.15625 87.46875 L 62.296875 87.515625 L 61.640625 87.75 L 61.125 87.9375 L 60.84375 88.03125 L 59.90625 88.3125 L 59.71875 88.359375 L 59.203125 88.546875 L 58.734375 88.6875 L 58.21875 88.78125 L 58.21875 88.875 L 57.9375 88.921875 L 57.9375 89.015625 L 57.28125 89.15625 L 57.1875 89.15625 L 56.765625 89.296875 L 56.625 89.25 L 56.4375 89.296875 L 55.453125 89.53125 L 54.703125 89.625 L 54.234375 89.625 L 54.1875 89.671875 L 53.4375 89.671875 L 52.6875 89.765625 L 51.515625 89.859375 L 50.765625 89.859375 L 50.765625 89.953125 L 50.15625 89.953125 L 49.921875 90 L 48.65625 90 L 48.75 89.90625 L 50.578125 89.8125 L 52.640625 89.625 L 54.375 89.390625 L 56.484375 89.015625 L 57.796875 88.734375 L 59.484375 88.3125 L 61.171875 87.796875 Z M 62.15625 87.46875 "/>
<path style=" stroke:none;fill-rule:nonzero;fill:rgb(53.72549%,18.431373%,25.098039%);fill-opacity:1;" d="M 58.3125 68.296875 L 58.5 68.484375 L 59.625 70.171875 L 60.140625 70.96875 L 60.796875 71.953125 L 61.40625 72.890625 L 61.875 73.59375 L 62.390625 74.390625 L 62.71875 74.859375 L 63.28125 75.75 L 64.5 77.578125 L 65.109375 78.515625 L 65.578125 79.21875 L 66.140625 80.109375 L 66.46875 80.578125 L 67.03125 81.46875 L 67.40625 82.03125 L 68.015625 82.96875 L 68.390625 83.53125 L 68.390625 83.625 L 68.25 83.578125 L 67.734375 82.734375 L 66.703125 81.1875 L 66.09375 80.25 L 64.5 77.8125 L 63.9375 76.96875 L 62.953125 75.46875 L 62.625 74.953125 L 61.96875 73.96875 L 60.796875 72.1875 L 59.8125 70.6875 L 58.3125 68.4375 Z M 58.3125 68.296875 "/>
<path style=" stroke:none;fill-rule:nonzero;fill:rgb(36.862745%,34.901961%,40.784314%);fill-opacity:1;" d="M 37.875 88.734375 L 38.484375 88.828125 L 39.84375 89.109375 L 41.90625 89.4375 L 43.78125 89.671875 L 44.71875 89.765625 L 44.71875 89.8125 L 44.25 89.859375 L 44.109375 89.859375 L 43.59375 89.765625 L 43.21875 89.8125 L 42.9375 89.71875 L 42.515625 89.671875 L 41.953125 89.671875 L 41.625 89.578125 L 41.109375 89.578125 L 40.828125 89.484375 L 40.453125 89.484375 L 40.125 89.4375 L 40.078125 89.4375 L 39.234375 89.34375 L 38.390625 89.15625 L 37.921875 88.875 Z M 37.875 88.734375 "/>
<path style=" stroke:none;fill-rule:nonzero;fill:rgb(36.862745%,34.901961%,40.784314%);fill-opacity:1;" d="M 15.046875 12.984375 L 15.140625 12.984375 L 15.140625 13.078125 L 15 13.21875 L 14.90625 13.21875 L 14.859375 13.359375 L 14.765625 13.359375 L 14.671875 13.546875 L 14.390625 13.875 L 14.203125 14.0625 L 14.109375 14.0625 L 14.015625 14.25 L 13.828125 14.484375 L 13.546875 14.71875 L 13.5 14.8125 L 13.40625 14.8125 L 13.40625 14.90625 L 13.21875 14.953125 L 13.125 15.140625 L 12.890625 15.421875 L 12.75 15.5625 L 12.65625 15.5625 L 12.5625 15.796875 L 12.46875 15.796875 L 12.46875 15.890625 L 12.375 15.890625 L 12.28125 16.078125 L 12.140625 16.125 L 12.046875 16.3125 L 11.8125 16.546875 L 11.25 17.25 L 11.0625 17.4375 L 10.96875 17.671875 L 10.875 17.671875 L 10.875 17.765625 L 10.78125 17.8125 L 10.640625 18.046875 L 10.359375 18.421875 L 10.265625 18.421875 L 10.265625 18.515625 L 10.171875 18.5625 L 10.125 18.75 L 9.890625 18.984375 L 9.796875 18.984375 L 9.703125 19.171875 L 9.234375 19.828125 L 9.140625 19.828125 L 9.09375 20.015625 L 8.671875 20.53125 L 8.671875 20.390625 L 9.234375 19.59375 L 10.640625 17.765625 L 11.0625 17.25 L 11.53125 16.734375 L 11.8125 16.359375 L 11.90625 16.359375 L 12 16.171875 L 12.421875 15.703125 L 12.75 15.328125 L 13.125 14.953125 L 13.171875 14.859375 L 13.265625 14.859375 L 13.359375 14.671875 Z M 15.046875 12.984375 "/>
<path style=" stroke:none;fill-rule:nonzero;fill:rgb(36.862745%,34.901961%,40.784314%);fill-opacity:1;" d="M 5.953125 45 L 6 45 L 6 45.65625 L 5.953125 46.6875 L 5.953125 48.984375 L 6.046875 50.625 L 6.234375 52.5 L 6.46875 54.328125 L 6.515625 54.9375 L 6.421875 54.84375 L 6.328125 54.375 L 6.328125 54.09375 L 6.1875 54.140625 L 6.09375 53.90625 L 5.953125 52.546875 L 5.953125 52.03125 L 6 51.65625 L 5.859375 49.640625 L 5.859375 46.21875 Z M 5.953125 45 "/>
<path style=" stroke:none;fill-rule:nonzero;fill:rgb(36.862745%,34.901961%,40.784314%);fill-opacity:1;" d="M 26.671875 63.9375 L 26.71875 63.9375 L 26.765625 83.859375 L 26.8125 84.1875 L 26.71875 84.234375 L 26.15625 83.953125 L 26.203125 83.859375 L 26.625 84.046875 Z M 26.671875 63.9375 "/>
<path style=" stroke:none;fill-rule:nonzero;fill:rgb(59.607843%,21.960784%,30.588235%);fill-opacity:1;" d="M 37.59375 78.515625 L 37.640625 78.515625 L 37.734375 86.953125 L 37.78125 88.640625 L 37.59375 88.640625 L 37.546875 88.3125 L 37.59375 87.84375 Z M 37.59375 78.515625 "/>
<path style=" stroke:none;fill-rule:nonzero;fill:rgb(36.470588%,34.509804%,40.392157%);fill-opacity:1;" d="M 61.125 94.03125 L 61.40625 94.03125 L 61.21875 94.125 L 58.78125 94.734375 L 57 95.109375 L 55.734375 95.34375 L 55.546875 95.296875 L 55.921875 95.15625 L 56.390625 95.0625 L 56.625 94.96875 L 57.328125 94.828125 L 57.515625 94.78125 L 57.703125 94.828125 L 58.3125 94.6875 L 58.5 94.546875 L 58.78125 94.546875 L 59.015625 94.453125 L 59.625 94.359375 L 59.859375 94.3125 L 60.09375 94.21875 L 60.890625 94.078125 Z M 61.125 94.03125 "/>
<path style=" stroke:none;fill-rule:nonzero;fill:rgb(53.72549%,18.039216%,24.705882%);fill-opacity:1;" d="M 63.84375 76.6875 L 64.03125 76.875 L 64.5 77.578125 L 65.109375 78.515625 L 65.578125 79.21875 L 66.140625 80.109375 L 66.46875 80.578125 L 67.03125 81.46875 L 67.40625 82.03125 L 68.015625 82.96875 L 68.390625 83.53125 L 68.390625 83.625 L 68.25 83.578125 L 67.734375 82.734375 L 66.703125 81.1875 L 66.09375 80.25 L 64.5 77.8125 L 63.84375 76.828125 Z M 63.84375 76.6875 "/>
<path style=" stroke:none;fill-rule:nonzero;fill:rgb(37.647059%,35.686275%,41.568627%);fill-opacity:1;" d="M 1.921875 61.5 L 2.015625 61.5 L 2.109375 61.78125 L 2.203125 61.875 L 2.4375 62.859375 L 2.671875 63.46875 L 2.859375 63.984375 L 3 64.453125 L 3 64.59375 L 3.09375 64.59375 L 3.234375 64.828125 L 3.234375 65.0625 L 3.328125 65.109375 L 3.375 65.390625 L 3.515625 65.8125 L 3.515625 65.953125 L 3.609375 65.953125 L 3.890625 66.609375 L 3.9375 66.984375 L 3.796875 66.84375 L 3.140625 65.25 L 2.53125 63.5625 L 2.015625 61.96875 Z M 1.921875 61.5 "/>
<path style=" stroke:none;fill-rule:nonzero;fill:rgb(36.470588%,34.509804%,40.392157%);fill-opacity:1;" d="M 79.453125 75.75 L 79.6875 75.796875 L 79.59375 76.125 L 79.3125 76.265625 L 79.125 76.640625 L 78.5625 77.109375 L 78.515625 77.203125 L 78.328125 77.203125 L 78.234375 77.4375 L 78.09375 77.578125 L 77.8125 77.625 L 77.71875 77.8125 L 77.53125 77.671875 L 77.578125 77.578125 L 77.765625 77.53125 L 78.328125 76.96875 L 78.65625 76.59375 L 79.359375 75.890625 Z M 79.453125 75.75 "/>
<path style=" stroke:none;fill-rule:nonzero;fill:rgb(36.862745%,34.901961%,40.784314%);fill-opacity:1;" d="M 49.921875 0 L 52.078125 0 L 54.28125 0.328125 L 54.28125 0.375 L 53.4375 0.328125 L 51.796875 0.1875 L 50.296875 0.1875 L 49.96875 0.140625 Z M 49.921875 0 "/>
<path style=" stroke:none;fill-rule:nonzero;fill:rgb(69.411765%,16.470588%,26.27451%);fill-opacity:1;" d="M 26.71875 78.84375 L 26.765625 78.84375 L 26.8125 80.4375 L 26.859375 81.328125 L 26.859375 84.1875 L 26.765625 84.140625 L 26.71875 83.859375 Z M 26.71875 78.84375 "/>
<path style=" stroke:none;fill-rule:nonzero;fill:rgb(67.058824%,17.647059%,27.058824%);fill-opacity:1;" d="M 76.5 76.171875 L 76.6875 76.21875 L 77.25 77.109375 L 77.53125 77.484375 L 77.625 77.765625 L 77.25 77.671875 L 77.203125 77.484375 L 76.96875 77.390625 L 76.828125 77.203125 L 76.6875 76.734375 L 76.59375 76.6875 L 76.59375 76.40625 Z M 76.5 76.171875 "/>
<path style=" stroke:none;fill-rule:nonzero;fill:rgb(36.862745%,34.901961%,40.784314%);fill-opacity:1;" d="M 68.8125 84.328125 L 69.09375 84.328125 L 68.953125 84.46875 L 68.53125 84.703125 L 68.4375 84.703125 L 68.4375 84.796875 L 68.296875 84.796875 L 68.296875 84.9375 L 68.0625 85.078125 L 67.59375 85.21875 L 67.40625 85.3125 L 67.3125 85.453125 L 67.078125 85.5 L 67.078125 85.59375 L 66.890625 85.546875 L 66.890625 85.640625 L 66.5625 85.78125 L 66.375 85.78125 L 66.328125 85.921875 L 66.046875 86.0625 L 65.8125 86.015625 L 66 85.875 L 67.59375 85.078125 L 68.671875 84.46875 Z M 68.8125 84.328125 "/>
<path style=" stroke:none;fill-rule:nonzero;fill:rgb(36.470588%,34.509804%,40.392157%);fill-opacity:1;" d="M 81.515625 73.21875 L 81.5625 73.3125 L 81.703125 73.265625 L 81.65625 73.5 L 81.46875 73.78125 L 81.328125 73.921875 L 81.234375 73.921875 L 81.046875 74.296875 L 80.953125 74.296875 L 80.953125 74.390625 L 80.8125 74.53125 L 80.71875 74.53125 L 80.671875 74.71875 L 80.484375 74.859375 L 80.296875 74.8125 L 80.90625 74.015625 L 81.375 73.40625 Z M 81.515625 73.21875 "/>
<path style=" stroke:none;fill-rule:nonzero;fill:rgb(36.470588%,34.509804%,40.392157%);fill-opacity:1;" d="M 39.1875 95.0625 L 40.875 95.0625 L 41.25 95.15625 L 41.203125 95.34375 L 41.15625 95.4375 L 40.640625 95.390625 L 39.234375 95.15625 Z M 39.1875 95.0625 "/>
<path style=" stroke:none;fill-rule:nonzero;fill:rgb(36.862745%,34.901961%,40.784314%);fill-opacity:1;" d="M 7.96875 61.078125 L 8.0625 61.078125 L 8.671875 62.8125 L 9.234375 64.21875 L 9.609375 65.109375 L 9.5625 65.203125 L 9.1875 64.453125 L 8.765625 63.375 L 8.578125 62.953125 L 8.390625 62.390625 L 8.15625 61.921875 L 7.96875 61.265625 Z M 7.96875 61.078125 "/>
<path style=" stroke:none;fill-rule:nonzero;fill:rgb(40.784314%,38.823529%,44.313725%);fill-opacity:1;" d="M 9.65625 76.828125 L 9.84375 76.921875 L 10.078125 77.203125 L 10.21875 77.34375 L 10.21875 77.4375 L 10.3125 77.4375 L 10.640625 77.8125 L 10.875 78.09375 L 11.015625 78.1875 L 11.015625 78.28125 L 11.15625 78.328125 L 11.15625 78.421875 L 11.25 78.421875 L 11.25 78.515625 L 11.390625 78.5625 L 11.34375 78.75 L 11.25 78.75 L 11.203125 78.84375 L 10.6875 78.1875 L 10.078125 77.4375 L 9.65625 76.875 Z M 9.65625 76.828125 "/>
<path style=" stroke:none;fill-rule:nonzero;fill:rgb(36.862745%,34.901961%,40.784314%);fill-opacity:1;" d="M 53.203125 5.953125 L 54.046875 6 L 54.9375 6.140625 L 55.59375 6.28125 L 55.640625 6.328125 L 56.109375 6.421875 L 56.25 6.515625 L 55.828125 6.46875 L 55.125 6.375 L 54.609375 6.28125 L 53.390625 6.09375 L 53.203125 6.046875 Z M 53.203125 5.953125 "/>
<path style=" stroke:none;fill-rule:nonzero;fill:rgb(36.862745%,34.901961%,40.784314%);fill-opacity:1;" d="M 18.515625 10.03125 L 18.609375 10.078125 L 18.28125 10.359375 L 18.046875 10.640625 L 17.765625 10.78125 L 17.71875 10.875 L 17.625 10.875 L 17.578125 11.015625 L 17.0625 11.390625 L 16.96875 11.390625 L 16.921875 11.53125 L 16.546875 11.8125 L 15.890625 12.375 L 15.796875 12.328125 L 16.40625 11.765625 L 16.921875 11.34375 L 17.4375 10.875 L 18.234375 10.265625 Z M 18.515625 10.03125 "/>
<path style=" stroke:none;fill-rule:nonzero;fill:rgb(36.470588%,34.509804%,40.392157%);fill-opacity:1;" d="M 86.109375 65.671875 L 86.203125 65.71875 L 86.25 66 L 86.015625 66.234375 L 86.015625 66.328125 L 85.921875 66.375 L 85.875 66.609375 L 85.734375 66.84375 L 85.640625 67.078125 L 85.453125 67.265625 L 85.265625 67.640625 L 85.125 67.6875 L 85.21875 67.40625 L 85.6875 66.515625 Z M 86.109375 65.671875 "/>
<path style=" stroke:none;fill-rule:nonzero;fill:rgb(36.862745%,34.901961%,40.784314%);fill-opacity:1;" d="M 57.421875 94.78125 L 57.703125 94.828125 L 57.9375 94.828125 L 57.9375 94.921875 L 55.734375 95.34375 L 55.546875 95.296875 L 55.921875 95.15625 L 56.390625 95.0625 L 56.625 94.96875 L 57.328125 94.828125 Z M 57.421875 94.78125 "/>
<path style=" stroke:none;fill-rule:nonzero;fill:rgb(36.862745%,34.901961%,40.784314%);fill-opacity:1;" d="M 25.875 5.296875 L 25.921875 5.390625 L 25.125 5.8125 L 24.65625 6.09375 L 24.375 6.28125 L 23.953125 6.515625 L 23.484375 6.75 L 23.15625 6.984375 L 22.875 7.125 L 22.734375 7.078125 L 23.671875 6.515625 L 24.65625 5.953125 L 25.6875 5.390625 Z M 25.875 5.296875 "/>
<path style=" stroke:none;fill-rule:nonzero;fill:rgb(36.862745%,34.901961%,40.784314%);fill-opacity:1;" d="M 75.984375 16.359375 L 76.21875 16.453125 L 76.5 16.6875 L 76.5 16.78125 L 76.59375 16.78125 L 77.25 17.4375 L 77.484375 17.625 L 77.484375 17.765625 L 77.578125 17.765625 L 77.578125 17.859375 L 77.34375 17.765625 L 77.25 17.578125 L 77.015625 17.484375 L 77.015625 17.390625 L 76.921875 17.390625 L 76.6875 17.109375 L 76.59375 17.0625 L 76.59375 16.96875 L 76.40625 16.875 L 75.984375 16.453125 Z M 75.984375 16.359375 "/>
<path style=" stroke:none;fill-rule:nonzero;fill:rgb(36.862745%,34.901961%,40.784314%);fill-opacity:1;" d="M 64.359375 8.953125 L 64.78125 9.09375 L 65.859375 9.5625 L 66.5625 9.890625 L 66.5625 9.984375 L 66.84375 10.03125 L 67.078125 10.21875 L 66.75 10.171875 L 66.609375 10.125 L 66.609375 10.03125 L 66.375 9.984375 L 66.140625 9.84375 L 65.953125 9.75 L 65.53125 9.609375 L 64.40625 9.046875 Z M 64.359375 8.953125 "/>
<path style=" stroke:none;fill-rule:nonzero;fill:rgb(31.372549%,32.156863%,36.862745%);fill-opacity:1;" d="M 75.140625 15.703125 L 75.1875 15.796875 L 75.375 15.890625 L 75.609375 16.125 L 75.75 16.21875 L 75.75 16.3125 L 75.9375 16.265625 L 76.125 16.546875 L 76.5 16.921875 L 76.59375 16.96875 L 76.59375 17.0625 L 76.734375 17.109375 L 76.734375 17.203125 L 76.921875 17.296875 L 76.921875 17.390625 L 77.015625 17.390625 L 76.96875 17.53125 L 76.171875 16.78125 L 75.703125 16.359375 L 75.1875 15.9375 L 75.09375 15.75 Z M 75.140625 15.703125 "/>
<path style=" stroke:none;fill-rule:nonzero;fill:rgb(36.862745%,34.901961%,40.784314%);fill-opacity:1;" d="M 65.671875 86.015625 L 65.859375 86.0625 L 65.625 86.25 L 65.109375 86.53125 L 64.734375 86.578125 L 64.59375 86.671875 L 64.40625 86.765625 L 63.796875 86.953125 L 63.65625 86.90625 L 65.296875 86.203125 Z M 65.671875 86.015625 "/>
<path style=" stroke:none;fill-rule:nonzero;fill:rgb(56.862745%,55.686275%,59.607843%);fill-opacity:1;" d="M 82.6875 81.09375 L 82.78125 81.140625 L 82.03125 81.84375 L 81.65625 82.21875 L 81.328125 82.5 L 81.1875 82.453125 L 81.375 82.359375 L 81.46875 82.125 L 81.84375 81.75 L 82.3125 81.375 L 82.40625 81.375 L 82.40625 81.28125 Z M 82.6875 81.09375 "/>
<path style=" stroke:none;fill-rule:nonzero;fill:rgb(54.901961%,18.039216%,24.705882%);fill-opacity:1;" d="M 62.296875 74.34375 L 62.53125 74.578125 L 63.234375 75.65625 L 63.84375 76.59375 L 63.796875 76.734375 L 62.953125 75.46875 L 62.625 74.953125 L 62.296875 74.484375 Z M 62.296875 74.34375 "/>
<path style=" stroke:none;fill-rule:nonzero;fill:rgb(36.862745%,34.901961%,40.784314%);fill-opacity:1;" d="M 62.15625 87.46875 L 62.296875 87.515625 L 61.640625 87.75 L 61.125 87.9375 L 60.84375 88.03125 L 59.90625 88.3125 L 59.71875 88.359375 L 59.203125 88.546875 L 59.109375 88.453125 L 59.484375 88.3125 L 61.171875 87.796875 Z M 62.15625 87.46875 "/>
<path style=" stroke:none;fill-rule:nonzero;fill:rgb(36.078431%,34.509804%,40%);fill-opacity:1;" d="M 86.8125 31.5 L 86.953125 31.546875 L 87.1875 32.0625 L 87.28125 32.625 L 87.140625 32.671875 L 86.8125 31.875 Z M 86.8125 31.5 "/>
<path style=" stroke:none;fill-rule:nonzero;fill:rgb(52.54902%,19.215686%,25.490196%);fill-opacity:1;" d="M 60.9375 72.328125 L 61.078125 72.375 L 61.40625 72.890625 L 61.875 73.59375 L 62.296875 74.25 L 62.25 74.390625 L 60.9375 72.421875 Z M 60.9375 72.328125 "/>
<path style=" stroke:none;fill-rule:nonzero;fill:rgb(36.862745%,34.901961%,40.784314%);fill-opacity:1;" d="M 76.03125 79.3125 L 76.171875 79.359375 L 75.9375 79.59375 L 75.609375 79.828125 L 75.28125 80.203125 L 74.625 80.671875 L 74.53125 80.625 L 74.953125 80.25 L 75.46875 79.828125 Z M 76.03125 79.3125 "/>
<path style=" stroke:none;fill-rule:nonzero;fill:rgb(69.411765%,16.470588%,26.27451%);fill-opacity:1;" d="M 44.15625 46.40625 L 44.859375 46.453125 L 44.90625 46.6875 L 44.671875 46.6875 L 44.625 46.59375 L 44.484375 46.6875 L 44.0625 46.6875 L 44.109375 46.59375 L 44.015625 46.546875 L 43.921875 46.640625 L 43.734375 46.453125 Z M 44.15625 46.40625 "/>
<path style=" stroke:none;fill-rule:nonzero;fill:rgb(67.843137%,15.686275%,25.098039%);fill-opacity:1;" d="M 38.4375 46.40625 L 40.125 46.40625 L 40.078125 46.546875 L 39.75 46.5 L 39.703125 46.6875 L 39.5625 46.6875 L 39.5625 46.59375 L 39.46875 46.59375 L 39.421875 46.6875 L 39.234375 46.546875 L 39.28125 46.5 L 38.4375 46.453125 Z M 38.4375 46.40625 "/>
<path style=" stroke:none;fill-rule:nonzero;fill:rgb(36.470588%,34.509804%,40.392157%);fill-opacity:1;" d="M 50.578125 89.8125 L 51.140625 89.8125 L 51.140625 89.859375 L 50.765625 89.859375 L 50.765625 89.953125 L 50.15625 89.953125 L 49.921875 90 L 48.65625 90 L 48.75 89.90625 Z M 50.578125 89.8125 "/>
<path style=" stroke:none;fill-rule:nonzero;fill:rgb(36.862745%,34.901961%,40.784314%);fill-opacity:1;" d="M 56.25 6.515625 L 56.765625 6.515625 L 57.75 6.75 L 57.890625 6.890625 L 57.28125 6.796875 L 56.25 6.5625 Z M 56.25 6.515625 "/>
<path style=" stroke:none;fill-rule:nonzero;fill:rgb(36.862745%,34.901961%,40.784314%);fill-opacity:1;" d="M 61.125 94.03125 L 61.40625 94.03125 L 61.21875 94.125 L 59.90625 94.453125 L 59.71875 94.40625 L 59.90625 94.265625 Z M 61.125 94.03125 "/>
<path style=" stroke:none;fill-rule:nonzero;fill:rgb(56.470588%,16.862745%,23.921569%);fill-opacity:1;" d="M 67.3125 81.984375 L 67.546875 82.21875 L 68.25 83.34375 L 68.390625 83.53125 L 68.390625 83.625 L 68.25 83.578125 L 67.734375 82.734375 L 67.3125 82.125 Z M 67.3125 81.984375 "/>
<path style=" stroke:none;fill-rule:nonzero;fill:rgb(57.254902%,23.137255%,31.372549%);fill-opacity:1;" d="M 37.6875 86.953125 L 37.734375 86.953125 L 37.78125 88.640625 L 37.59375 88.640625 L 37.546875 88.3125 L 37.640625 87.984375 Z M 37.6875 86.953125 "/>
<path style=" stroke:none;fill-rule:nonzero;fill:rgb(56.470588%,55.294118%,59.215686%);fill-opacity:1;" d="M 14.53125 82.3125 L 14.765625 82.40625 L 15.703125 83.34375 L 15.65625 83.4375 L 15.046875 82.875 L 14.53125 82.359375 Z M 14.53125 82.3125 "/>
<path style=" stroke:none;fill-rule:nonzero;fill:rgb(54.117647%,18.431373%,25.098039%);fill-opacity:1;" d="M 58.3125 68.296875 L 58.5 68.484375 L 59.25 69.609375 L 59.203125 69.75 L 58.875 69.28125 L 58.3125 68.4375 Z M 58.3125 68.296875 "/>
<path style=" stroke:none;fill-rule:nonzero;fill:rgb(53.72549%,19.215686%,25.882353%);fill-opacity:1;" d="M 57.1875 66.65625 L 57.421875 66.890625 L 58.078125 67.875 L 58.03125 68.015625 L 57.421875 67.125 L 57.1875 66.796875 Z M 57.1875 66.65625 "/>
<path style=" stroke:none;fill-rule:nonzero;fill:rgb(99.607843%,99.607843%,99.607843%);fill-opacity:1;" d="M 42.84375 95.71875 L 43.828125 95.765625 L 44.4375 95.859375 L 44.296875 95.953125 L 43.734375 95.90625 L 42.84375 95.765625 Z M 42.84375 95.71875 "/>
<path style=" stroke:none;fill-rule:nonzero;fill:rgb(36.862745%,34.901961%,40.784314%);fill-opacity:1;" d="M 74.4375 80.671875 L 74.53125 80.71875 L 73.828125 81.328125 L 73.40625 81.65625 L 73.265625 81.609375 L 73.828125 81.140625 L 74.25 80.8125 Z M 74.4375 80.671875 "/>
<path style=" stroke:none;fill-rule:nonzero;fill:rgb(52.54902%,18.823529%,25.490196%);fill-opacity:1;" d="M 63.09375 75.609375 L 63.234375 75.65625 L 63.84375 76.59375 L 63.796875 76.734375 L 63.09375 75.703125 Z M 63.09375 75.609375 "/>
<path style=" stroke:none;fill-rule:nonzero;fill:rgb(55.294118%,17.254902%,23.921569%);fill-opacity:1;" d="M 64.828125 78.234375 L 64.921875 78.234375 L 65.578125 79.21875 L 65.578125 79.3125 L 65.4375 79.265625 L 64.96875 78.515625 L 64.828125 78.328125 Z M 64.828125 78.234375 "/>
<path style=" stroke:none;fill-rule:nonzero;fill:rgb(69.411765%,16.470588%,26.27451%);fill-opacity:1;" d="M 40.125 46.40625 L 40.59375 46.40625 L 40.5 46.453125 L 40.5 46.546875 L 40.40625 46.59375 L 40.125 46.59375 L 40.125 46.6875 L 39.890625 46.640625 L 39.75 46.5 L 40.078125 46.5 Z M 40.125 46.40625 "/>
<path style=" stroke:none;fill-rule:nonzero;fill:rgb(35.686275%,34.117647%,40%);fill-opacity:1;" d="M 86.109375 65.671875 L 86.203125 65.71875 L 86.25 66 L 86.109375 66.140625 L 85.921875 66.28125 L 85.875 66.140625 Z M 86.109375 65.671875 "/>
<path style=" stroke:none;fill-rule:nonzero;fill:rgb(36.862745%,34.901961%,40.784314%);fill-opacity:1;" d="M 82.640625 71.671875 L 82.6875 71.8125 L 82.640625 72.046875 L 82.546875 72.234375 L 82.40625 72.234375 L 82.265625 72.28125 L 82.359375 72.09375 Z M 82.640625 71.671875 "/>
<path style=" stroke:none;fill-rule:nonzero;fill:rgb(30.588235%,31.764706%,36.470588%);fill-opacity:1;" d="M 67.3125 10.5 L 67.875 10.78125 L 67.96875 10.734375 L 68.15625 10.921875 L 68.15625 11.015625 L 67.921875 10.96875 L 67.3125 10.59375 Z M 67.3125 10.5 "/>
<path style=" stroke:none;fill-rule:nonzero;fill:rgb(36.862745%,34.901961%,40.784314%);fill-opacity:1;" d="M 29.4375 3.609375 L 29.578125 3.65625 L 29.015625 3.9375 L 28.6875 4.078125 L 28.5 4.03125 Z M 29.4375 3.609375 "/>
<path style=" stroke:none;fill-rule:nonzero;fill:rgb(36.862745%,34.901961%,40.784314%);fill-opacity:1;" d="M 44.015625 0 L 45.234375 0 L 45.09375 0.09375 L 44.671875 0.140625 L 44.53125 0.09375 L 44.0625 0.09375 Z M 44.015625 0 "/>
<path style=" stroke:none;fill-rule:nonzero;fill:rgb(52.54902%,19.215686%,25.490196%);fill-opacity:1;" d="M 66.75 81.1875 L 66.890625 81.234375 L 67.3125 81.890625 L 67.265625 82.03125 L 66.75 81.28125 Z M 66.75 81.1875 "/>
<path style=" stroke:none;fill-rule:nonzero;fill:rgb(36.862745%,34.901961%,40.784314%);fill-opacity:1;" d="M 77.296875 78.1875 L 77.34375 78.28125 L 77.203125 78.515625 L 76.921875 78.75 L 76.640625 78.84375 Z M 77.296875 78.1875 "/>
<path style=" stroke:none;fill-rule:nonzero;fill:rgb(52.156863%,19.607843%,25.882353%);fill-opacity:1;" d="M 59.25 69.703125 L 59.4375 69.890625 L 59.8125 70.453125 L 59.765625 70.59375 L 59.25 69.84375 Z M 59.25 69.703125 "/>
<path style=" stroke:none;fill-rule:nonzero;fill:rgb(30.980392%,31.764706%,36.862745%);fill-opacity:1;" d="M 71.484375 13.03125 L 71.71875 13.125 L 72.1875 13.453125 L 72.1875 13.546875 L 72.328125 13.546875 L 72.328125 13.640625 L 72.09375 13.546875 L 71.484375 13.125 Z M 71.484375 13.03125 "/>
<path style=" stroke:none;fill-rule:nonzero;fill:rgb(36.862745%,34.901961%,40.784314%);fill-opacity:1;" d="M 30.375 3.234375 L 30.46875 3.234375 L 30.46875 3.328125 L 29.765625 3.609375 L 29.578125 3.5625 Z M 30.375 3.234375 "/>
<path style=" stroke:none;fill-rule:nonzero;fill:rgb(54.509804%,18.039216%,24.705882%);fill-opacity:1;" d="M 67.875 82.828125 L 68.015625 82.96875 L 68.390625 83.53125 L 68.390625 83.625 L 68.25 83.578125 L 67.875 82.96875 Z M 67.875 82.828125 "/>
<path style=" stroke:none;fill-rule:nonzero;fill:rgb(36.862745%,34.901961%,40.784314%);fill-opacity:1;" d="M 6.703125 39.515625 L 6.75 39.515625 L 6.703125 39.984375 L 6.65625 40.265625 L 6.5625 40.078125 L 6.609375 39.65625 Z M 6.703125 39.515625 "/>
<path style=" stroke:none;fill-rule:nonzero;fill:rgb(31.372549%,32.156863%,37.254902%);fill-opacity:1;" d="M 87 32.109375 L 87.140625 32.203125 L 87.140625 32.4375 L 87.234375 32.4375 L 87.28125 32.625 L 87.140625 32.671875 L 87 32.34375 Z M 87 32.109375 "/>
<path style=" stroke:none;fill-rule:nonzero;fill:rgb(30.980392%,31.764706%,36.862745%);fill-opacity:1;" d="M 68.4375 11.15625 L 68.625 11.203125 L 69.046875 11.4375 L 69.046875 11.53125 L 68.765625 11.4375 L 68.4375 11.25 Z M 68.4375 11.15625 "/>
<path style=" stroke:none;fill-rule:nonzero;fill:rgb(65.490196%,17.254902%,26.27451%);fill-opacity:1;" d="M 76.171875 75.75 L 76.40625 75.84375 L 76.59375 76.125 L 76.546875 76.21875 L 76.3125 75.984375 Z M 76.171875 75.75 "/>
<path style=" stroke:none;fill-rule:nonzero;fill:rgb(53.72549%,18.431373%,25.098039%);fill-opacity:1;" d="M 62.296875 74.34375 L 62.53125 74.578125 L 62.671875 74.765625 L 62.625 74.90625 L 62.4375 74.671875 L 62.296875 74.484375 Z M 62.296875 74.34375 "/>
<path style=" stroke:none;fill-rule:nonzero;fill:rgb(36.862745%,34.901961%,40.784314%);fill-opacity:1;" d="M 61.59375 7.921875 L 62.0625 8.015625 L 62.25 8.109375 L 62.25 8.203125 L 61.78125 8.0625 Z M 61.59375 7.921875 "/>
</g>
</svg>
