<svg width="205" height="30" viewBox="0 0 205 30" fill="none" xmlns="http://www.w3.org/2000/svg">
<path d="M179.505 13.3831V8.38428L174.836 10.9003L179.07 13.2212L179.505 13.3831Z" fill="#FDCA04"/>
<path d="M179.667 13.3832V19.2664L180.346 18.9156L180.4 18.9426L180.618 18.8346V13.8959L179.667 13.3832Z" fill="#009982"/>
<path d="M204.64 21.4254V11.7099L199.971 9.14612V18.9425L204.206 21.2365L204.64 21.4254Z" fill="#004283"/>
<path d="M189.982 28.6311V18.9426L185.313 16.3788V26.1482L189.548 28.4691L189.982 28.6311Z" fill="#009982"/>
<path fill-rule="evenodd" clip-rule="evenodd" d="M184.499 5.88064L174.836 10.9003L174.836 20.8047L170.167 18.2679V8.36348L170.167 8.36348L170.086 8.3365L184.608 0.780029L189.331 3.31684L189.141 3.42479L189.114 3.3978L184.499 5.79968V5.82667V5.88064Z" fill="#009982"/>
<path d="M194.922 10.4955L198.858 8.44449L194.922 6.33948V10.4955Z" fill="#009982"/>
<path d="M179.667 13.3832L180.618 13.8959L184.418 15.947L193.972 11.0083V10.7384L189.358 8.33655L179.695 13.3832H179.667Z" fill="#009982"/>
<path d="M175.841 21.3445L177.632 20.3729L175.813 21.3175L175.841 21.3445Z" fill="#434343"/>
<path d="M193.972 15.839L190.226 13.8149L180.618 18.8346L180.4 18.9425L185.259 21.4524L194.868 16.4597L193.972 16.1089V15.839Z" fill="#004283"/>
<path d="M194.977 16.4057L194.922 16.3788V16.4326L194.977 16.4057Z" fill="#434343"/>
<path d="M192.724 27.6864L204.64 21.4793L204.206 21.2364L199.971 18.9425L199.89 18.9155L190.118 23.9892L194.923 26.499L192.724 27.6864Z" fill="#004283"/>
<path d="M180.4 18.9425L180.346 18.9155L179.668 19.2664L177.632 20.3728L175.84 21.3444L190.199 29.0628L192.724 27.6864L194.922 26.499L190.118 23.9892L185.259 21.4523L180.4 18.9425Z" fill="#004283"/>
<path d="M184.499 10.8463L189.358 8.33649L184.499 5.82666V5.88063V10.8463Z" fill="#004283"/>
<path d="M184.499 5.79971V5.82669L189.141 3.42481L189.113 3.39783L184.499 5.79971Z" fill="#434343"/>
<path d="M194.922 6.33948L189.331 3.31689L189.141 3.42484L184.499 5.82672L189.358 8.33655L193.972 10.7384V11.0083V15.839V16.1089L194.868 16.4598H194.922V16.4328V16.3788V10.4955V6.33948Z" fill="#004283"/>
<path d="M33.9339 16.5136L24.5965 8.22852H23.6465V19.5632H25.3565V11.2781L34.8025 19.5632H35.644V8.22852H33.9339V16.5136Z" fill="black"/>
<path d="M51.523 8.09363H43.5428C42.3756 8.09363 41.3984 9.03819 41.3984 10.1717V17.7821C41.3984 18.6187 42.0227 19.4823 43.3799 19.4823H53.4231V13.0323H48.0215V14.6516H51.8216V17.8631H43.4071C43.1899 17.8631 43.0813 17.8091 43.0542 17.7821V10.1717C43.0542 9.92877 43.2985 9.71287 43.5699 9.71287H51.5501C51.713 9.71287 51.7944 9.73986 51.7944 9.76684C51.7944 9.76684 51.8216 9.84781 51.8216 9.98274V11.521H53.4502V9.95576C53.4502 8.82229 52.6902 8.09363 51.523 8.09363Z" fill="black"/>
<path d="M59.0957 19.4823H69.4917V17.8631H60.7243V14.5976H66.0173V12.9783H60.7243V9.71287H69.4917V8.09363H59.0957V19.4823Z" fill="black"/>
<path d="M82.4936 15.3802C84.258 15.3802 85.0723 14.0848 85.0723 12.7894V10.9273C85.0723 8.5794 83.5251 8.09363 82.2222 8.09363H74.0791V19.4283H75.7077V15.3802H79.2635L83.7151 19.4013H86.1309L81.6793 15.3802H82.4936ZM75.7077 9.71287H82.1951C83.2537 9.71287 83.4165 10.0907 83.4165 10.9273V12.7894C83.4165 13.4371 83.0908 13.761 82.4665 13.761H75.6806V9.71287H75.7077Z" fill="black"/>
<path d="M98.6985 8.09363H90.5825V19.4283H92.2111V15.3802H98.997C100.761 15.3802 101.576 14.0848 101.576 12.7894V10.9273C101.576 8.44446 99.7842 8.09363 98.6985 8.09363ZM99.9471 12.7894C99.9471 13.4371 99.6213 13.761 98.997 13.761H92.2111V9.71287H98.6985C99.7571 9.71287 99.9199 10.0907 99.9199 10.9273V12.7894H99.9471Z" fill="black"/>
<path d="M107.792 8.28259H106.163V19.4824H116.125V17.8631H107.792V8.28259Z" fill="black"/>
<path d="M145.494 12.7894H138.355C137.785 12.7894 137.704 12.5465 137.704 12.4116V10.2526C137.704 9.87479 137.785 9.71287 138.301 9.71287H145.06C145.494 9.71287 145.575 9.84781 145.575 10.1447V11.521H147.204V10.1447C147.204 9.20011 146.634 8.09363 145.06 8.09363H138.301C136.944 8.09363 136.075 8.93024 136.075 10.2526V12.4116C136.075 13.4101 136.862 14.4087 138.355 14.4087H145.494C145.575 14.4087 145.874 14.4357 146.01 14.5706C146.037 14.5976 146.145 14.7055 146.145 15.0024V17.2693C146.145 17.3233 146.118 17.8361 145.114 17.8361H138.355H138.247C138.029 17.8631 137.649 17.8361 137.487 17.7011C137.459 17.6741 137.432 17.6472 137.432 17.4852V15.6231H135.804V17.5122C135.804 18.2409 136.129 18.6997 136.428 18.9426C136.944 19.4013 137.649 19.4823 138.084 19.4823C138.219 19.4823 138.328 19.4823 138.382 19.4553H145.087C147.041 19.4553 147.747 18.1599 147.747 17.2693V15.0024C147.747 14.1928 147.394 13.68 147.123 13.4101C146.471 12.7624 145.548 12.7894 145.494 12.7894Z" fill="black"/>
<path d="M150.217 8.09363V9.71287H155.401V19.4283H157.03V9.71287H162.187V8.09363H150.217Z" fill="black"/>
<path d="M0.52002 9.71287H5.67731V19.4283H7.30592V9.71287H12.4632V8.09363H0.52002V9.71287Z" fill="black"/>
<path d="M17.5661 8.22852H15.9375V19.4013H17.5661V8.22852Z" fill="black"/>
<path d="M124.621 8.09363L118.133 19.4283H120.006L121.363 17.0534H129.235L130.565 19.4283H132.438L126.032 8.09363H124.621ZM122.286 15.4342L125.326 10.1177L128.339 15.4342H122.286Z" fill="black"/>
</svg>
