<?xml version="1.0" encoding="UTF-8" ?>
<!DOCTYPE svg PUBLIC "-//W3C//DTD SVG 1.1//EN" "http://www.w3.org/Graphics/SVG/1.1/DTD/svg11.dtd">
<svg width="2586pt" height="491pt" viewBox="0 0 2586 491" version="1.1" xmlns="http://www.w3.org/2000/svg">
<g id="#fffeffff">
</g>
<g id="#e3062fff">
<path fill="#e3062f" opacity="1.00" d=" M 74.59 0.00 L 266.07 0.00 C 272.26 2.42 279.06 5.63 281.91 12.05 C 284.71 18.60 282.44 25.78 280.33 32.17 C 275.68 45.16 270.55 57.96 265.61 70.84 C 235.04 149.26 204.13 227.54 173.20 305.82 C 136.63 218.40 99.46 131.23 63.43 43.59 C 59.65 34.82 56.49 25.07 58.68 15.47 C 60.53 7.77 67.37 2.43 74.59 0.00 Z" />
<path fill="#e3062f" opacity="1.00" d=" M 348.59 0.00 L 416.00 0.00 C 415.99 139.76 416.00 279.52 416.00 419.28 C 331.75 419.30 247.49 419.24 163.24 419.31 C 201.71 325.41 239.98 231.43 278.53 137.57 C 292.81 102.96 306.90 68.28 321.53 33.81 C 325.31 25.53 328.19 16.38 334.95 9.93 C 339.08 6.09 343.68 2.76 348.59 0.00 Z" />
<path fill="#e3062f" opacity="1.00" d=" M 0.00 113.64 C 45.31 215.44 90.35 317.37 135.37 419.30 C 90.25 419.26 45.12 419.29 0.00 419.28 L 0.00 113.64 Z" />
</g>
<g id="#2d3b92ff">
<path fill="#2d3b92" opacity="1.00" d=" M 511.22 0.76 C 559.35 0.59 607.50 0.56 655.63 0.77 C 649.82 4.05 643.79 8.17 641.66 14.86 C 637.40 27.08 642.29 39.90 646.58 51.39 C 681.32 145.41 717.11 239.04 752.41 332.86 C 780.99 251.61 809.94 170.50 838.35 89.20 C 844.20 72.37 850.15 55.58 855.79 38.69 C 858.29 30.54 861.43 21.43 857.85 13.12 C 855.17 6.90 848.75 3.93 843.22 0.78 C 869.94 0.50 896.67 0.70 923.39 0.68 C 916.63 5.69 909.44 10.74 905.27 18.26 C 901.20 25.61 898.65 33.65 895.51 41.41 C 870.32 108.50 845.71 175.80 820.94 243.04 C 790.54 325.67 760.30 408.36 729.93 491.00 L 729.20 491.00 C 683.31 375.53 637.69 259.94 591.50 144.58 C 577.22 109.22 563.21 73.75 548.42 38.61 C 543.82 28.54 537.52 19.04 529.11 11.76 C 523.78 7.14 517.46 3.92 511.22 0.76 Z" />
<path fill="#2d3b92" opacity="1.00" d=" M 1271.58 1.21 C 1300.17 1.13 1328.77 1.17 1357.37 1.45 C 1357.29 54.38 1357.42 107.30 1357.31 160.22 C 1363.90 154.76 1370.41 149.12 1377.86 144.81 C 1394.88 134.41 1415.29 130.78 1435.01 131.62 C 1452.34 132.41 1469.36 138.43 1483.33 148.71 C 1498.26 159.48 1509.88 174.34 1518.42 190.56 C 1537.44 227.01 1541.76 270.39 1532.27 310.23 C 1524.60 342.52 1506.73 373.00 1479.75 392.81 C 1448.47 416.11 1406.72 422.76 1369.03 414.47 C 1341.30 408.59 1315.72 395.71 1291.40 381.53 C 1291.38 263.36 1291.39 145.19 1291.39 27.02 C 1291.44 20.71 1290.30 13.91 1285.89 9.10 C 1282.12 4.95 1276.64 3.18 1271.58 1.21 M 1357.35 187.40 C 1357.40 247.83 1357.24 308.28 1357.43 368.71 C 1359.24 372.28 1362.62 374.82 1365.52 377.51 C 1380.82 389.69 1403.44 393.45 1421.09 384.20 C 1441.74 373.69 1454.29 352.38 1460.98 330.91 C 1467.72 308.96 1469.49 285.79 1468.92 262.94 C 1467.87 240.11 1463.99 216.37 1451.09 196.99 C 1442.43 183.66 1428.56 173.64 1412.86 170.58 C 1393.22 166.92 1370.73 171.69 1357.35 187.40 Z" />
<path fill="#2d3b92" opacity="1.00" d=" M 2023.42 1.53 C 2038.19 -1.68 2053.98 7.34 2060.16 20.89 C 2067.84 36.65 2063.43 57.71 2049.05 68.14 C 2039.23 75.59 2025.05 76.87 2014.25 70.79 C 2000.09 63.14 1992.56 45.63 1995.93 30.02 C 1998.55 16.31 2009.48 4.14 2023.42 1.53 Z" />
<path fill="#2d3b92" opacity="1.00" d=" M 1864.83 67.91 C 1870.78 60.53 1876.33 52.80 1882.54 45.62 C 1882.69 74.21 1882.59 102.81 1882.59 131.40 C 1906.85 131.43 1931.12 131.30 1955.38 131.46 C 1955.30 142.09 1955.37 152.72 1955.34 163.34 C 1930.91 163.34 1906.48 163.37 1882.05 163.33 C 1881.92 218.89 1882.05 274.46 1881.99 330.02 C 1882.27 347.97 1886.29 368.12 1901.09 379.89 C 1909.20 386.38 1919.74 389.12 1929.99 389.36 C 1937.63 389.66 1945.63 388.44 1952.16 384.21 C 1956.82 381.26 1960.40 376.98 1964.77 373.66 C 1962.64 388.81 1951.21 400.92 1938.58 408.58 C 1920.80 419.40 1898.70 419.69 1878.94 415.08 C 1860.03 410.74 1842.59 399.43 1831.83 383.16 C 1820.65 366.74 1816.49 346.58 1816.38 326.98 C 1816.42 272.44 1816.33 217.90 1816.42 163.36 C 1807.56 163.38 1798.70 163.27 1789.85 163.41 C 1815.06 131.75 1839.80 99.72 1864.83 67.91 Z" />
<path fill="#2d3b92" opacity="1.00" d=" M 1099.74 131.63 C 1128.16 131.86 1156.56 131.27 1184.98 131.38 C 1185.14 148.00 1184.75 164.62 1185.18 181.23 C 1190.58 166.46 1201.33 154.16 1213.66 144.67 C 1222.33 138.28 1232.15 132.63 1243.06 131.56 C 1251.27 131.10 1259.78 132.07 1267.02 136.26 C 1266.92 161.24 1267.13 186.22 1266.91 211.20 C 1262.39 202.80 1256.72 194.68 1248.75 189.21 C 1241.90 184.35 1233.18 181.86 1224.82 183.24 C 1211.53 184.99 1199.56 193.46 1192.88 204.99 C 1186.74 215.18 1184.84 227.30 1184.99 239.04 C 1185.02 288.35 1185.00 337.66 1185.00 386.98 C 1185.17 392.93 1186.03 399.34 1190.02 404.05 C 1192.54 407.35 1196.19 409.44 1199.42 411.95 C 1168.17 412.03 1136.92 412.03 1105.67 411.96 C 1109.99 408.98 1114.70 406.05 1117.18 401.23 C 1120.68 395.09 1120.23 387.81 1120.18 381.00 C 1120.19 311.02 1120.17 241.05 1120.20 171.07 C 1120.24 160.51 1118.90 149.24 1112.83 140.30 C 1109.85 135.71 1104.88 133.06 1099.74 131.63 Z" />
<path fill="#2d3b92" opacity="1.00" d=" M 1979.69 131.17 C 2007.73 131.24 2035.77 131.49 2063.81 131.40 C 2063.82 213.92 2063.81 296.45 2063.82 378.97 C 2063.87 386.68 2063.09 395.01 2067.12 401.95 C 2069.64 406.48 2074.21 409.15 2078.38 411.96 C 2047.08 412.04 2015.78 411.99 1984.48 411.98 C 1988.90 408.97 1993.58 405.83 1996.16 400.97 C 1999.09 395.47 1999.12 389.05 1999.00 382.97 C 1999.00 312.32 1998.98 241.66 1999.01 171.01 C 1999.40 158.88 1995.81 146.35 1987.89 137.02 C 1985.73 134.35 1982.73 132.61 1979.69 131.17 Z" />
<path fill="#2d3b92" opacity="1.00" d=" M 2096.67 131.36 C 2124.71 131.43 2152.76 131.37 2180.81 131.39 C 2180.80 144.25 2180.85 157.11 2180.78 169.97 C 2192.56 159.36 2205.07 149.32 2219.33 142.23 C 2235.17 134.13 2253.32 129.85 2271.10 132.08 C 2286.98 133.88 2302.44 140.08 2314.83 150.23 C 2324.16 157.98 2331.73 168.14 2335.37 179.79 C 2344.22 168.26 2354.63 157.87 2366.71 149.74 C 2382.37 138.96 2400.92 132.06 2420.02 131.50 C 2435.88 131.28 2451.97 134.51 2466.07 141.92 C 2480.40 149.25 2492.42 161.24 2499.23 175.88 C 2505.04 188.04 2507.15 201.60 2507.35 214.98 C 2507.34 271.32 2507.35 327.66 2507.34 384.01 C 2507.26 390.04 2507.14 396.44 2510.07 401.92 C 2512.65 406.69 2517.47 409.56 2522.11 412.05 C 2489.98 411.92 2457.85 412.07 2425.72 411.97 C 2430.52 408.93 2435.82 405.92 2438.47 400.64 C 2441.44 395.26 2441.29 388.97 2441.19 383.02 C 2441.18 330.69 2441.20 278.36 2441.18 226.03 C 2440.64 211.63 2436.20 196.65 2425.77 186.27 C 2414.83 175.48 2398.35 171.76 2383.49 174.33 C 2366.82 177.82 2351.99 188.58 2342.71 202.76 C 2343.85 211.46 2343.16 220.25 2343.35 228.99 C 2343.35 275.01 2343.35 321.02 2343.35 367.03 C 2343.66 376.33 2342.63 385.73 2344.00 394.96 C 2345.27 402.76 2351.54 408.26 2358.03 412.04 C 2326.27 411.93 2294.51 412.06 2262.76 411.98 C 2266.73 409.32 2271.01 406.73 2273.64 402.58 C 2276.78 397.70 2277.37 391.70 2277.20 386.02 C 2277.17 333.00 2277.19 279.98 2277.19 226.96 C 2277.46 215.38 2275.70 203.36 2269.81 193.22 C 2264.89 184.70 2256.44 178.49 2247.01 175.86 C 2229.43 170.95 2209.42 173.62 2194.66 184.71 C 2189.51 188.70 2184.27 193.06 2180.87 198.65 C 2180.77 261.73 2180.80 324.82 2180.85 387.90 C 2181.01 394.28 2182.33 401.29 2187.39 405.70 C 2190.00 408.30 2193.33 410.00 2196.44 411.95 C 2164.94 412.02 2133.45 412.07 2101.95 411.92 C 2108.21 408.38 2114.40 403.27 2115.74 395.80 C 2117.33 386.26 2116.40 376.54 2116.65 366.92 C 2116.65 306.59 2116.65 246.27 2116.65 185.94 C 2116.46 176.93 2117.24 167.82 2115.66 158.90 C 2113.43 147.73 2107.42 136.34 2096.67 131.36 Z" />
<path fill="#2d3b92" opacity="1.00" d=" M 932.45 140.64 C 961.47 128.89 995.10 128.24 1024.30 139.74 C 1046.07 148.38 1064.41 164.97 1075.35 185.66 C 1087.64 208.44 1091.76 234.71 1091.83 260.34 C 1034.08 260.38 976.33 260.32 918.58 260.36 C 918.25 275.05 919.06 289.84 922.67 304.14 C 927.57 324.18 936.68 343.82 951.87 358.14 C 962.91 368.86 977.53 375.77 992.82 377.60 C 1010.14 380.09 1027.85 375.44 1042.92 366.91 C 1061.89 356.18 1078.22 340.26 1087.94 320.62 C 1087.61 345.87 1075.68 370.22 1057.64 387.61 C 1037.15 407.56 1008.40 418.00 979.98 417.83 C 958.89 418.20 937.72 412.93 919.32 402.63 C 892.89 387.91 872.98 362.95 862.24 334.88 C 846.26 293.09 848.01 244.76 867.37 204.38 C 880.66 176.42 903.53 152.44 932.45 140.64 M 937.52 179.48 C 926.38 194.84 921.61 213.80 919.58 232.41 C 955.20 232.37 990.83 232.39 1026.46 232.40 C 1026.21 212.47 1022.60 191.30 1009.76 175.38 C 1000.45 163.59 984.85 156.81 969.88 159.29 C 956.77 160.85 945.10 168.88 937.52 179.48 Z" />
<path fill="#2d3b92" opacity="1.00" d=" M 1641.06 134.59 C 1661.30 131.14 1682.18 130.14 1702.48 133.74 C 1720.31 136.97 1737.98 144.95 1749.74 159.13 C 1762.54 174.28 1767.58 194.52 1767.99 214.01 C 1768.02 258.33 1767.99 302.64 1768.00 346.96 C 1768.19 359.37 1767.00 372.05 1770.51 384.14 C 1774.20 397.54 1781.11 411.61 1794.36 417.72 C 1772.26 417.87 1750.14 417.88 1728.05 417.72 C 1720.86 414.05 1714.43 408.14 1711.36 400.52 C 1708.56 393.75 1707.61 386.39 1707.10 379.13 C 1694.36 392.25 1679.30 403.34 1662.31 410.27 C 1645.28 417.22 1626.11 420.11 1608.02 415.99 C 1591.91 412.41 1577.97 401.72 1569.04 388.01 C 1557.82 370.79 1552.86 349.14 1557.25 328.90 C 1560.53 312.66 1569.59 297.81 1582.05 286.96 C 1592.32 277.88 1604.53 271.23 1617.35 266.48 C 1636.18 259.35 1655.77 254.48 1674.74 247.73 C 1683.73 244.33 1693.03 240.83 1700.31 234.33 C 1702.94 232.17 1703.94 228.77 1704.70 225.59 C 1705.83 219.79 1705.73 213.84 1705.38 207.97 C 1705.18 197.26 1702.61 186.38 1696.64 177.38 C 1690.32 167.67 1679.41 161.39 1667.92 160.32 C 1652.13 158.71 1636.33 163.84 1622.83 171.79 C 1607.60 180.46 1595.33 193.23 1583.51 205.96 C 1583.29 189.55 1583.35 173.12 1583.47 156.71 C 1601.25 146.18 1620.64 138.17 1641.06 134.59 M 1660.08 281.92 C 1646.62 287.65 1632.89 295.03 1624.56 307.52 C 1617.20 318.36 1616.13 332.22 1618.25 344.84 C 1620.07 355.02 1625.23 365.07 1634.08 370.82 C 1642.50 376.55 1653.16 377.85 1663.10 376.65 C 1679.33 375.02 1694.14 366.42 1705.41 354.89 C 1705.40 324.34 1705.32 293.78 1705.44 263.23 C 1691.31 271.68 1675.03 275.28 1660.08 281.92 Z" />
<path fill="#2d3b92" opacity="1.00" d=" M 2532.40 384.06 C 2532.79 371.34 2543.37 359.94 2556.06 358.73 C 2569.90 356.66 2583.86 367.16 2586.00 380.93 L 2586.00 389.62 C 2584.53 398.02 2578.95 405.53 2571.30 409.30 C 2562.89 413.51 2552.25 412.87 2544.44 407.64 C 2536.65 402.61 2531.99 393.29 2532.40 384.06 M 2554.19 362.26 C 2543.68 364.67 2535.67 375.13 2536.31 385.93 C 2536.23 397.92 2546.99 408.79 2559.02 408.66 C 2571.61 409.08 2582.97 397.50 2582.44 384.93 C 2582.70 370.83 2568.08 358.46 2554.19 362.26 Z" />
<path fill="#2d3b92" opacity="1.00" d=" M 2548.01 367.18 C 2554.19 367.49 2560.66 366.30 2566.62 368.47 C 2573.82 371.47 2572.81 383.91 2565.13 385.75 C 2569.32 390.63 2570.50 397.27 2573.18 403.00 C 2570.82 403.00 2568.49 403.00 2566.18 403.00 C 2564.17 398.51 2563.02 393.63 2560.60 389.35 C 2559.19 387.04 2556.25 387.74 2554.02 387.54 C 2553.97 392.69 2553.98 397.85 2554.01 403.01 C 2551.98 403.00 2549.97 403.00 2548.00 403.00 C 2548.01 391.06 2547.98 379.12 2548.01 367.18 M 2554.05 372.31 C 2553.97 375.60 2553.96 378.89 2554.01 382.18 C 2556.88 382.09 2559.89 382.59 2562.70 381.67 C 2565.81 380.48 2566.17 376.12 2564.27 373.73 C 2561.30 371.62 2557.41 372.55 2554.05 372.31 Z" />
</g>
</svg>
